<svg id="Layer_1" data-name="Layer 1" xmlns="http://www.w3.org/2000/svg" viewBox="0 0 1201.65 251.93"><path d="M762.72,333.74h44.34l-22.52-49.15-21.82,49.15ZM894.4,425.51H845.49c-7.77-18.06-22.07-53.67-22.07-53.67H747.67l-21.56,53.67H673.93c19.56-46.65,34.61-80.77,51.16-119.15,18.06-41.56,34.91-78.71,57.7-128.62L894.4,425.54ZM88.52,333.74h44.42l-22.59-49.15L88.54,333.74ZM220.2,425.51H171.31c-7.78-18-22.07-53.65-22.07-53.65H73.48L51.92,425.54H0c19.56-46.62,34.61-80.74,51.16-119.13C69.22,264.8,86,227.65,108.85,177.74l111.36,247.8v0Zm121.91-249c42.35,0,66.71,32.6,66.71,70.23,0,26.34-15,61.44-50.41,67l65.21,111.86H367.69L303.53,314.68a1.35,1.35,0,0,0-.51,1V425.54h-49.7V176.48Zm302,18.32V243a117.6,117.6,0,0,0-69.47-25.08c-129.67,3.26-89.29,248.11,68.92,141v48.42a152.59,152.59,0,0,1-92,20.31C392.27,396,431.89,174,571.35,176.48A129.21,129.21,0,0,1,644.08,194.8Zm420.63,145c30.84-51.41,60.69-107,91.29-162.27l45.65,248.31h-45.89l-19.58-111.59L1066.71,426.8s-.76,0-2,1.26L992.93,315.69c-8.24,35.37-14.55,72.75-21.82,109.86H927.75l45.4-246.81,91.56,161Zm-762-123.2v69.28c5.76,0,11,.24,15,.24,19.06,0,42.14-5.52,42.14-33.61v-.2a36,36,0,0,0-35.79-35.79c-.78,0-1.57,0-2.34.08Z" transform="translate(0 -176.33)" style="fill:#c7ccd0;fill-opacity:0.4399999976158142"/></svg>