<svg xmlns="http://www.w3.org/2000/svg" viewBox="0 0 710 285"><g id="Layer_2" data-name="Layer 2"><g id="Layer_1-2" data-name="Layer 1"><path d="M612.94,5H97.06A29.35,29.35,0,0,0,71.67,19.61L8.93,127.89a29.12,29.12,0,0,0,0,29.22L71.67,265.39A29.35,29.35,0,0,0,97.06,280H612.94a29.35,29.35,0,0,0,25.39-14.61l62.74-108.28a29.12,29.12,0,0,0,0-29.22L638.33,19.61A29.35,29.35,0,0,0,612.94,5Z" style="fill:none;stroke:#ff7315;stroke-miterlimit:10;stroke-width:10px"/><path d="M611.11,5H98.89A30,30,0,0,0,73,19.61L9,127.89a28.6,28.6,0,0,0,0,29.22L73,265.39A30,30,0,0,0,98.89,280H611.11A30,30,0,0,0,637,265.39l64-108.28a28.6,28.6,0,0,0,0-29.22L637,19.61A30,30,0,0,0,611.11,5Zm22.77,19.9,60.85,103a28.65,28.65,0,0,1,0,29.22l-60.86,103A30,30,0,0,1,608,274.7H102a30.06,30.06,0,0,1-25.9-14.61l-60.85-103a28.65,28.65,0,0,1,0-29.22l60.85-103A30.07,30.07,0,0,1,102,10.3H608A30.07,30.07,0,0,1,633.88,24.9Z" style="fill:#3a3535"/><path d="M245.83,120.21c0,13.67-10.72,21.65-31.23,21.65H174.94V62.08h37.38c19.15,0,29.4,8.09,29.4,20.74a19.12,19.12,0,0,1-10.25,17.55C240,103.11,245.83,109.83,245.83,120.21ZM189.75,73.7v22h21c10.26,0,16.07-3.65,16.07-10.94S221,73.7,210.72,73.7Zm41.15,45c0-8-6-11.51-17.21-11.51H189.75v23h23.94C224.86,130.24,230.9,126.7,230.9,118.72Z" style="fill:#3a3535"/><path d="M261.66,62.08h14.82v79.78H261.66Z" style="fill:#3a3535"/><path d="M350.21,141.86,333.92,118.5a28.92,28.92,0,0,1-3.08.11h-18v23.25H298V62.08h32.83c21,0,34,10.71,34,28.38,0,12.08-6.15,21-17,25.19l18.35,26.21Zm-20-67.24H312.83v31.8h17.33c13,0,19.71-5.93,19.71-16S343.15,74.62,330.16,74.62Z" style="fill:#3a3535"/><path d="M375.62,102c0-23.82,18.24-41,42.74-41,13,0,24.16,4.67,31.57,13.33l-9.57,9a28,28,0,0,0-21.31-9.35c-16.53,0-28.5,11.63-28.5,28s12,28,28.5,28a27.74,27.74,0,0,0,21.31-9.46l9.57,9.12c-7.41,8.66-18.57,13.33-31.68,13.33C393.86,143,375.62,125.79,375.62,102Z" style="fill:#3a3535"/><path d="M535.06,62.08v79.78H520.25V107.67H479v34.19H464.17V62.08H479V95h41.26V62.08Z" style="fill:#3a3535"/><path d="M98.89,222.88l2.19-4.93a18.87,18.87,0,0,0,11.26,3.76c5.32,0,7.56-1.91,7.56-4.44,0-7.36-20.28-2.54-20.28-15.21,0-5.51,4.39-10.19,13.75-10.19a21.61,21.61,0,0,1,11.36,3l-2,4.92a19,19,0,0,0-9.41-2.68c-5.27,0-7.41,2.05-7.41,4.63,0,7.27,20.23,2.54,20.23,15.07,0,5.46-4.44,10.14-13.8,10.14C107,227,101.71,225.31,98.89,222.88Z" style="fill:#3a3535"/><path d="M158,221.17v5.31h-25.6V192.35h24.91v5.32H138.77v8.87h16.48v5.22H138.77v9.41Z" style="fill:#3a3535"/><path d="M162.51,209.42c0-10.19,7.8-17.55,18.28-17.55,5.56,0,10.34,2,13.51,5.7l-4.1,3.85a12,12,0,0,0-9.11-4c-7.07,0-12.19,5-12.19,12s5.12,12,12.19,12a11.83,11.83,0,0,0,9.11-4l4.1,3.9c-3.17,3.7-8,5.7-13.55,5.7C170.31,227,162.51,219.61,162.51,209.42Z" style="fill:#3a3535"/><path d="M199.86,211.61V192.35h6.33v19c0,7,3.17,10,8.68,10s8.63-3,8.63-10v-19h6.24v19.26c0,9.95-5.6,15.36-14.92,15.36S199.86,221.56,199.86,211.61Z" style="fill:#3a3535"/><path d="M260.94,226.48l-7-10a11.56,11.56,0,0,1-1.31,0H245v9.94h-6.34V192.35h14c9,0,14.52,4.59,14.52,12.14a10.91,10.91,0,0,1-7.26,10.78l7.85,11.21Zm-8.58-28.76H245v13.6h7.41c5.56,0,8.44-2.54,8.44-6.83S257.92,197.72,252.36,197.72Z" style="fill:#3a3535"/><path d="M274.25,192.35h6.34v34.13h-6.34Z" style="fill:#3a3535"/><path d="M296.73,197.72H285.42v-5.37h29v5.37H303.07v28.76h-6.34Z" style="fill:#3a3535"/><path d="M338.34,214.44v12H332V214.54l-13.41-22.19h6.78l10,16.63,10.09-16.63h6.24Z" style="fill:#3a3535"/><path d="M366.42,222.88l2.19-4.93a18.88,18.88,0,0,0,11.27,3.76c5.31,0,7.55-1.91,7.55-4.44,0-7.36-20.28-2.54-20.28-15.21,0-5.51,4.39-10.19,13.75-10.19a21.56,21.56,0,0,1,11.36,3l-2,4.92a19,19,0,0,0-9.41-2.68c-5.26,0-7.41,2.05-7.41,4.63,0,7.27,20.24,2.54,20.24,15.07,0,5.46-4.44,10.14-13.8,10.14C374.56,227,369.25,225.31,366.42,222.88Z" style="fill:#3a3535"/><path d="M425.56,221.17v5.31H400V192.35h24.92v5.32H406.3v8.87h16.48v5.22H406.3v9.41Z" style="fill:#3a3535"/><path d="M455,226.48l-7-10a11.65,11.65,0,0,1-1.32,0H439v9.94h-6.34V192.35h14c9,0,14.53,4.59,14.53,12.14a10.91,10.91,0,0,1-7.26,10.78l7.84,11.21Zm-8.58-28.76H439v13.6h7.41c5.56,0,8.43-2.54,8.43-6.83S451.94,197.72,446.38,197.72Z" style="fill:#3a3535"/><path d="M499.47,192.35,484.6,226.48h-6.24l-14.92-34.13h6.87l11.36,26.33,11.46-26.33Z" style="fill:#3a3535"/><path d="M503.08,192.35h6.33v34.13h-6.33Z" style="fill:#3a3535"/><path d="M516.19,209.42c0-10.19,7.8-17.55,18.28-17.55,5.56,0,10.34,2,13.51,5.7l-4.1,3.85a12,12,0,0,0-9.11-4c-7.07,0-12.19,5-12.19,12s5.12,12,12.19,12a11.83,11.83,0,0,0,9.11-4l4.1,3.9c-3.17,3.7-8,5.7-13.56,5.7C524,227,516.19,219.61,516.19,209.42Z" style="fill:#3a3535"/><path d="M579.67,221.17v5.31h-25.6V192.35H579v5.32H560.41v8.87h16.48v5.22H560.41v9.41Z" style="fill:#3a3535"/><path d="M583.86,222.88l2.19-4.93a18.87,18.87,0,0,0,11.26,3.76c5.32,0,7.56-1.91,7.56-4.44,0-7.36-20.28-2.54-20.28-15.21,0-5.51,4.39-10.19,13.75-10.19a21.61,21.61,0,0,1,11.36,3l-2,4.92a19,19,0,0,0-9.41-2.68c-5.27,0-7.41,2.05-7.41,4.63,0,7.27,20.23,2.54,20.23,15.07,0,5.46-4.43,10.14-13.8,10.14C592,227,586.69,225.31,583.86,222.88Z" style="fill:#3a3535"/></g></g></svg>