<svg xmlns="http://www.w3.org/2000/svg" viewBox="0 0 818.29 179.4"><g id="Layer_2" data-name="Layer 2"><g id="final"><path d="M0,93.12v-.29C0,63.21,23.24,38.68,55.59,38.68c19.94,0,31.88,6.73,42.87,16.6L90,64C80.71,55.58,70.35,49.6,55.43,49.6c-24.34,0-42.55,18.85-42.55,42.92v.31c0,24.22,18.37,43.22,42.55,43.22,15.08,0,25-5.53,35.49-15.11l8.17,7.63c-11.47,11.07-24,18.4-44,18.4C23.4,147,0,123.19,0,93.12" style="fill:#939598"/><path d="M123,106.88v-.29c0-21.84,17.9-40.39,42.4-40.39,24.34,0,42.24,18.25,42.24,40.08v.31c0,21.83-18.06,40.38-42.56,40.38C140.71,147,123,128.72,123,106.88m72.24,0v-.29a30,30,0,0,0-30.16-30.22c-17.58,0-29.67,13.61-29.67,29.91v.31a29.68,29.68,0,0,0,30,30.06c17.59,0,29.84-13.46,29.84-29.77" style="fill:#939598"/><path d="M235.05,67.84h12.09V81.31c5.34-8.38,13.82-15.11,27.8-15.11,19.63,0,31.08,12.57,31.08,31v48H293.93V100c0-14.37-8.16-23.34-22.45-23.34-14,0-24.34,9.72-24.34,24.23v44.28H235.05V67.84" style="fill:#939598"/><path d="M344.87,124.68V78H333.56V67.84h11.31V44.51H357V67.84h25.75V78H357v45.17c0,9.42,5.49,12.86,13.66,12.86a26.54,26.54,0,0,0,11.78-2.69v9.87a31.59,31.59,0,0,1-14.61,3.29c-13,0-22.92-6.13-22.92-21.84" style="fill:#939598"/><path d="M409.68,67.84h12.09V88c6-12.86,17.74-22.14,33.13-21.54V78.92H454c-17.74,0-32.19,12.11-32.19,35.44v30.82H409.68V67.84" style="fill:#939598"/><path d="M470.41,106.88v-.29c0-21.84,17.9-40.39,42.39-40.39s42.25,18.25,42.25,40.08v.31c0,21.83-18.06,40.38-42.56,40.38-24.34,0-42.08-18.25-42.08-40.09m72.23,0v-.29a29.94,29.94,0,0,0-30.15-30.22c-17.59,0-29.68,13.61-29.68,29.91v.31a29.68,29.68,0,0,0,30,30.06c17.59,0,29.84-13.46,29.84-29.77" style="fill:#939598"/><rect x="583.58" y="35.99" width="12.09" height="109.19" style="fill:#939598"/><polygon points="682.8 114.42 742.58 114.44 742.58 151.69 760.88 151.69 760.88 99.07 703.42 99.11 752.17 31.73 729.38 31.73 678.56 102.37 682.8 114.42" style="fill:#c32032;fill-rule:evenodd"/><path d="M746.24,175.62a97,97,0,0,1-18.62,1.63A83.68,83.68,0,1,1,807.93,70a89.78,89.78,0,1,0-61.69,105.63" style="fill:#c32032;fill-rule:evenodd"/><path d="M801.24,25.49v0a8.53,8.53,0,1,1,17-.05v.05a8.53,8.53,0,1,1-17,0Zm16.07,0v-.05a7.49,7.49,0,0,0-7.54-7.59,7.58,7.58,0,0,0-7.55,7.64v0a7.55,7.55,0,1,0,15.09,0ZM806.58,21h3.83c1.76,0,3.18.93,3.18,2.65a2.65,2.65,0,0,1-2.11,2.6l2.4,3.33h-1.71L810,26.42h-2v3.14h-1.38Zm3.68,4.32c1.22,0,1.91-.64,1.91-1.57s-.74-1.52-1.91-1.52H808V25.3Z" style="fill:#c32032"/></g></g></svg>