<svg id="Layer_1" data-name="Layer 1" xmlns="http://www.w3.org/2000/svg" viewBox="0 0 216 30.39"><path d="M34,28.45c-.25,0-.51,0-.77,0s-.52,0-.77,0l-.79-7.57c.51-.05,1-.08,1.56-.08s1,0,1.54.08L34,28.45Z" transform="translate(-18 -20.8)"/><path d="M30.87,28.81l-.72.27a5.66,5.66,0,0,0-.7.34l-3.68-6.66a13.91,13.91,0,0,1,1.4-.68,13.3,13.3,0,0,1,1.45-.53l2.25,7.26Z" transform="translate(-18 -20.8)"/><path d="M28.32,30.19a6.92,6.92,0,0,0-.56.53c-.18.19-.35.38-.51.58l-6-4.69a14.26,14.26,0,0,1,1-1.18c.36-.37.73-.72,1.12-1.05l4.91,5.81Z" transform="translate(-18 -20.8)"/><path d="M26.48,32.5a7.5,7.5,0,0,0-.33.7,6.28,6.28,0,0,0-.25.73l-7.31-2.11c.14-.49.31-1,.5-1.47s.42-1,.65-1.4l6.74,3.55Z" transform="translate(-18 -20.8)"/><path d="M25.65,35.31a6.62,6.62,0,0,0,0,.77,6.4,6.4,0,0,0,0,.77l-7.57.79c0-.51-.08-1-.08-1.56s0-1,.08-1.53l7.57.76Z" transform="translate(-18 -20.8)"/><path d="M26,38.43a7.18,7.18,0,0,0,.27.73,7.32,7.32,0,0,0,.33.69L20,43.53c-.24-.45-.47-.92-.68-1.4s-.38-1-.53-1.45L26,38.43Z" transform="translate(-18 -20.8)"/><path d="M27.39,41a6.92,6.92,0,0,0,.53.56,7,7,0,0,0,.58.51l-4.7,6q-.6-.48-1.17-1a13.91,13.91,0,0,1-1.05-1.13L27.39,41Z" transform="translate(-18 -20.8)"/><path d="M29.69,42.83a7.65,7.65,0,0,0,.71.32,4.84,4.84,0,0,0,.73.25L29,50.72a15.39,15.39,0,0,1-2.87-1.16l3.54-6.73Z" transform="translate(-18 -20.8)"/><path d="M32.42,43.55c.26,0,.51,0,.78,0s.51,0,.77,0l.78,7.57c-.51.05-1,.08-1.55.08s-1,0-1.54-.08l.76-7.57Z" transform="translate(-18 -20.8)"/><path d="M35.54,43.19c.25-.08.49-.17.73-.27a5.52,5.52,0,0,0,.69-.34l3.68,6.66a12.94,12.94,0,0,1-1.4.68c-.48.21-1,.38-1.45.54l-2.25-7.27Z" transform="translate(-18 -20.8)"/><path d="M38.09,41.81a6.92,6.92,0,0,0,.56-.53,6.83,6.83,0,0,0,.51-.58l6,4.69a14.13,14.13,0,0,1-1,1.18c-.36.37-.74.72-1.13,1l-4.91-5.81Z" transform="translate(-18 -20.8)"/><path d="M39.94,39.5a5.55,5.55,0,0,0,.32-.7,6.34,6.34,0,0,0,.26-.73l7.31,2.11a14.25,14.25,0,0,1-.51,1.47,13.71,13.71,0,0,1-.65,1.4L39.94,39.5Z" transform="translate(-18 -20.8)"/><path d="M40.79,36.8c0-.26,0-.52,0-.78s0-.51,0-.77l7.57-.79c0,.52.08,1,.08,1.56s0,1-.08,1.54l-7.57-.76Z" transform="translate(-18 -20.8)"/><path d="M40.43,33.68c-.08-.25-.17-.49-.27-.73a5.52,5.52,0,0,0-.34-.69l6.66-3.69A13.1,13.1,0,0,1,47.16,30a14,14,0,0,1,.53,1.44l-7.26,2.26Z" transform="translate(-18 -20.8)"/><path d="M39.05,31.13a7.15,7.15,0,0,0-.53-.57c-.19-.18-.38-.35-.58-.51l4.69-6a14.26,14.26,0,0,1,1.18,1c.37.36.72.73,1,1.12l-5.81,4.92Z" transform="translate(-18 -20.8)"/><path d="M36.74,29.28c-.23-.12-.46-.23-.7-.33a7,7,0,0,0-.73-.25l2.11-7.31a14.25,14.25,0,0,1,1.47.51,13.71,13.71,0,0,1,1.4.65l-3.55,6.73Z" transform="translate(-18 -20.8)"/><polygon points="96.25 28.21 103.21 28.21 103.21 7.8 113.15 7.8 113.15 2.36 86.29 2.36 86.29 7.8 96.25 7.8 96.25 28.21 96.25 28.21"/><path d="M160.85,35.82c0,7.69,6,13.85,16.12,13.85s16.11-6.16,16.11-13.85c0-7.92-6-13.49-16.12-13.49s-16.11,5.57-16.11,13.49Zm8.06.54c0-4.66,1.73-8.77,8-8.84s8.88,4.06,8.52,8.71c-.34,4.32-2.27,8.05-8.52,8.05-6,0-8-3.73-8-7.92Z" transform="translate(-18 -20.8)" style="fill-rule:evenodd"/><polygon points="177.17 28.21 184.16 28.21 184.16 11.7 184.25 11.7 197.65 28.21 205.71 28.21 205.71 2.32 198.64 2.36 198.64 19.17 198.55 19.17 185.13 2.36 177.17 2.36 177.17 28.21 177.17 28.21"/><polygon points="34.01 28.23 55.92 28.23 55.92 22.72 41 22.72 41 2.32 34.01 2.32 34.01 28.23 34.01 28.23"/><path d="M102.71,23.12h-7V39c0,4-2.24,5.53-7.38,5.53S81,42.93,81,39V23.12H74.08V39c0,7.25,5.47,10.72,14.29,10.72S102.71,46.16,102.71,39V23.12Z" transform="translate(-18 -20.8)"/><path d="M132.66,49h6.46V38.94h10.46c2.72,0,3.21,1.29,3.65,4,.55,3.4,1,6.15,2.94,6h5.48c-1.58.32-2-4.2-2.38-6.33-.89-5.7-1.86-6-4.52-6.09l0-.09c3.36-1.07,5.49-3.65,5.4-6.79-.1-4.16-3-7-9.78-6.59H132.66V49ZM139,28.44h8.66c3.22,0,5.46.45,5.46,3s-2.24,3-5.46,3H139V28.44Z" transform="translate(-18 -20.8)" style="fill-rule:evenodd"/><path d="M234,45.36A3.59,3.59,0,1,0,230.41,49,3.59,3.59,0,0,0,234,45.36Zm-.41,0a3.18,3.18,0,1,1-3.19-3.18,3.18,3.18,0,0,1,3.19,3.18Zm-4.52,1.87h.51V45.54h1.3c.82,0,.59.73.67,1.19l.09.5h.6c-.22-.34-.14-.42-.19-.94-.06-.69-.07-.75-.48-1a1,1,0,0,0,.53-1c-.06-.9-.65-1-1.26-1h-1.77v3.95Zm1.78-3.51c.31,0,.8.09.72.76a.62.62,0,0,1-.72.61h-1.27V43.72Z" transform="translate(-18 -20.8)" style="fill-rule:evenodd"/><path d="M229.07,47.23V43.28h1.77c.61,0,1.2.11,1.26,1a1,1,0,0,1-.53,1c.41.26.42.32.48,1,0,.52,0,.6.19.94h-.6l-.09-.5c-.08-.46.15-1.19-.67-1.19h-1.3v1.69Zm1.78-3.51h-1.27v1.37h1.27a.62.62,0,0,0,.72-.61c.08-.67-.41-.76-.72-.76Z" transform="translate(-18 -20.8)"/></svg>