<svg id="Layer_1" data-name="Layer 1" xmlns="http://www.w3.org/2000/svg" viewBox="0 0 118.01 69.76"><path d="M83,27a9.38,9.38,0,1,0,9.38,9.37A9.37,9.37,0,0,0,83,27m15,9.37a15,15,0,1,1-15-15,15,15,0,0,1,15,15m-83.14-8h-.95a23,23,0,0,0-3.39.25,14.07,14.07,0,0,0-3.39,1.1V50.34H.05V22.91H6.68V25.7A19.05,19.05,0,0,1,11,23.16a10.94,10.94,0,0,1,4.09-.85,8.18,8.18,0,0,1,1,.05v6.08c-.45-.05-.85-.1-1.15-.1m18.26,8.83a33.34,33.34,0,0,0-3.89.4,8.06,8.06,0,0,0-2.5.85,2.86,2.86,0,0,0-1.34,1.35,4.91,4.91,0,0,0-.4,2,4.38,4.38,0,0,0,.89,3,3.24,3.24,0,0,0,2.35.95,8.74,8.74,0,0,0,2.09-.3,13.2,13.2,0,0,0,1.9-.55l.85-.35V37.17Zm.34,13.12V47.75c-1.74,1-3.29,1.79-4.63,2.39a9.32,9.32,0,0,1-3.79.9,6.81,6.81,0,0,1-5.19-2.2c-1.35-1.44-2-3.59-2-6.43s.7-4.89,2-6.24a6.67,6.67,0,0,1,2.59-1.59,22.05,22.05,0,0,1,3.34-.8,29.18,29.18,0,0,1,3.65-.25c1.24,0,2.44-.05,3.64-.05v-.8A17.1,17.1,0,0,0,33,30.19a4,4,0,0,0-.6-1.65,2.78,2.78,0,0,0-1.5-.94,9.34,9.34,0,0,0-2.64-.3,30.73,30.73,0,0,0-3.44.25c-1.25.15-2.8.4-4.54.69l-.7-4.13c2.34-.65,4.59-1.1,6.63-1.5a32.76,32.76,0,0,1,5.34-.55c3.49,0,5.84,1,7,2.84a12.19,12.19,0,0,1,.7,1.4,7.41,7.41,0,0,1,.45,1.75A23.29,23.29,0,0,1,40,30.44c0,.9,0,2,0,3.34V50.34H33.51Z" transform="translate(-0.05 -1.11)" style="fill:#00668d"/><path d="M62.74,50.29,52.57,36.82V50.29H45.48v-41h7.09V34.63L62.69,22.81h7.43L58.75,35.08,70.82,50.24H62.74Z" transform="translate(-0.05 -1.11)" style="fill:#00668d"/><path d="M84.88,19.37a1.95,1.95,0,1,1-1.94-1.95,1.94,1.94,0,0,1,1.94,1.95m0-4.14a1.95,1.95,0,1,1-1.94-2,1.94,1.94,0,0,1,1.94,2m0-4.19a1.95,1.95,0,1,1-1.94-1.95A1.94,1.94,0,0,1,84.88,11m0-8a1.95,1.95,0,1,1-1.94-1.95,1.94,1.94,0,0,1,1.94,2m6.59,3a1.95,1.95,0,1,1-2-1.94,2,2,0,0,1,2,1.94m11.82,5.24a1.95,1.95,0,1,1-2-1.95,1.94,1.94,0,0,1,2,1.95M111.77,21a1.95,1.95,0,1,1-2-1.94,2,2,0,0,1,2,1.94m4.14,12.27a1.95,1.95,0,1,1-2-1.94,2,2,0,0,1,2,1.94m-1.3,12.87a1.95,1.95,0,1,1-2-1.95,1.94,1.94,0,0,1,2,1.95m-6.44,11.17a1.95,1.95,0,1,1-1.94-1.94,1.94,1.94,0,0,1,1.94,1.94M97.45,65a1.95,1.95,0,1,1-1.94-1.94A2,2,0,0,1,97.45,65M85,67.74a1.95,1.95,0,1,1-1.94-1.94A1.94,1.94,0,0,1,85,67.74M72.32,64.85a1.95,1.95,0,1,1-1.95-1.94,2,2,0,0,1,1.95,1.94M61.74,57.32a1.95,1.95,0,1,1-1.94-1.94,1.94,1.94,0,0,1,1.94,1.94M55.06,46a1.95,1.95,0,1,1-2-2,1.94,1.94,0,0,1,2,2m2.79-25.14a1.95,1.95,0,1,1-1.94-1.94,1.94,1.94,0,0,1,1.94,1.94m20.6-15a1.95,1.95,0,1,1-1.94-1.94,2,2,0,0,1,1.94,1.94M66.73,11.14a1.95,1.95,0,1,1-1.94-2,1.94,1.94,0,0,1,1.94,2M53.56,32.73a1.95,1.95,0,1,1-1.94-1.94,1.94,1.94,0,0,1,1.94,1.94" transform="translate(-0.05 -1.11)" style="fill:#00668d;opacity:0.5"/><path d="M84.88,7A1.95,1.95,0,1,1,82.94,5a1.94,1.94,0,0,1,1.94,2m6.94,14.56a1.94,1.94,0,0,1-2.55,1,1.93,1.93,0,1,1,2.55-1m1.69-3.79a1.93,1.93,0,1,1-1-2.54,2,2,0,0,1,1,2.54M106.73,44.5a1.94,1.94,0,0,1-2.54,1,1.93,1.93,0,1,1,2.54-1m-4.89,8.28a1.93,1.93,0,0,1-2.54,1,1.93,1.93,0,1,1,2.54-1M94,58.37a1.93,1.93,0,1,1-1-2.55,2,2,0,0,1,1,2.55m-9.28,1.84a1.93,1.93,0,0,1-2.54,1,1.93,1.93,0,1,1,2.54-1m-9.47-2a2,2,0,0,1-2.54,1,1.93,1.93,0,1,1,2.54-1m-7.83-5.69a1.93,1.93,0,1,1-1-2.54,2,2,0,0,1,1,2.54M62.29,44a1.93,1.93,0,0,1-2.54,1,1.93,1.93,0,1,1,2.54-1m-.6-9.17a1.94,1.94,0,0,1-2.54,1,1.94,1.94,0,1,1,2.54-1m2.45-9.43a1.93,1.93,0,1,1-1-2.54,2,2,0,0,1,1,2.54M71,18.52A1.93,1.93,0,1,1,70,16a2,2,0,0,1,1,2.54m8.88-3.89a1.94,1.94,0,0,1-2.55,1,1.93,1.93,0,0,1,1.55-3.54,2,2,0,0,1,1,2.54m25,11.17a1.93,1.93,0,1,1-1-2.54,2,2,0,0,1,1,2.54m-15.31-11a1.93,1.93,0,0,1-2.54,1,1.93,1.93,0,1,1,2.54-1m8.88,3.84a1.94,1.94,0,0,1-2.54,1,1.93,1.93,0,1,1,2.54-1m9.43,16.21a2,2,0,0,1-2.55,1,1.94,1.94,0,1,1,2.55-1m-12.67-21a1.93,1.93,0,1,1-3.54-1.54,1.93,1.93,0,1,1,3.54,1.54m3.24-7.28a1.94,1.94,0,0,1-2.54,1,2,2,0,0,1-1-2.55,1.93,1.93,0,0,1,3.54,1.55m-1.6,3.59a1.93,1.93,0,0,1-2.54,1,2,2,0,0,1-1-2.55,1.93,1.93,0,0,1,3.54,1.55m.3,16.16a1.94,1.94,0,1,1,.1-2.74,1.91,1.91,0,0,1-.1,2.74m3-2.84a1.95,1.95,0,1,1,.1-2.75,1.93,1.93,0,0,1-.1,2.75m3-2.9a1.94,1.94,0,1,1,.1-2.74,1.92,1.92,0,0,1-.1,2.74m5.83-5.43a1.94,1.94,0,1,1,.1-2.74,1.91,1.91,0,0,1-.1,2.74m-2.89,2.69a1.91,1.91,0,1,1,.2-2.69,1.9,1.9,0,0,1-.2,2.69M99.85,33.33A1.92,1.92,0,1,1,101,30.89a1.94,1.94,0,0,1-1.19,2.44M103.74,32a1.93,1.93,0,1,1,1.19-2.45A1.94,1.94,0,0,1,103.74,32m4-1.4a1.92,1.92,0,1,1,1.19-2.45,1.94,1.94,0,0,1-1.19,2.45M115.26,28a1.93,1.93,0,1,1,1.19-2.45A1.94,1.94,0,0,1,115.26,28m-3.69,1.29a1.92,1.92,0,1,1,1.19-2.44,1.94,1.94,0,0,1-1.19,2.44M99.65,40.36a1.93,1.93,0,1,1,2.09-1.74,1.91,1.91,0,0,1-2.09,1.74m4.14.35a1.93,1.93,0,1,1,.35-3.84,2,2,0,0,1,1.74,2.1,1.92,1.92,0,0,1-2.09,1.74m4.19.35a1.93,1.93,0,1,1,2.09-1.74A1.92,1.92,0,0,1,108,41.06m8,.65A1.93,1.93,0,1,1,118.05,40,1.92,1.92,0,0,1,116,41.71m-3.94-.3a1.92,1.92,0,0,1-1.75-2.09,2,2,0,0,1,2.09-1.75,1.93,1.93,0,1,1-.34,3.84M96.8,46.6A1.93,1.93,0,1,1,99.45,46a1.95,1.95,0,0,1-2.65.65m3.54,2.14a1.93,1.93,0,1,1,2.65-.65,1.94,1.94,0,0,1-2.65.65m3.6,2.25a1.92,1.92,0,1,1,2.64-.65,1.94,1.94,0,0,1-2.64.65m6.78,4.19a1.93,1.93,0,1,1,2.64-.65,1.94,1.94,0,0,1-2.64.65m-3.34-2.1a1.92,1.92,0,1,1,2.64-.65,1.93,1.93,0,0,1-2.64.65M91.57,51.19a1.93,1.93,0,1,1,2.69.4,1.92,1.92,0,0,1-2.69-.4M94,54.53a1.93,1.93,0,1,1,2.69.4,1.92,1.92,0,0,1-2.69-.4m2.49,3.39a1.93,1.93,0,1,1,2.7.4,1.93,1.93,0,0,1-2.7-.4m4.74,6.38a1.92,1.92,0,1,1,2.7.4,1.91,1.91,0,0,1-2.7-.4M99,61.16a1.92,1.92,0,1,1,2.69.4,1.91,1.91,0,0,1-2.69-.4M84.73,53.23A1.92,1.92,0,1,1,87,54.68a1.9,1.9,0,0,1-2.3-1.45m.9,4a1.92,1.92,0,1,1,2.3,1.45,1.89,1.89,0,0,1-2.3-1.45m1,4.09a1.92,1.92,0,1,1,2.29,1.45,1.89,1.89,0,0,1-2.29-1.45m1.75,7.78a1.92,1.92,0,1,1,2.29,1.45,1.88,1.88,0,0,1-2.29-1.45m-.85-3.79a1.92,1.92,0,1,1,2.29,1.45,1.89,1.89,0,0,1-2.29-1.45M77.65,52.58a1.94,1.94,0,1,1,1.5,2.3,1.95,1.95,0,0,1-1.5-2.3m-.85,4a1.94,1.94,0,1,1,1.5,2.3,1.95,1.95,0,0,1-1.5-2.3M76,60.76a1.94,1.94,0,1,1,1.49,2.3A1.93,1.93,0,0,1,76,60.76m-1.65,7.78a1.94,1.94,0,1,1,1.5,2.3,1.94,1.94,0,0,1-1.5-2.3" transform="translate(-0.05 -1.11)" style="fill:#00668d;opacity:0.5"/><path d="M75.11,64.75a1.94,1.94,0,1,1,1.5,2.3,1.93,1.93,0,0,1-1.5-2.3M71.62,49a1.93,1.93,0,1,1,.4,2.7,1.91,1.91,0,0,1-.4-2.7m-2.45,3.34a1.93,1.93,0,1,1,.4,2.7,1.94,1.94,0,0,1-.4-2.7m-2.49,3.39a1.93,1.93,0,1,1,.4,2.7,1.92,1.92,0,0,1-.4-2.7m-4.79,6.39a1.92,1.92,0,1,1,.4,2.69,1.92,1.92,0,0,1-.4-2.69M64.24,59a1.92,1.92,0,1,1,.4,2.69,1.91,1.91,0,0,1-.4-2.69m3-15.66a2,2,0,0,1,2.64.69,1.91,1.91,0,0,1-.7,2.65,2,2,0,0,1-2.64-.7,1.9,1.9,0,0,1,.7-2.64M63.69,45.4a1.93,1.93,0,1,1,1.94,3.34,1.93,1.93,0,0,1-1.94-3.34m-3.64,2.1a2,2,0,0,1,2.64.69,1.93,1.93,0,1,1-2.64-.69m-6.94,4a2,2,0,0,1,2.65.69,1.93,1.93,0,1,1-2.65-.69m3.4-2a2,2,0,0,1,2.64.7,1.93,1.93,0,1,1-3.34,1.94,2,2,0,0,1,.7-2.64m9.42-13.27a1.92,1.92,0,1,1-1.84,2,1.91,1.91,0,0,1,1.84-2m-4.14.2a1.92,1.92,0,1,1-1.84,2,1.91,1.91,0,0,1,1.84-2m-4.24.2a1.92,1.92,0,1,1-1.84,2,1.91,1.91,0,0,1,1.84-2m-8,.4a1.92,1.92,0,1,1-1.84,2,1.91,1.91,0,0,1,1.84-2m3.94-.2a1.92,1.92,0,1,1-1.84,2,1.91,1.91,0,0,1,1.84-2m13.92-7.33A1.94,1.94,0,0,1,68.63,32a2,2,0,0,1-2.45,1.24,1.92,1.92,0,1,1,1.25-3.64m-3.94-1.35A1.93,1.93,0,1,1,61,29.44a1.94,1.94,0,0,1,2.45-1.2m-4-1.34A1.92,1.92,0,1,1,57,28.1a1.93,1.93,0,0,1,2.44-1.2m-7.53-2.55a1.93,1.93,0,1,1-2.45,1.2,1.93,1.93,0,0,1,2.45-1.2m3.69,1.25a2,2,0,0,1,1.25,2.45,1.93,1.93,0,1,1-1.2-2.45m16.16-2a1.94,1.94,0,1,1-2.75.1,1.9,1.9,0,0,1,2.75-.1m-3-2.8a1.95,1.95,0,1,1-2.75.1,1.93,1.93,0,0,1,2.75-.1m-3.3-3a1.92,1.92,0,1,1-2.69.4,1.91,1.91,0,0,1,2.69-.4m-5.73-5.24a1.95,1.95,0,1,1-2.74.1,1.92,1.92,0,0,1,2.74-.1m2.89,2.65a1.94,1.94,0,1,1-2.74.1,1.9,1.9,0,0,1,2.74-.1m15,5a1.92,1.92,0,1,1-2.54-1,1.89,1.89,0,0,1,2.54,1m-1.74-3.75a1.92,1.92,0,1,1-2.55-.94,1.9,1.9,0,0,1,2.55.94m-1.8-3.84a1.92,1.92,0,1,1-2.54-.94,1.9,1.9,0,0,1,2.54.94M70.67,5.35a1.92,1.92,0,1,1-2.54-.94,1.9,1.9,0,0,1,2.54.94m1.7,3.54A1.92,1.92,0,1,1,69.82,8a1.91,1.91,0,0,1,2.55.94" transform="translate(-0.05 -1.11)" style="fill:#00668d;opacity:0.5"/></svg>