<svg id="Layer_1" data-name="Layer 1" xmlns="http://www.w3.org/2000/svg" viewBox="0 0 663.56 223.37"><g id="Symbols"><g id="Desktop---Header-_-Base" data-name="Desktop---Header-/-Base"><g id="logo_header" data-name="logo header"><path id="Fill-1" d="M771.58,196.7h-.84v-2.26a4,4,0,0,1,1-.1c1.12,0,1.63.49,1.63,1.21S772.56,196.7,771.58,196.7Zm2.11.58v-.1a2,2,0,0,0,1.58-1.88,2.2,2.2,0,0,0-.74-1.68,4.3,4.3,0,0,0-2.67-.62,14,14,0,0,0-2.94.29v7.83h1.78V198h.84c1,0,1.45.38,1.59,1.25a6.18,6.18,0,0,0,.6,1.87h1.92a5.13,5.13,0,0,1-.56-1.92C774.85,198.14,774.43,197.52,773.69,197.28ZM772,203.33a6.31,6.31,0,0,1-.1-12.59h0a6,6,0,0,1,5.89,6.3C777.8,200.54,775.32,203.38,772,203.33Zm0-14.18h-.05a7.91,7.91,0,0,0,0,15.82,7.91,7.91,0,0,0,.05-15.82Zm-271.81,1.29-11.23,31.39c-2.81,8.18-5.05,15.31-6.64,21.85H482c-1.59-6.74-3.75-13.86-6.37-21.85l-10.76-31.39H454.48l-4.4,64.89h7.77l1.69-27.82c.56-9.73,1-20.61,1.21-28.69h.19c1.78,7.7,4.3,16.07,7.3,25.22l10.2,30.9h6.18l11.13-31.47c3.19-8.86,5.81-17.05,8-24.65H504c-.09,8.08.47,19,.94,28l1.58,28.5h8l-3.93-64.89Zm-71.19,0-11.23,31.39c-2.81,8.18-5.05,15.31-6.65,21.85h-.28c-1.58-6.74-3.74-13.86-6.36-21.85l-10.76-31.39h-10.4l-4.39,64.89h7.77l1.68-27.82c.56-9.73,1-20.61,1.22-28.69h.18c1.79,7.7,4.31,16.07,7.31,25.22l10.2,30.9h6.18l11.13-31.47c3.18-8.86,5.81-17.05,8-24.65h.27c-.09,8.08.48,19,.95,28l1.58,28.5h8l-3.93-64.89Zm165.69,5.86a25.14,25.14,0,0,1,16.69,6.39l4-6.08c-5.55-5.76-12.89-7.73-20-7.73-18.63,0-33.65,15-33.65,34.27,0,18.82,15,34.14,33,33.58,6.3-.2,14.42-2.22,20.62-7.9l-4-6.25a24.93,24.93,0,0,1-16.86,6.73c-14.1,0-24.84-12.18-24.84-26.42C569.64,208.48,580.46,196.3,594.65,196.3Zm130.2,59h34v-7.43H732.74v-24.6h25.34V215.9H732.74V197.68h26.09v-7.42h-34Zm-29.79-34.53h-2.52V197.51h2.1c7.8,0,17.2,1.21,17.2,11.4C711.84,219.26,703.11,220.82,695.06,220.82Zm-1.35-30.56h-9.05v65.09h7.88V228.07h4.53c12,0,22.15-5.27,22.15-19C719.22,197.17,713.18,190.26,693.71,190.26Zm-150.8,26.59L538.38,215c-4-1.55-8.81-4.23-8.81-9.32,0-5.69,5.54-9.24,10.57-9.24,5.55,0,9,3.84,9.2,8.1l7.25,0c-1.16-11.4-9.23-15.72-16.28-15.72-9.57,0-18.63,6.3-18.63,16.83,0,9.07,6.55,13.29,13.76,16.49l4.37,1.9c5.45,2.33,10.91,5.35,10.91,12.34,0,6.82-4.87,12.69-11.67,12.69a12,12,0,0,1-12.25-12.34l-8,.16c1,12.4,9.31,19.78,19.55,19.78a19.78,19.78,0,0,0,20.22-20.29C558.6,225.56,551.89,220.47,542.91,216.85ZM341.49,249.13c-13.68,0-25.26-11.48-25.26-26.33,0-14.32,10.4-26.33,25.26-26.33s25.25,12,25.25,26.33C366.74,237.65,355.16,249.13,341.49,249.13Zm0-60.25c-18.13,0-33.15,15.28-33.15,33.92,0,19.34,14.85,33.93,33.15,33.93s33.14-14.59,33.14-33.93C374.63,204.16,359.61,188.88,341.49,188.88Zm-52.11,60.43c-14.09,0-24.83-12.18-24.83-26.42,0-14.41,10.83-26.59,25-26.59a25.17,25.17,0,0,1,16.7,6.39l4-6.08c-5.55-5.76-12.88-7.73-19.94-7.73-18.63,0-33.65,15-33.65,34.27,0,18.82,14.94,34.14,33,33.58,6.3-.2,14.41-2.22,20.61-7.9l-4-6.25a25,25,0,0,1-16.87,6.73Z" transform="translate(-256.66 -188.88)" style="fill:#231f20;fill-rule:evenodd"/><path id="Fill-3" d="M661.47,192.19c-10.38-3.81-24.12,1.32-25.55,11.72-1.35,10,4.64,15.58,17.26,18.07,13.09,2.59,11.59,14,8.3,17.87-5.28,6.18-13.37,6.78-19.8,4.55-13-3.37-22.78-15.84-20.25-31.52,2.6-15.94,15.68-23.81,29.15-23.78a34.2,34.2,0,0,0-3.81-.22,34.71,34.71,0,1,0,14.7,3.31" transform="translate(-256.66 -188.88)" style="fill:#231f20;fill-rule:evenodd"/></g></g></g><path d="M446.81,346.28c-.27,11.57.75,25.19-1.59,38.68-.36,2.08-.85,4.14-1.38,6.19-2.95,11.38-10.44,17.83-21.9,19.73a97.06,97.06,0,0,1-31.68,0Q372.53,408,368,390.55c-2.29-8.9-2.7-18-2.78-27.08-.13-16.46.05-32.91-.1-49.37,0-3.35,1.07-4.43,4.31-4.18a71.3,71.3,0,0,0,9.36,0c2.77-.17,3.67.84,3.65,3.63q-.17,24.32,0,48.62c0,7,.19,14,1.94,20.79,2.3,9,6.9,12.94,16.19,13.94a52.39,52.39,0,0,0,12.7-.2c7.11-1,11.87-4.76,14-11.71,2.58-8.36,2.41-17,2.47-25.58q.19-22.82,0-45.62c0-2.9.77-4.08,3.78-3.88a75.22,75.22,0,0,0,9.73,0c2.85-.17,3.65,1,3.61,3.7C446.73,323.84,446.81,334.06,446.81,346.28Z" transform="translate(-256.66 -188.88)" style="fill:#231f20"/><path d="M775.32,347.41c-.17,11.71.65,25.33-1.88,38.79-3,16-10,23-26.15,25.14a88.26,88.26,0,0,1-30.91-1c-10.25-2.27-16.61-8.57-19.5-18.55s-3.1-20.16-3.14-30.39c0-15.83.06-31.66-.08-47.49,0-3.11.94-4.27,4.05-4a52.66,52.66,0,0,0,8.61,0c3.54-.32,4.74.84,4.7,4.54-.17,17.2-.07,34.41,0,51.61a66.83,66.83,0,0,0,2.23,18.5c2.17,7.46,7.19,11.37,14.81,12.24a56.57,56.57,0,0,0,13.07,0c7.81-.91,12.79-5.07,14.89-12.65a67.57,67.57,0,0,0,2.13-17.78c.12-17.32.16-34.65,0-52,0-3.34.74-4.82,4.32-4.47a55,55,0,0,0,9,0c2.93-.19,3.93.87,3.89,3.84C775.23,324.35,775.32,335,775.32,347.41Z" transform="translate(-256.66 -188.88)" style="fill:#231f20"/><path d="M605,361.64c-1,1.38-.58,2.64-.58,3.8,0,14-.12,27.92,0,41.88,0,3.32-1.07,4.48-4.32,4.22a49.17,49.17,0,0,0-8.23,0c-3.53.32-4.74-.85-4.71-4.55.18-19.57.09-39.13.09-58.7,0-11.21.16-22.43-.09-33.64-.09-3.91,1.22-5.1,4.92-4.73a49.17,49.17,0,0,0,8.23,0c3.12-.24,4.14.95,4.1,4.06-.14,11.71-.07,23.43,0,35.14,0,1.19-.4,2.45.57,3.95l6.79-7.95c9.14-10.72,18.32-21.41,27.37-32.2a7.25,7.25,0,0,1,6.4-3c3.61.19,7.24,0,10.85.07,1.18,0,2.77-.5,3.31,1,.43,1.15-.79,2-1.49,2.83q-12.94,15.51-25.91,31c-2.64,3.15-5.15,6.43-8,9.42-1.81,1.92-1.81,3.17-.13,5.27,11.84,14.8,23.53,29.71,35.26,44.59.77,1,1.57,1.94,2.3,2.95s1.86,2,1.11,3.3-2.11,1.14-3.35,1.18a4.68,4.68,0,0,0-.75,0c-10.61,1.95-17.7-2.06-23.82-11.14-8.68-12.89-19-24.71-28.54-37C606,362.83,605.55,362.3,605,361.64Z" transform="translate(-256.66 -188.88)" style="fill:#231f20"/><path d="M833,397.27c5.88-.21,13,.42,20.09-.37,5.87-.65,9.08-2.91,10-6.9,1.6-6.67-.34-12.4-5.3-15.52-3.08-1.94-6.56-3-9.91-4.35q-11.82-4.69-23.66-9.3c-7.43-2.89-11.54-8.38-12.75-16.15a55.86,55.86,0,0,1-.23-16.38c1.14-8.24,5.86-13.55,13.65-16.17,9.16-3.1,18.66-3,28.15-2.7a169.64,169.64,0,0,1,19.34,2c2.32.32,3.2,1.32,3.16,3.65-.2,11.18,1.26,9-9,9.15-7.49.11-15,0-22.46,0a43.6,43.6,0,0,0-5.6.31c-6.4.89-9.58,3.41-10.35,8-1.22,7.37.78,12.14,7,14.85,9,3.92,18.07,7.91,27.39,11,19.66,6.5,20.71,24.52,15.84,40.27-1.8,5.84-7,8.83-12.69,10.73a54.66,54.66,0,0,1-15.08,2.5,222.06,222.06,0,0,1-37.7-1.91c-2.65-.33-3.58-1.57-3.54-4.18.15-10.29-.84-8.4,8.13-8.55C822.26,397.2,827,397.27,833,397.27Z" transform="translate(-256.66 -188.88)" style="fill:#231f20"/><path d="M482.79,359.64c.13-7.57.33-16,2-24.39,3.17-15.68,11.38-23.38,27.27-25.19,12.09-1.38,24.17-.83,36.23.61,2.87.34,4.14,1.52,4.06,4.55-.27,10.81,1.35,8.77-8.77,9-8.85.21-17.73-.63-26.55.56-8.57,1.15-13.26,5-14.94,13.38a114.54,114.54,0,0,0,0,44.92c1.71,8.65,6.78,12.77,15.56,13.67,10.08,1,20.2.45,30.31.42,3.43,0,4.59.95,4.44,4.44-.36,8.78,1.48,8.67-8.46,9.61a158.74,158.74,0,0,1-30.28.35c-18-1.74-26.89-10.54-29.49-29A166.3,166.3,0,0,1,482.79,359.64Z" transform="translate(-256.66 -188.88)" style="fill:#231f20"/><path d="M330.19,407c-6.37-10.26-12.73-20.54-19.28-30.7-1.63-2.53-1.73-3.49,1.6-4.11,9.46-1.74,14.74-7.76,16.43-17.05a71.35,71.35,0,0,0,.51-22c-1.84-14.38-7.64-20.42-22-22.66-15.52-2.42-31.12-.81-46.7-.33-3.33.1-4.09,1.47-4.06,4.56.14,15.33.06,30.66.06,46,0,15.57.07,31.15-.05,46.73,0,3,.8,4.32,4,4.08a70.21,70.21,0,0,1,9.73,0c2.87.18,3.6-1,3.57-3.71-.13-10.21,0-20.43-.1-30.65,0-2.18.4-3.16,2.85-3a96.23,96.23,0,0,0,10.47-.05,4.41,4.41,0,0,1,4.5,2.42q7.24,11.79,14.81,23.36c9.13,13.94,4.4,11.32,21.09,11.59,1.33,0,3,.5,3.83-.86S330.86,408.09,330.19,407Zm-29.78-47c-6.71.72-13.45.5-20.19.5-6.3,0-6.3,0-6.3-6.22v-12c0-5.23,0-10.46,0-15.69,0-1.66.34-2.51,2.26-2.45,7.85.22,15.72-.37,23.54.64,8.52,1.11,12.14,4.76,12.75,13.32a62.82,62.82,0,0,1,0,9.7C311.74,355.82,308.4,359.15,300.41,360Z" transform="translate(-256.66 -188.88)" style="fill:#231f20"/><path d="M905.54,304.85c-10.16,0-14.79,4.71-14.73,15,.05,10,4.69,14.67,14.69,14.68s14.76-4.72,14.72-15C920.18,309.48,915.55,304.86,905.54,304.85Zm-.31,27.34c-8.3-.12-12.14-4.16-12.09-12.7s4.08-12.38,12.47-12.33,12.3,4.1,12.3,12.53S913.78,332.33,905.23,332.19Z" transform="translate(-256.66 -188.88)" style="fill:#231f20"/><path d="M909.85,325.29q-1.14-1.85-2.31-3.69c-.2-.3-.21-.42.19-.49a2.3,2.3,0,0,0,2-2.05,8.35,8.35,0,0,0,.06-2.64,2.67,2.67,0,0,0-2.64-2.72,30.14,30.14,0,0,0-5.62,0c-.4,0-.49.17-.48.55,0,1.84,0,3.68,0,5.52s0,3.75,0,5.62c0,.36.09.52.48.49a7.62,7.62,0,0,1,1.17,0c.34,0,.43-.12.43-.45,0-1.23,0-2.45,0-3.68,0-.26,0-.38.34-.36s.84,0,1.26,0a.54.54,0,0,1,.54.29c.58.94,1.17,1.88,1.78,2.81,1.09,1.67.53,1.36,2.53,1.39.16,0,.36.06.46-.1S909.93,325.42,909.85,325.29Zm-3.58-5.65c-.8.09-1.61.06-2.42.07s-.76,0-.76-.75v-1.44c0-.63,0-1.26,0-1.88,0-.2,0-.31.27-.3.94,0,1.89,0,2.83.08a1.49,1.49,0,0,1,1.53,1.6,7.49,7.49,0,0,1,0,1.16A1.38,1.38,0,0,1,906.27,319.64Z" transform="translate(-256.66 -188.88)" style="fill:#231f20"/></svg>