<svg id="Layer_1" data-name="Layer 1" xmlns="http://www.w3.org/2000/svg" viewBox="0 0 790 112.1"><path d="M673.5,9.1V18h42.9v96.8h33V17.7H792V9H673.5ZM610.1,111.8c1.8,2,3.1,2.8,6.1,2.8h32.2V9.1h-9.7l.3,87.1h-.5L574.4,11.9c-1.8-2-3.1-2.8-6.1-2.8H527.4v2.3l4.9.5c2.3.3,4.3,2.3,4.3,5.9v97.1h10l-.3-88.1h.5ZM467,110.7a5.12,5.12,0,0,0,5.4,3.8H512v-2.2c-5.9-.8-7.9-2-11.5-10.5L462.9,12.4c-1-2.6-2.8-3.8-5.9-3.8H415.4v2.3c7.2,1,8.7,2,8.7,4.6a17.1,17.1,0,0,1-1.3,5.1l-40.3,93.7H393l11.2-26.6h53.9ZM454.5,79.3H408l23.5-55.2h.5ZM333.7,114.8,379.4,9H368.9L330.3,99.7h-.8l-35-86.9A5.12,5.12,0,0,0,289.1,9H249.5v2.3c6.1.5,7.9,2,11.5,10.5l37.6,89.4c1,2.6,2.8,3.8,5.9,3.8h29.1v-.2Zm-124.5-4.1a5.12,5.12,0,0,0,5.4,3.8h39.6v-2.2c-5.9-.8-7.9-2-11.5-10.5L205.1,12.4c-1-2.6-2.8-3.8-5.9-3.8H157.6v2.3c7.2,1,8.7,2,8.7,4.6a17.1,17.1,0,0,1-1.3,5.1l-40.6,94.3h10.5l11.5-26.8h53.9ZM196.5,79.3H150.3l23.5-55.2h.5ZM54.9,117.4c36.3,0,55.2-17.6,55.2-36,0-16.4-13.3-26.3-46.8-33.2-26.6-5.4-31.9-12-31.9-19.9,0-8.9,8.4-15.8,23.2-15.8,18.4,0,33.2,8.2,45.2,23.8h1.3V24.5c0-3.1-.5-4.6-3.3-6.4C86,10.9,72.3,5.3,53.9,5.3,22.5,5.6,3.6,21.7,3.6,41.1,3.6,60,20.5,67.9,53.7,74.8,75.2,79.1,81.8,85.5,81.8,95c0,9.7-9.5,15.3-26.3,15.3-17.9,0-37.6-7.9-52.4-27.6H2L3.3,97.3c.3,3.1,1.3,4.6,3.6,6.1a90.33,90.33,0,0,0,48,14" transform="translate(-2 -5.3)" style="fill:#696057"/></svg>