<svg id="Layer_2" data-name="Layer 2" xmlns="http://www.w3.org/2000/svg" viewBox="0 0 729.04 92.54"><polygon points="287.01 1.97 287.01 76.64 228.23 1.99 228.23 1.95 219.92 1.95 219.92 90.08 228.23 90.08 228.23 15.43 287.01 90.08 287.01 90.09 295.32 90.09 295.32 1.97 287.01 1.97" style="fill:#333f48"/><rect x="665.14" y="1.97" width="8.31" height="88.12" style="fill:#333f48"/><polygon points="512.24 1.97 512.24 76.64 453.46 1.99 453.46 1.95 445.15 1.95 445.15 90.08 453.46 90.08 453.46 15.43 512.24 90.08 512.24 90.09 520.55 90.09 520.55 1.97 512.24 1.97" style="fill:#333f48"/><rect x="665.14" y="1.97" width="63.9" height="8.31" style="fill:#333f48"/><rect x="665.14" y="81.78" width="63.9" height="8.31" style="fill:#333f48"/><rect x="665.14" y="41.88" width="57.92" height="8.31" style="fill:#333f48"/><rect x="341.74" y="57.7" width="58.31" height="8.31" style="fill:#333f48"/><path d="M836.34,337.72a37.72,37.72,0,1,1,28.36-62.58l5.89-5.89a46,46,0,1,0,.4,61l-5.89-5.9A37.63,37.63,0,0,1,836.34,337.72Z" transform="translate(-235.91 -253.97)" style="fill:#333f48"/><path d="M377,254.45a46,46,0,1,0,46,46A46,46,0,0,0,377,254.45Zm0,83.75a37.72,37.72,0,1,1,37.72-37.72A37.71,37.71,0,0,1,377,338.2Z" transform="translate(-235.91 -253.97)" style="fill:#333f48"/><polygon points="340.38 57.7 325.45 89.98 334.61 89.98 349.53 57.7 340.38 57.7" style="fill:#333f48"/><polygon points="354.92 46.03 370.33 12.69 385.74 46.03 394.9 46.03 374.53 1.95 366.13 1.95 345.76 46.03 354.92 46.03" style="fill:#00a3e1"/><polygon points="400.29 57.7 391.13 57.7 406.1 90.09 415.21 89.98 400.29 57.7" style="fill:#333f48"/><path d="M299.64,266.23l-5.54,6s-20.32-18.41-38.28-6.45a16.36,16.36,0,0,0-7,17.27l0,.16s3,9.5,23.89,13c1.08.19,2.18.34,3.27.47a37.37,37.37,0,0,1,7.38,1.71A26.36,26.36,0,0,1,301.1,326.6a.77.77,0,0,1,0,.15s-3.88,17-22.17,18c0,0-3.71.28-8.39.29A48.31,48.31,0,0,1,248,339.71,36.79,36.79,0,0,1,235.91,330l5.65-5.55s9.31,11.31,22.5,12.75a70.2,70.2,0,0,0,11.89.26,24.74,24.74,0,0,0,8.91-2.2c3.32-1.57,7-4.3,8.42-8.91a12.43,12.43,0,0,0,.45-2.91v-.08A16.1,16.1,0,0,0,286.44,309a31.07,31.07,0,0,0-9.37-4,40.59,40.59,0,0,0-5.27-.91c-3.85-.43-15.15-2.15-23.15-7.94a20.77,20.77,0,0,1-8.39-15.71c-.14-2.58-.15-5.63.41-7.37,0,0,3.77-16.51,21.51-18.07a67,67,0,0,1,14.63,0A41,41,0,0,1,299.64,266.23Z" transform="translate(-235.91 -253.97)" style="fill:#333f48"/></svg>