<svg xmlns="http://www.w3.org/2000/svg" viewBox="0 0 406.11 88"><g id="Layer_2" data-name="Layer 2"><g id="Content"><polygon points="329.9 44 355.3 0 380.71 44 329.9 44" style="fill:#939598"/><polygon points="337.39 56.97 329.9 44 322.41 56.97 337.39 56.97" style="fill:#939598"/><polygon points="320.28 60.67 316.44 67.31 343.36 67.31 339.52 60.67 320.28 60.67" style="fill:#939598"/><polygon points="349.33 77.66 345.49 71.01 314.31 71.01 310.47 77.66 349.33 77.66" style="fill:#939598"/><polygon points="308.33 81.36 304.5 88 355.3 88 351.46 81.36 308.33 81.36" style="fill:#939598"/><polygon points="388.19 56.97 380.71 44 373.22 56.97 388.19 56.97" style="fill:#939598"/><polygon points="371.08 60.67 367.25 67.31 394.17 67.31 390.33 60.67 371.08 60.67" style="fill:#939598"/><polygon points="359.14 81.36 355.3 88 406.11 88 402.27 81.36 359.14 81.36" style="fill:#939598"/><polygon points="400.14 77.66 396.3 71.01 365.11 71.01 361.28 77.66 400.14 77.66" style="fill:#939598"/><path d="M19.34,26H0v-6H45.26v6H25.92v51.6H19.34Z" style="fill:#939598"/><path d="M65.67,19.94H90.44c7.08,0,12.76,2.14,16.38,5.76a15.9,15.9,0,0,1,4.44,11.36v.16c0,9.55-6.58,15.14-15.63,16.79l17.69,23.54h-8L88.63,55.16H72.17V77.55h-6.5Zm24.2,29.38c8.64,0,14.81-4.44,14.81-11.85V37.3C104.68,30.23,99.25,26,90,26H72.17V49.32Z" style="fill:#939598"/><path d="M134,19.94h6.51V77.55H134Z" style="fill:#939598"/><path d="M186.89,19.53H193l26.25,58h-7l-6.75-15.23H174.13L167.3,77.55h-6.66Zm16.05,36.95L189.85,27.1,176.68,56.48Z" style="fill:#939598"/><path d="M238.82,19.94h20c18.11,0,30.62,12.43,30.62,28.64v.16c0,16.22-12.51,28.81-30.62,28.81h-20Zm20,51.6c14.57,0,23.87-9.88,23.87-22.63v-.17C282.68,36,273.38,26,258.81,26H245.32V71.54Z" style="fill:#939598"/><path d="M298.4,30.05a4.49,4.49,0,0,1-3.25-1.33,4.5,4.5,0,0,1,0-6.43,4.61,4.61,0,0,1,6.5,0,4.5,4.5,0,0,1,0,6.43A4.5,4.5,0,0,1,298.4,30.05Zm0-8.34a3.62,3.62,0,0,0-2.68,1.12,3.7,3.7,0,0,0-1.11,2.69,3.6,3.6,0,0,0,1.11,2.66,3.78,3.78,0,0,0,6.45-2.66,3.73,3.73,0,0,0-1.1-2.69A3.61,3.61,0,0,0,298.41,21.71Zm2.34,6.61h-1.34L298.85,27c-.28-.66-.59-1-.91-1h-.34v2.31h-1.09V22.61h1.71a2.75,2.75,0,0,1,1.65.42,1.33,1.33,0,0,1,.58,1.14,1.44,1.44,0,0,1-.36,1,1.73,1.73,0,0,1-1,.56v0c.32.06.64.41.95,1.05Zm-3.15-4.8v1.63h.62c.71,0,1.06-.28,1.06-.82a.68.68,0,0,0-.29-.61,1.58,1.58,0,0,0-.89-.2Z" style="fill:#939598"/></g></g></svg>