<svg id="layer" xmlns="http://www.w3.org/2000/svg" viewBox="0 0 854.4 500.1"><path d="M124.9,338.9a19,19,0,0,1-22.9-1.8,18.48,18.48,0,0,1-1.4-1.4L-99.2,135.5l27.1-27.1L53,230.3a12,12,0,0,0,1.2,1.1,18.52,18.52,0,0,0,12.5,4.8A18.86,18.86,0,0,0,77.2,233a8.65,8.65,0,0,1,1-.7L294.5,76.4l11,134.3L126.1,338l-1.2.9" transform="translate(100.6 -76.4)" style="fill:#845890"/><path d="M496.9,338.9a19,19,0,0,0,22.9-1.8l1.4-1.4L721,135.5l-27.2-27.1-125,121.9a11.41,11.41,0,0,1-1.1,1.1,18.52,18.52,0,0,1-12.5,4.8,18.86,18.86,0,0,1-10.5-3.2,8.65,8.65,0,0,0-1-.7L327.3,76.4,316.2,210.7,495.7,338l1.2.9" transform="translate(100.6 -76.4)"/><polyline points="35.5 477.1 35.8 477.1 58.1 397.4 72.9 397.4 95.1 477.1 95.4 477.1 116.4 397.4 130.6 397.4 102.5 497.5 88.6 497.5 65.4 417 65.2 417 42 497.5 28.1 497.5 0 397.4 14.4 397.4 35.5 477.1" style="fill:#231815"/><rect x="192" y="397.4" width="13.4" height="100.1" style="fill:#231815"/><path d="M223.9,492.3a22.58,22.58,0,0,0-18.6-9.3c-8.6,0-18.6,4.9-18.6,16.3,0,10.9,8.8,13.9,19.6,17.5,12.8,4.2,28.1,9.3,28.1,29.3,0,20.8-16.1,30.4-33.1,30.4-12,0-24.2-4.9-31.4-14.6l10.4-9.2a25.77,25.77,0,0,0,21.3,11.7c8.9,0,19.2-5.2,19.2-17.1,0-12.2-10.5-15.4-22.7-19.4s-24.8-9.8-24.8-28.1c0-19.9,17-28.6,32.8-28.6,11.1,0,21.5,4.5,27.4,11.5l-9.6,9.6" transform="translate(100.6 -76.4)" style="fill:#231815"/><path d="M301.6,473.8h32.8c24.4,0,51.5,14.6,51.5,50,0,34.2-27.1,50-51.5,50H301.6v-100M315,561.6h16.7c23.1,0,39.9-13.9,39.9-37.7,0-24.7-16.9-37.9-39.9-37.9H315Z" transform="translate(100.6 -76.4)" style="fill:#231815"/><path d="M498.3,576.4c-29,0-50.5-21.9-50.5-52.7,0-31.2,21.5-52.4,50.5-52.4S549,492.5,549,523.7c.1,30.8-21.5,52.7-50.7,52.7m0-92.9c-22,0-36,18.2-36,40.1,0,22.3,14.2,40.1,36,40.1,22.1,0,36.3-17.8,36.3-40.1C534.6,501.8,520.6,483.5,498.3,483.5Z" transform="translate(100.6 -76.4)" style="fill:#231815"/><polyline points="765.7 474.3 766 474.3 794.2 397.4 815 397.4 815 497.5 801.6 497.5 801.6 413.8 801.3 413.8 769.6 497.5 761.1 497.5 729.6 413.8 729.3 413.8 729.3 497.5 716.3 497.5 716.3 397.4 737.1 397.4 765.7 474.3" style="fill:#231815"/><path d="M741.8,471.2a11.85,11.85,0,1,1-12,11.9,11.95,11.95,0,0,1,12-11.9m0,22a10.1,10.1,0,1,0-10.1-10.1A10.14,10.14,0,0,0,741.8,493.2Zm2.9-3.5-2.9-5.2h-1.9v5.2h-3.2V476.3h5.8c2.5,0,5.1,1,5.1,4.2a3.88,3.88,0,0,1-2.7,3.6l3.6,5.7h-3.8Zm-2.4-7.5a1.86,1.86,0,0,0,1.9-1.7c0-1.1-1.2-1.6-1.9-1.6h-2.5v3.3Z" transform="translate(100.6 -76.4)" style="fill:#231815"/></svg>