<svg xmlns="http://www.w3.org/2000/svg" viewBox="0 0 552.85 113.4"><g id="Layer_2" data-name="Layer 2"><g id="Layer_2-2" data-name="Layer 2"><path d="M546.86,86.55v0a3,3,0,0,1,3-3,3,3,0,0,1,3,3v0a3,3,0,1,1-6,0Zm5.65,0v0a2.65,2.65,0,1,0-5.3,0v0a2.63,2.63,0,0,0,2.65,2.67A2.67,2.67,0,0,0,552.51,86.53ZM548.74,85h1.34c.62,0,1.12.32,1.12.92a.94.94,0,0,1-.74.92L551.3,88h-.6l-.76-1.1h-.72V88h-.48ZM550,86.48c.43,0,.67-.22.67-.55s-.26-.53-.67-.53h-.81v1.08Z" style="fill:#00792c"/><polygon points="198.86 22.86 188.19 22.86 182.79 27.71 183.62 22.86 160.78 22.86 149.03 89.91 172.2 89.91 180.74 39.79 195.65 39.79 198.86 22.86" style="fill:#00792c"/><polygon points="425.87 22.5 414.12 89.91 437.29 89.91 448.71 22.5 425.87 22.5" style="fill:#00792c"/><polygon points="453.28 22.5 447.88 27.35 445.83 39.43 460.74 39.43 463.95 22.5 453.28 22.5" style="fill:#00792c"/><polygon points="4.21 0 0 89.91 31.26 89.91 49.22 24.83 45 89.91 76.37 89.91 103.42 0 80.59 0 63.63 67.84 68.39 0 39.57 0 20.89 67.84 27.05 0 4.21 0" style="fill:#00792c"/><polygon points="131.8 22.86 153.97 22.86 139.56 104.53 129.69 113.4 94.77 113.4 88.01 104.86 89.56 94.44 110.18 94.44 109.74 99.1 119.05 99.1 120.91 85.37 115.83 89.91 98.32 89.91 91 80.59 100.98 22.86 123.59 22.86 115.17 72 123.7 72 131.8 22.86" style="fill:#00792c"/><path d="M249.24,59.28l4.66-27.19-7.4-9.23H210.08l-10.22,9.23-8.23,48.05,7.23,9.76h36l10.31-10.26,2.16-12.8h-22.2l-1,5.16h-9.64l1.74-8.9ZM220.31,39h10l-1.63,10.86-10.34,1.2Z" style="fill:#00792c"/><polygon points="278.17 0.08 264.29 12.89 259.8 40.4 287.98 58.03 286.32 71.12 277.42 71.12 280.25 56.37 256.06 58.94 253.9 77.56 263.21 89.91 294.71 89.91 308.43 77.56 313.67 45.64 285.15 28.02 286.73 18.87 295.3 18.87 293.38 30.09 317.41 26.35 319.57 11.31 310.43 0.08 278.17 0.08" style="fill:#00792c"/><polygon points="352.88 7.71 330.05 7.71 327.53 22.67 322.68 22.67 319.57 39.92 324.63 39.92 317.83 80.31 325.25 89.91 348.78 89.91 351.5 71.44 342.03 71.44 352.88 7.71" style="fill:#00792c"/><polygon points="350.33 22.67 347.4 39.92 357.15 39.92 359.92 22.67 350.33 22.67" style="fill:#00792c"/><polygon points="544.12 22.5 526.58 22.5 521.34 28.02 516.52 22.5 496.07 22.5 490.28 28.02 491.22 22.5 468.38 22.5 456.63 89.91 479.8 89.91 488.14 40.69 495.85 40.69 487.38 89.91 510.55 89.91 518.68 40.69 526.89 40.69 518.31 89.91 541.47 89.91 551.3 31.88 544.12 22.5" style="fill:#00792c"/><path d="M385,48l33.51-6.06c0-.45-.07-.9-.13-1.36L379.6,38.85l36.86-6.35c-.1-.28-.19-.56-.3-.85l-41.5-1.56,37.59-6.46-.56-1H360.81S407,54,365.46,89.9c0,0,48.38-11.63,52.84-41.14Z" style="fill:#db001c"/></g></g></svg>