<?xml version="1.0" encoding="utf-8"?>
<!-- Generator: Adobe Illustrator 25.2.1, SVG Export Plug-In . SVG Version: 6.00 Build 0)  -->
<svg version="1.1" id="Layer_1" xmlns="http://www.w3.org/2000/svg" xmlns:xlink="http://www.w3.org/1999/xlink" x="0px" y="0px"
	 viewBox="0 0 282.8 110.2" style="enable-background:new 0 0 282.8 110.2;" xml:space="preserve">
<style type="text/css">
	.st0{fill:#FFFFFF;}
</style>
<g id="_Logo_2">
	<path class="st0" d="M43.4,108.4V68.9L27.8,89.8c-1.1,1.5-2.7,1.5-3.8,0L8.5,69v39.2c0,0.9-0.6,1.5-1.3,1.6c-0.1,0-0.1,0-0.2,0
		c-0.9,0-1.5-0.6-1.6-1.3v-0.1V64.5c0-0.9,0.6-1.5,1.3-1.6h0.1c0.5,0,1,0.2,1.2,0.6l17.7,23.7l18-23.7c0.4-0.4,0.9-0.6,1.3-0.6
		c0.9,0,1.5,0.6,1.6,1.3v0.1v43.9c0,0.9-0.7,1.6-1.6,1.6C44.1,109.9,43.4,109.3,43.4,108.4L43.4,108.4z"/>
	<path class="st0" d="M89.6,109.9H63.9c-0.9,0-1.5-0.6-1.6-1.3v-0.1V64.5c0-0.9,0.6-1.5,1.3-1.6h0.1h25.3c0.9-0.1,1.5,0.5,1.6,1.3
		v0.1c0,0.9-0.6,1.5-1.3,1.6c-0.1,0-0.1,0-0.2,0H65.4v18.1h22.2c0.9,0,1.5,0.5,1.6,1.3v0.1c0,0.9-0.6,1.5-1.3,1.6h-0.1H65.4v19.9
		h24.2c0.9,0,1.5,0.5,1.6,1.3v0.1c0,0.9-0.6,1.5-1.3,1.6C89.7,109.9,89.6,109.9,89.6,109.9z"/>
	<path class="st0" d="M142.9,108.4V68.9l-15.8,20.9c-1.1,1.5-2.7,1.5-3.8,0L107.7,69v39.2c0,0.9-0.7,1.6-1.6,1.6s-1.6-0.7-1.6-1.6
		l0,0V64.5c0-0.9,0.6-1.5,1.3-1.6c0.1,0,0.1,0,0.2,0c0.5,0,1,0.2,1.2,0.6L125,87.3l18-23.7c0.4-0.4,0.9-0.6,1.3-0.6
		c0.9,0,1.5,0.6,1.6,1.3c0,0.1,0,0.1,0,0.2v43.9c0.1,0.9-0.6,1.6-1.5,1.7s-1.6-0.6-1.7-1.5C142.9,108.5,142.9,108.4,142.9,108.4
		L142.9,108.4z"/>
	<path class="st0" d="M163.4,109.9c-0.9,0-1.5-0.6-1.6-1.3v-0.1V64.5c0-0.9,0.6-1.5,1.3-1.6h0.1h16c9.7,0,14.3,4.6,14.3,12.2
		c0,4.5-2.2,8.8-7.1,10.4c5.1,1.6,8.9,5.3,8.9,11.4c0,8.6-4.8,13.1-15.9,13.1L163.4,109.9z M164.9,84h14.8c7.2,0,10.9-2.8,10.9-8.7
		c0-6-3.7-9.3-11.1-9.3h-14.5V84z M179.8,106.9c8.8,0,12.7-3.4,12.7-10c0-5.6-2.9-9.8-12.8-9.8h-14.8v19.9L179.8,106.9z"/>
	<path class="st0" d="M234.8,109.9h-25.7c-0.9,0-1.5-0.6-1.6-1.3c0-0.1,0-0.1,0-0.2V64.5c0-0.9,0.6-1.5,1.3-1.6c0.1,0,0.1,0,0.2,0
		h25.3c0.9-0.1,1.5,0.5,1.6,1.3v0.1c0,0.9-0.6,1.5-1.3,1.6c-0.1,0-0.1,0-0.2,0h-23.8v18.1h22.2c0.9,0,1.5,0.5,1.6,1.3v0.1
		c0,0.9-0.6,1.5-1.3,1.6H233h-22.4v19.9h24.1c0.9-0.1,1.5,0.5,1.6,1.3v0.1c0,0.9-0.5,1.5-1.3,1.6
		C234.9,109.9,234.8,109.9,234.8,109.9z"/>
	<path class="st0" d="M279.9,109.4l-13.3-18.5h-13.4v17.4c0,0.9-0.7,1.6-1.6,1.6s-1.6-0.7-1.6-1.6V64.5c0-0.9,0.6-1.5,1.3-1.6h0.1
		h9.3c2,0,4.4,0,5,0.1c10.9,0.5,15.4,5.4,15.4,13.9c0,7.7-3.4,12.2-11.1,13.7l12.5,17c0.5,0.6,0.5,1.5-0.1,2.1
		c-0.1,0-0.1,0.1-0.2,0.1C281.3,110.4,280.4,110.2,279.9,109.4C279.9,109.5,279.9,109.5,279.9,109.4z M253,88h11.2
		c9.8,0,13.7-3.5,13.7-11.1c0-6.7-3.2-10.5-12.2-10.9c-0.6-0.1-3.3-0.1-4.9-0.1H253V88z"/>
	<path class="st0" d="M92.4,19.4V1.7c0-0.9,0.7-1.6,1.6-1.6l0,0h13.9c11.2,0,20.9,7.9,23.1,18.9c0.1,0.9-0.4,1.7-1.2,1.8
		c-0.1,0-0.2,0-0.4,0c-0.7,0-1.3-0.5-1.6-1.2c-2-9.5-10.3-16.4-20-16.4H95.6v16.1c0.1,0.9-0.6,1.6-1.5,1.7c-0.9,0.1-1.6-0.6-1.7-1.5
		C92.4,19.6,92.4,19.6,92.4,19.4 M129.8,26.4c-0.9-0.1-1.7,0.4-1.8,1.2c-2,9.7-10.4,16.5-20,16.5H95.7V28c-0.1-0.9-0.9-1.6-1.7-1.5
		c-0.7,0-1.5,0.7-1.5,1.5v17.7c0,0.9,0.7,1.6,1.6,1.6l0,0h13.8c11.2,0,20.9-7.9,23.1-18.9C131.2,27.4,130.7,26.6,129.8,26.4
		L129.8,26.4 M1.4,21c0.1,0,0.2,0,0.4,0c0.7,0,1.3-0.5,1.6-1.2c2.2-11,13-18.2,24.1-16c3.9,0.7,7.6,2.7,10.4,5.6
		c0.6,0.6,1.6,0.6,2.2,0s0.6-1.6,0-2.2l0,0c-4.5-4.6-10.5-7.1-16.9-7.1C11.9,0.1,2.2,8.1,0,19.1C-0.1,19.9,0.4,20.8,1.4,21 M40,37.9
		c-0.6-0.6-1.6-0.6-2.2,0l0,0C30,46,17,46.1,8.9,38.3c-2.9-2.9-5-6.6-5.7-10.6c-0.1-0.9-1-1.5-1.8-1.2c-0.9,0.1-1.5,1-1.3,1.8l0,0
		c2.4,12.7,14.9,21.1,27.6,18.6c4.8-1,9-3.3,12.3-6.7C40.6,39.6,40.6,38.5,40,37.9 M57.3,22.2c-0.9-0.1-1.6,0.6-1.7,1.5
		c-0.1,0.9,0.6,1.6,1.5,1.7c0.1,0,0.1,0,0.2,0h21.5c0.9,0.1,1.6-0.6,1.7-1.5c0.1-0.9-0.6-1.6-1.5-1.7c-0.1,0-0.1,0-0.2,0H57.3z
		 M51.8,21c0.9,0,1.6-0.7,1.6-1.6l0,0V3.3h28.5c0.9-0.1,1.6-0.9,1.5-1.7c0-0.7-0.7-1.5-1.5-1.5H51.8c-0.9,0-1.6,0.7-1.6,1.6l0,0
		v17.7C50.2,20.3,51,21,51.8,21L51.8,21 M81.8,44.1H53.4V28c-0.1-0.9-0.9-1.6-1.7-1.5c-0.7,0-1.5,0.7-1.5,1.5v17.7
		c0,0.9,0.7,1.6,1.6,1.6h30.1c0.9-0.1,1.6-0.9,1.5-1.7S82.6,44.1,81.8,44.1 M142.4,26.3c-0.9,0-1.6,0.7-1.6,1.6l0,0v17.7
		c-0.1,0.9,0.6,1.6,1.5,1.7s1.6-0.6,1.7-1.5c0-0.1,0-0.1,0-0.2V27.9C144,27,143.2,26.3,142.4,26.3L142.4,26.3 M142.4,0.1
		c-0.9,0-1.6,0.7-1.6,1.6l0,0v17.7c-0.1,0.9,0.6,1.6,1.5,1.7s1.6-0.6,1.7-1.5c0-0.1,0-0.1,0-0.2V1.7C144,0.9,143.2,0.1,142.4,0.1
		L142.4,0.1 M195.3,45L175.4,1c-0.2-0.6-0.9-1-1.5-1s-1.2,0.4-1.5,0.9l-8.6,17.7c-0.5,0.7-0.1,1.7,0.6,2.2c0.7,0.5,1.7,0.1,2.2-0.6
		c0-0.1,0.1-0.1,0.1-0.2l7.1-14.7l18.6,40.8c0.2,0.6,0.9,1,1.5,1c0.2,0,0.5,0,0.6-0.1C195.3,46.8,195.7,45.8,195.3,45L195.3,45
		 M179.7,26.4h-18.1h-0.1h-0.1h-0.1h-0.1l-0.1,0.1l-0.1,0.1l-0.1,0.1l-0.1,0.1l-0.1,0.1l-0.1,0.1l0,0l-8.9,17.7
		c-0.4,0.7-0.1,1.7,0.6,2.1l0,0c0.7,0.4,1.7,0.1,2.2-0.6l8.6-17h17.1c0.9,0.1,1.6-0.6,1.7-1.5c0.1-0.9-0.6-1.6-1.5-1.7
		C179.8,26.3,179.7,26.3,179.7,26.4"/>
	<path class="st0" d="M190.1,2.6L190.1,2.6c0-1.3,1.1-2.4,2.4-2.4c1.3,0,2.4,1.1,2.4,2.4l0,0c0,1.3-1.1,2.4-2.4,2.4
		C191.2,5.1,190.1,4,190.1,2.6z M194.7,2.6L194.7,2.6c0.1-1.2-0.9-2.3-2.1-2.3c-1.2-0.1-2.3,0.9-2.3,2.1c0,0.1,0,0.1,0,0.2l0,0
		c-0.1,1.2,0.9,2.3,2.1,2.3s2.3-0.9,2.3-2.1C194.7,2.8,194.7,2.7,194.7,2.6z M191.5,1.3h1.1c0.6,0,1,0.2,1,0.9
		c0,0.4-0.2,0.7-0.6,0.7l0.6,1H193l-0.6-0.9h-0.5v0.9h-0.5V1.3H191.5z M192.6,2.6c0.4,0,0.5-0.1,0.5-0.4s-0.1-0.4-0.5-0.4H192v0.7
		H192.6z"/>
</g>
</svg>
