<?xml version="1.0" encoding="utf-8"?>
<!-- Generator: Adobe Illustrator 25.2.1, SVG Export Plug-In . SVG Version: 6.00 Build 0)  -->
<svg version="1.1" id="Layer_1" xmlns="http://www.w3.org/2000/svg" xmlns:xlink="http://www.w3.org/1999/xlink" x="0px" y="0px"
	 viewBox="0 0 400 133.3" style="enable-background:new 0 0 400 133.3;" xml:space="preserve">
<style type="text/css">
	.st0{fill:url(#SVGID_1_);}
	.st1{fill:url(#SVGID_2_);}
	.st2{fill:url(#SVGID_3_);}
	.st3{fill:url(#SVGID_4_);}
	.st4{fill:url(#SVGID_5_);}
	.st5{fill:url(#SVGID_6_);}
	.st6{fill:url(#SVGID_7_);}
</style>
<g id="Logos">
	
		<linearGradient id="SVGID_1_" gradientUnits="userSpaceOnUse" x1="-20.9067" y1="400" x2="413.0266" y2="400" gradientTransform="matrix(1 0 0 -1 0 402)">
		<stop  offset="0" style="stop-color:#805E1B"/>
		<stop  offset="7.000000e-02" style="stop-color:#896722"/>
		<stop  offset="0.18" style="stop-color:#A17F35"/>
		<stop  offset="0.33" style="stop-color:#C8A754"/>
		<stop  offset="0.5" style="stop-color:#FEDD7F"/>
		<stop  offset="0.5" style="stop-color:#FFDF80"/>
		<stop  offset="0.51" style="stop-color:#FDDD7E"/>
		<stop  offset="0.66" style="stop-color:#C7A654"/>
		<stop  offset="0.79" style="stop-color:#A17E36"/>
		<stop  offset="0.9" style="stop-color:#896623"/>
		<stop  offset="0.96" style="stop-color:#805D1C"/>
	</linearGradient>
	<rect y="0" class="st0" width="400" height="4"/>
	
		<linearGradient id="SVGID_2_" gradientUnits="userSpaceOnUse" x1="-20.9067" y1="335.3134" x2="413.0266" y2="335.3134" gradientTransform="matrix(1 0 0 -1 0 402)">
		<stop  offset="0" style="stop-color:#805E1B"/>
		<stop  offset="7.000000e-02" style="stop-color:#896722"/>
		<stop  offset="0.18" style="stop-color:#A17F35"/>
		<stop  offset="0.33" style="stop-color:#C8A754"/>
		<stop  offset="0.5" style="stop-color:#FEDD7F"/>
		<stop  offset="0.5" style="stop-color:#FFDF80"/>
		<stop  offset="0.51" style="stop-color:#FDDD7E"/>
		<stop  offset="0.66" style="stop-color:#C7A654"/>
		<stop  offset="0.79" style="stop-color:#A17E36"/>
		<stop  offset="0.9" style="stop-color:#896623"/>
		<stop  offset="0.96" style="stop-color:#805D1C"/>
	</linearGradient>
	<path class="st1" d="M36.7,37c2.5,0,7.8,0.3,10.5,0.3c3.6,0,10.2-0.5,12.4-0.5s3.1,0.5,3.1,1.1c0,1-1.2,1.8-2,2
		c-4.9,1.2-5.6,2.7-5.7,3.7c-0.7,4.9-0.7,14.4-0.7,28.1c0,6.1,0,13.1,0.4,16.3c0.3,2.7,3.4,3.6,3.6,3.6c2.4,0.4,4.8,0.6,7.2,0.6
		c2.2,0,4.5-0.2,6.7-0.7c0.9-0.1,1.7-0.5,2.4-1c2.4-2.3,4.5-4.9,6.3-7.7c0.5-0.9,1.5-1.6,2.5-1.9c0.7,0,0.8,1.1,0.4,2.5
		c-0.8,2.7-2.5,9.4-3.1,11.6c-0.5,0.7-1.2,1.2-2.1,1.5c-1.6,0-9.8-0.7-28.7-0.7c-3.6,0-11,0.6-14.7,0.6c-1.7,0-2.9-0.4-2.9-1.2
		c0-0.8,0.9-1.6,2.4-1.9c5.1-0.9,5.8-2.5,6.2-6.8c0.2-2.3,0.5-9.8,0.5-23.2c0-11.6,0-13.9-0.1-17c-0.1-3.7-0.6-5-4.8-6.2
		c-1.8-0.5-2.7-1.2-2.7-1.9C33.9,37.3,35.1,37,36.7,37z"/>
	
		<linearGradient id="SVGID_3_" gradientUnits="userSpaceOnUse" x1="-20.9067" y1="333.647" x2="413.0266" y2="333.647" gradientTransform="matrix(1 0 0 -1 0 402)">
		<stop  offset="0" style="stop-color:#805E1B"/>
		<stop  offset="7.000000e-02" style="stop-color:#896722"/>
		<stop  offset="0.18" style="stop-color:#A17F35"/>
		<stop  offset="0.33" style="stop-color:#C8A754"/>
		<stop  offset="0.5" style="stop-color:#FEDD7F"/>
		<stop  offset="0.5" style="stop-color:#FFDF80"/>
		<stop  offset="0.51" style="stop-color:#FDDD7E"/>
		<stop  offset="0.66" style="stop-color:#C7A654"/>
		<stop  offset="0.79" style="stop-color:#A17E36"/>
		<stop  offset="0.9" style="stop-color:#896623"/>
		<stop  offset="0.96" style="stop-color:#805D1C"/>
	</linearGradient>
	<path class="st2" d="M96,39.2c3.8,0,7.8,0.5,11,0.5c3.2,0,9.1-0.5,11.1-0.5c1.7,0,2.7,0.7,2.7,1.4s-1.1,1.5-2.8,1.9
		c-3.2,0.6-4,1.8-4.6,5.3c-0.4,2.9-0.4,11.2-0.4,23.9c0,10.5,2.2,13.3,5.1,16.2c2.4,2.4,8.3,3.6,9.9,3.6c6.3,0,12.9-1.7,15.2-11.4
		c1.1-4.8,1.5-12.4,1.5-25.8c0-5.8-0.3-6.3-0.4-7.3c-0.4-2.3-2.3-3.8-6-4.7c-0.9-0.3-2.6-0.9-2.6-1.9c0-0.5,1-1.2,2.6-1.2
		c2.1,0,5.7,0.5,8.5,0.5c3.6,0,5.9-0.5,8.4-0.5c1.4,0,2.2,0.7,2.2,1.4s-1.3,1.3-2.5,1.6c-4.6,1-5.7,2.9-5.7,8.4
		c0,4.4-0.5,15.4-0.7,20.1c-0.7,14.9-5.3,20.4-11.7,24c-3.7,2-7.8,2.9-12,2.8c-8.2,0-13.9-2.5-17.2-5.6c-5-4.7-7.1-9.5-7.1-23.5
		c0-3.8-0.4-21-0.4-22.1c-0.2-1.7-0.9-3.3-4.3-4c-1-0.3-2.6-1-2.6-1.8S94.4,39.2,96,39.2z"/>
	
		<linearGradient id="SVGID_4_" gradientUnits="userSpaceOnUse" x1="-20.9067" y1="333.648" x2="413.0266" y2="333.648" gradientTransform="matrix(1 0 0 -1 0 402)">
		<stop  offset="0" style="stop-color:#805E1B"/>
		<stop  offset="7.000000e-02" style="stop-color:#896722"/>
		<stop  offset="0.18" style="stop-color:#A17F35"/>
		<stop  offset="0.33" style="stop-color:#C8A754"/>
		<stop  offset="0.5" style="stop-color:#FEDD7F"/>
		<stop  offset="0.5" style="stop-color:#FFDF80"/>
		<stop  offset="0.51" style="stop-color:#FDDD7E"/>
		<stop  offset="0.66" style="stop-color:#C7A654"/>
		<stop  offset="0.79" style="stop-color:#A17E36"/>
		<stop  offset="0.9" style="stop-color:#896623"/>
		<stop  offset="0.96" style="stop-color:#805D1C"/>
	</linearGradient>
	<path class="st3" d="M167.8,39.2c3.8,0,7.8,0.5,11,0.5s9.1-0.5,11.1-0.5c1.7,0,2.6,0.7,2.6,1.4s-1.1,1.5-2.8,1.9
		c-3.2,0.6-4,1.8-4.6,5.3c-0.4,2.9-0.4,11.2-0.4,23.9c0,10.5,2.2,13.3,5.1,16.2c2.4,2.4,8.3,3.6,9.9,3.6c6.3,0,12.9-1.7,15.2-11.4
		c1.1-4.8,1.5-12.4,1.5-25.8c0-5.8-0.3-6.3-0.4-7.3c-0.4-2.3-2.2-3.8-6-4.7c-0.9-0.3-2.6-0.9-2.6-1.9c0-0.5,1-1.2,2.6-1.2
		c2.1,0,5.7,0.5,8.5,0.5c3.6,0,5.9-0.5,8.4-0.5c1.4,0,2.3,0.7,2.3,1.4s-1.3,1.3-2.5,1.6c-4.6,1-5.7,2.9-5.7,8.4
		c0,4.4-0.5,15.4-0.7,20.1c-0.7,14.9-5.3,20.4-11.7,24c-3.7,1.9-7.8,2.9-11.9,2.8c-8.2,0-13.9-2.5-17.2-5.6c-5-4.7-7.1-9.5-7.1-23.5
		c0-3.8-0.4-21-0.5-22.1c-0.2-1.7-0.9-3.3-4.3-4c-1-0.3-2.7-1-2.7-1.8S166.1,39.2,167.8,39.2z"/>
	
		<linearGradient id="SVGID_5_" gradientUnits="userSpaceOnUse" x1="-20.9067" y1="334.1467" x2="413.0266" y2="334.1467" gradientTransform="matrix(1 0 0 -1 0 402)">
		<stop  offset="0" style="stop-color:#805E1B"/>
		<stop  offset="7.000000e-02" style="stop-color:#896722"/>
		<stop  offset="0.18" style="stop-color:#A17F35"/>
		<stop  offset="0.33" style="stop-color:#C8A754"/>
		<stop  offset="0.5" style="stop-color:#FEDD7F"/>
		<stop  offset="0.5" style="stop-color:#FFDF80"/>
		<stop  offset="0.51" style="stop-color:#FDDD7E"/>
		<stop  offset="0.66" style="stop-color:#C7A654"/>
		<stop  offset="0.79" style="stop-color:#A17E36"/>
		<stop  offset="0.9" style="stop-color:#896623"/>
		<stop  offset="0.96" style="stop-color:#805D1C"/>
	</linearGradient>
	<path class="st4" d="M239.5,39.2c1.8,0,10.9,0.5,14.1,0.5c3.6,0,5.1-0.3,8-0.3c2,0,2.8,0.5,2.8,1.1c0,1.1-1.1,1.8-3,2.5
		c-0.9,0.3-1.3,1.2-1.1,2.1c0,0.1,0.1,0.3,0.2,0.4c2.5,5,5.3,9.7,8.3,14.3c0.1,0.3,0.5,0.4,0.7,0.2c0.1,0,0.1-0.1,0.2-0.1
		c3.7-4.5,7.2-9.3,10.3-14.3c0.7-1.3-0.5-2.4-3.1-3c-1.7-0.3-2.3-1.5-2.3-2c0-0.7,0.5-1.3,2.3-1.3c2.8,0,5.3,0.3,7.9,0.3
		s7.8-0.5,10-0.5c1.3,0,2.3,0.3,2.3,1s-1.3,1.7-2.3,2c-5.6,1.3-8.7,2.9-12.1,6.7c-3.8,4.5-7.2,8.1-10.9,13.3
		c-0.2,0.4-0.3,0.9-0.2,1.4c0.8,2.3,8.4,14.7,12.5,20.6c3.1,4.5,5.8,7.6,12.6,9.2c1.7,0.4,2.2,1.3,2.1,1.7c0,1-1.2,1.4-3.2,1.4
		c-1.7,0-13.3-0.6-17-0.6c-2.6,0-6.5,0.5-7.8,0.5c-1.7,0-2.2-0.7-2.2-1.3s0.6-1.3,2.1-1.9c0.8-0.3,1.6-0.6,2.4-1
		c0.3-0.4,0.5-0.9,0.4-1.4c-1.3-2.5-9.2-16.3-10.3-17.3c-0.5-0.5-0.8-0.3-1-0.1c-3,3.6-5.8,7.4-8.3,11.3c-3.3,5.6-2.2,7.2,1.3,8.3
		c1.5,0.5,2.3,1.3,2.3,1.7c0,1-1.2,1.5-2.3,1.5c-2.4,0-6.1-0.4-9.1-0.4c-3.8,0-6.7,0.5-8.8,0.5c-2.4,0-3.2-0.5-3.2-1.2
		c0.1-1.3,1.2-1.6,3.1-2.1c4-1.1,7.5-3.3,10.1-6.5c2.1-2.3,8.8-10.5,13.1-16.2c0.2-0.4,0.3-0.8,0.1-1.3c-0.5-1.9-7.5-13.9-13.7-22.2
		c-1.6-2.5-4.2-4.2-7.2-4.5c-1.7-0.3-2.8-1.3-2.7-2S237.7,39.2,239.5,39.2z"/>
	
		<linearGradient id="SVGID_6_" gradientUnits="userSpaceOnUse" x1="-20.9067" y1="334.16" x2="413.0266" y2="334.16" gradientTransform="matrix(1 0 0 -1 0 402)">
		<stop  offset="0" style="stop-color:#805E1B"/>
		<stop  offset="7.000000e-02" style="stop-color:#896722"/>
		<stop  offset="0.18" style="stop-color:#A17F35"/>
		<stop  offset="0.33" style="stop-color:#C8A754"/>
		<stop  offset="0.5" style="stop-color:#FEDD7F"/>
		<stop  offset="0.5" style="stop-color:#FFDF80"/>
		<stop  offset="0.51" style="stop-color:#FDDD7E"/>
		<stop  offset="0.66" style="stop-color:#C7A654"/>
		<stop  offset="0.79" style="stop-color:#A17E36"/>
		<stop  offset="0.9" style="stop-color:#896623"/>
		<stop  offset="0.96" style="stop-color:#805D1C"/>
	</linearGradient>
	<path class="st5" d="M308.4,39.2c1.8,0,10.9,0.5,14.1,0.5c3.6,0,5.1-0.3,8-0.3c2,0,2.8,0.5,2.8,1.1c0,1.1-1.1,1.8-3,2.5
		c-0.9,0.3-1.4,1.2-1.1,2c0,0.1,0.1,0.3,0.2,0.4c2.5,5,5.3,9.7,8.3,14.3c0.1,0.3,0.5,0.4,0.7,0.2c0.1,0,0.1-0.1,0.2-0.1
		c3.7-4.5,7.2-9.3,10.3-14.3c0.7-1.3-0.5-2.4-3.1-3c-1.7-0.3-2.3-1.5-2.3-2c0-0.7,0.5-1.3,2.3-1.3c2.8,0,5.3,0.3,7.9,0.3
		c2.6,0,7.8-0.5,10-0.5c1.3,0,2.3,0.3,2.3,1c0,0.7-1.3,1.7-2.3,2c-5.6,1.3-8.7,2.9-12.1,6.7c-3.8,4.5-7.2,8.1-10.9,13.3
		c-0.2,0.4-0.3,0.9-0.2,1.4c0.8,2.3,8.4,14.7,12.5,20.6c3.1,4.5,5.8,7.6,12.7,9.2c1.7,0.4,2.1,1.3,2.1,1.7c0,1-1.2,1.4-3.2,1.4
		c-1.7,0-13.3-0.6-17-0.6c-2.6,0-6.5,0.5-7.8,0.5c-1.7,0-2.2-0.7-2.2-1.3c0-0.5,0.6-1.3,2.1-1.9c0.8-0.3,1.6-0.6,2.4-1
		c0.3-0.4,0.5-0.9,0.4-1.4c-1.3-2.5-9.2-16.3-10.3-17.3c-0.5-0.5-0.8-0.3-1-0.1c-3,3.6-5.8,7.4-8.4,11.3c-3.3,5.6-2.2,7.2,1.3,8.3
		c1.5,0.5,2.3,1.3,2.3,1.7c0,1-1.2,1.5-2.3,1.5c-2.4,0-6.1-0.4-9.1-0.4c-3.8,0-6.7,0.5-8.8,0.5c-2.4,0-3.2-0.5-3.2-1.2
		c0.1-1.3,1.2-1.6,3.1-2.1c4-1.1,7.5-3.3,10.1-6.5c2.1-2.3,8.8-10.5,13.1-16.2c0.2-0.4,0.3-0.8,0.1-1.3c-0.5-1.9-7.5-13.9-13.7-22.2
		c-1.6-2.5-4.2-4.2-7.2-4.5c-1.7-0.3-2.8-1.3-2.7-2C305.8,40,306.6,39.2,308.4,39.2z"/>
	
		<linearGradient id="SVGID_7_" gradientUnits="userSpaceOnUse" x1="-20.9067" y1="269.6667" x2="413.0266" y2="269.6667" gradientTransform="matrix(1 0 0 -1 0 402)">
		<stop  offset="0" style="stop-color:#805E1B"/>
		<stop  offset="7.000000e-02" style="stop-color:#896722"/>
		<stop  offset="0.18" style="stop-color:#A17F35"/>
		<stop  offset="0.33" style="stop-color:#C8A754"/>
		<stop  offset="0.5" style="stop-color:#FEDD7F"/>
		<stop  offset="0.5" style="stop-color:#FFDF80"/>
		<stop  offset="0.51" style="stop-color:#FDDD7E"/>
		<stop  offset="0.66" style="stop-color:#C7A654"/>
		<stop  offset="0.79" style="stop-color:#A17E36"/>
		<stop  offset="0.9" style="stop-color:#896623"/>
		<stop  offset="0.96" style="stop-color:#805D1C"/>
	</linearGradient>
	<rect y="131.3" class="st6" width="400" height="2"/>
</g>
</svg>
