<?xml version="1.0" encoding="utf-8"?>
<!-- Generator: Adobe Illustrator 25.2.1, SVG Export Plug-In . SVG Version: 6.00 Build 0)  -->
<svg version="1.1" id="Layer_1" xmlns="http://www.w3.org/2000/svg" xmlns:xlink="http://www.w3.org/1999/xlink" x="0px" y="0px"
	 viewBox="0 0 400 133.3" style="enable-background:new 0 0 400 133.3;" xml:space="preserve">
<style type="text/css">
	.st0{fill:url(#SVGID_1_);}
</style>
<g id="Logos">
	
		<linearGradient id="SVGID_1_" gradientUnits="userSpaceOnUse" x1="0" y1="335.3333" x2="400" y2="335.3333" gradientTransform="matrix(1 0 0 -1 0 402)">
		<stop  offset="0" style="stop-color:#997E49"/>
		<stop  offset="8.000000e-02" style="stop-color:#A2874E"/>
		<stop  offset="0.22" style="stop-color:#BA9E5B"/>
		<stop  offset="0.39" style="stop-color:#E2C370"/>
		<stop  offset="0.5" style="stop-color:#FFDF80"/>
		<stop  offset="0.6" style="stop-color:#E2C370"/>
		<stop  offset="0.76" style="stop-color:#BA9E5B"/>
		<stop  offset="0.88" style="stop-color:#A2874E"/>
		<stop  offset="0.96" style="stop-color:#997E49"/>
	</linearGradient>
	<path class="st0" d="M0,0v133.3h400V0H0z M83.6,83c-0.8,2.7-2.5,9.4-3.1,11.6c-0.5,0.7-1.2,1.2-2.1,1.5c-1.6,0-9.8-0.7-28.7-0.7
		c-3.6,0-11,0.6-14.7,0.6c-1.7,0-2.9-0.4-2.9-1.2s0.9-1.6,2.4-1.9c5.1-0.9,5.8-2.5,6.2-6.8c0.2-2.3,0.5-9.8,0.5-23.2
		c0-11.6,0-13.9-0.1-17c-0.1-3.7-0.6-5.1-4.8-6.2c-1.8-0.5-2.7-1.2-2.7-1.9c0-1,1.2-1.3,2.8-1.3c2.5,0,7.8,0.3,10.5,0.3
		c3.6,0,10.2-0.5,12.4-0.5s3.1,0.5,3.1,1.1c0,1-1.2,1.8-2,2c-4.9,1.2-5.6,2.7-5.7,3.7c-0.7,4.9-0.7,14.4-0.7,28.1
		c0,6.1,0,13.1,0.4,16.3c0.3,2.7,3.4,3.7,3.6,3.7c2.4,0.4,4.8,0.6,7.2,0.6c2.2,0,4.5-0.2,6.7-0.7c0.9-0.1,1.7-0.5,2.4-1
		c2.4-2.3,4.5-4.9,6.3-7.7c0.6-0.9,1.5-1.6,2.5-1.9C84,80.5,84.1,81.6,83.6,83z M155,41.7c-4.6,1-5.7,2.9-5.7,8.4
		c0,4.4-0.5,15.4-0.7,20.1c-0.7,14.9-5.3,20.4-11.7,24c-3.7,2-7.8,2.9-12,2.8c-8.2,0-13.9-2.5-17.2-5.6c-5-4.7-7.1-9.5-7.1-23.5
		c0-3.8-0.4-21-0.4-22.1c-0.2-1.7-0.9-3.3-4.3-4c-1-0.3-2.6-1-2.6-1.8s1.2-1.4,2.8-1.4c3.8,0,7.8,0.5,11,0.5c3.2,0,9.1-0.5,11.1-0.5
		c1.7,0,2.7,0.7,2.7,1.4c0,0.7-1.1,1.5-2.8,1.9c-3.2,0.6-4,1.8-4.6,5.3c-0.4,3-0.4,11.2-0.4,23.9c0,10.5,2.2,13.3,5.1,16.2
		c2.4,2.4,8.3,3.6,9.9,3.6c6.3,0,12.9-1.7,15.2-11.4c1.1-4.7,1.5-12.4,1.5-25.8c0-5.8-0.3-6.3-0.4-7.3c-0.4-2.3-2.3-3.8-6-4.8
		c-0.9-0.3-2.6-0.9-2.6-1.9c0-0.5,1-1.2,2.6-1.2c2.1,0,5.7,0.5,8.5,0.5c3.6,0,5.9-0.5,8.4-0.5c1.4,0,2.2,0.7,2.2,1.4
		C157.6,40.9,156.3,41.4,155,41.7L155,41.7z M226.8,41.7c-4.6,1-5.7,2.9-5.7,8.4c0,4.4-0.5,15.4-0.7,20.1
		c-0.7,14.9-5.3,20.4-11.7,24c-3.7,1.9-7.8,2.9-11.9,2.8c-8.2,0-13.9-2.5-17.2-5.6c-5-4.7-7.1-9.5-7.1-23.5c0-3.8-0.4-21-0.5-22.1
		c-0.2-1.7-0.9-3.3-4.3-4c-1-0.3-2.7-1-2.7-1.8s1.2-1.4,2.8-1.4c3.8,0,7.8,0.5,11,0.5c3.2,0,9.1-0.5,11.1-0.5c1.7,0,2.6,0.7,2.6,1.4
		s-1.1,1.5-2.8,1.9c-3.2,0.6-4,1.8-4.6,5.3c-0.4,3-0.4,11.2-0.4,23.9c0,10.5,2.2,13.3,5.1,16.2c2.4,2.4,8.3,3.6,9.9,3.6
		c6.3,0,12.9-1.7,15.2-11.4c1.1-4.7,1.5-12.4,1.5-25.8c0-5.8-0.3-6.3-0.4-7.3c-0.4-2.3-2.2-3.8-6-4.8c-0.9-0.3-2.6-0.9-2.6-1.9
		c0-0.5,1-1.2,2.6-1.2c2.1,0,5.7,0.5,8.5,0.5c3.6,0,5.9-0.5,8.4-0.5c1.4,0,2.3,0.7,2.3,1.4C229.2,40.8,228,41.4,226.8,41.7
		L226.8,41.7z M298.9,94.7c0,1-1.2,1.4-3.2,1.4c-1.7,0-13.3-0.6-17-0.6c-2.6,0-6.5,0.5-7.8,0.5c-1.7,0-2.2-0.7-2.2-1.3
		c0-0.5,0.6-1.3,2.1-1.9c0.8-0.3,1.6-0.6,2.4-1c0.3-0.4,0.5-0.9,0.4-1.4c-1.3-2.5-9.2-16.3-10.3-17.3c-0.5-0.5-0.8-0.3-1-0.1
		c-3,3.6-5.8,7.4-8.3,11.3c-3.3,5.6-2.2,7.2,1.3,8.3c1.5,0.4,2.3,1.3,2.3,1.7c0,1-1.2,1.5-2.3,1.5c-2.4,0-6.1-0.4-9.1-0.4
		c-3.8,0-6.7,0.5-8.8,0.5c-2.4,0-3.2-0.5-3.2-1.2c0.1-1.3,1.2-1.6,3.1-2.1c4-1.1,7.5-3.3,10.1-6.5c2.1-2.3,8.8-10.5,13.1-16.2
		c0.2-0.4,0.3-0.8,0.1-1.3c-0.5-1.9-7.5-13.9-13.7-22.2c-1.6-2.5-4.2-4.2-7.2-4.5c-1.7-0.4-2.8-1.3-2.7-2c0.1-0.6,0.9-1.4,2.7-1.4
		c1.8,0,10.9,0.5,14.1,0.5c3.6,0,5.1-0.3,8-0.3c2,0,2.8,0.4,2.8,1.1c0,1.1-1.1,1.8-3,2.5c-0.9,0.3-1.3,1.2-1.1,2
		c0,0.1,0.1,0.3,0.2,0.4c2.5,5,5.2,9.8,8.3,14.4c0.1,0.3,0.5,0.4,0.7,0.2c0.1,0,0.1-0.1,0.2-0.1c3.7-4.6,7.1-9.3,10.3-14.3
		c0.7-1.3-0.5-2.4-3.1-3c-1.7-0.4-2.3-1.5-2.3-2c0-0.7,0.5-1.3,2.3-1.3c2.8,0,5.3,0.3,7.9,0.3c2.6,0,7.8-0.5,10-0.5
		c1.3,0,2.3,0.3,2.3,1s-1.3,1.7-2.3,2c-5.6,1.3-8.7,2.9-12.1,6.7c-3.8,4.5-7.2,8.1-10.9,13.3c-0.2,0.4-0.3,1-0.2,1.4
		c0.8,2.3,8.4,14.7,12.5,20.6c3.1,4.5,5.8,7.6,12.6,9.2C298.5,93.3,298.9,94.3,298.9,94.7z M367.7,94.7c0,1-1.2,1.4-3.2,1.4
		c-1.7,0-13.3-0.6-17-0.6c-2.6,0-6.5,0.5-7.8,0.5c-1.7,0-2.2-0.7-2.2-1.3c0-0.5,0.6-1.3,2.1-1.9c0.8-0.3,1.6-0.6,2.4-1
		c0.3-0.4,0.5-0.9,0.4-1.4c-1.3-2.5-9.2-16.3-10.3-17.3c-0.5-0.5-0.8-0.3-1-0.1c-3,3.6-5.8,7.4-8.3,11.3c-3.3,5.6-2.1,7.2,1.3,8.3
		c1.5,0.4,2.3,1.3,2.3,1.7c0,1-1.2,1.5-2.3,1.5c-2.4,0-6.1-0.4-9.1-0.4c-3.8,0-6.7,0.5-8.8,0.5c-2.4,0-3.2-0.5-3.2-1.2
		c0.1-1.3,1.2-1.6,3.1-2.1c4-1.1,7.5-3.3,10.1-6.5c2.1-2.3,8.8-10.5,13.1-16.2c0.2-0.4,0.3-0.8,0.1-1.3c-0.5-1.9-7.5-13.9-13.7-22.2
		c-1.6-2.5-4.2-4.2-7.2-4.5c-1.7-0.4-2.8-1.3-2.7-2c0.1-0.6,0.9-1.4,2.7-1.4s10.9,0.5,14.1,0.5c3.6,0,5.1-0.3,8-0.3
		c2,0,2.8,0.4,2.8,1.1c0,1.1-1.1,1.8-3,2.5c-0.9,0.3-1.3,1.2-1.1,2c0,0.1,0.1,0.3,0.2,0.4c2.5,5,5.3,9.8,8.3,14.4
		c0.1,0.3,0.5,0.4,0.7,0.2c0.1,0,0.1-0.1,0.2-0.1c3.7-4.5,7.2-9.3,10.3-14.3c0.7-1.3-0.5-2.4-3.1-3c-1.7-0.4-2.3-1.5-2.3-2
		c0-0.7,0.5-1.3,2.3-1.3c2.8,0,5.3,0.3,7.9,0.3s7.8-0.5,10-0.5c1.3,0,2.3,0.3,2.3,1s-1.3,1.7-2.3,2c-5.6,1.3-8.7,2.9-12.1,6.7
		c-3.8,4.5-7.2,8.1-10.9,13.3c-0.2,0.4-0.3,1-0.2,1.4c0.8,2.3,8.4,14.7,12.5,20.6c3.1,4.5,5.8,7.6,12.7,9.2
		C367.4,93.3,367.8,94.3,367.7,94.7z"/>
</g>
</svg>
