<svg id="Layer_1" data-name="Layer 1" xmlns="http://www.w3.org/2000/svg" viewBox="0 0 400 133.33"><g id="Logos"><path d="M0,0V133.33H400V0ZM83.64,83c-.84,2.67-2.52,9.44-3.08,11.59a4.9,4.9,0,0,1-2,1.49c-1.59,0-9.82-.65-28.68-.65-3.64,0-11,.56-14.67.56-1.68,0-2.89-.38-2.89-1.22s.93-1.58,2.42-1.86c5.14-.94,5.79-2.52,6.18-6.83.17-2.33.46-9.8.46-23.16,0-11.59,0-13.92-.09-17-.11-3.75-.57-5.05-4.77-6.17-1.78-.47-2.67-1.22-2.67-1.87,0-1,1.21-1.33,2.8-1.33,2.52,0,7.76.28,10.47.28,3.64,0,10.18-.47,12.42-.47s3.08.47,3.08,1.12c0,1-1.21,1.77-2,2-4.86,1.21-5.61,2.67-5.7,3.75-.66,4.85-.75,14.38-.75,28.1,0,6.08,0,13.08.37,16.35.28,2.67,3.38,3.65,3.56,3.65a46.77,46.77,0,0,0,7.19.56A33.22,33.22,0,0,0,72,91.2a5.15,5.15,0,0,0,2.42-1,39.24,39.24,0,0,0,6.26-7.75,4,4,0,0,1,2.52-1.86C84,80.48,84.11,81.6,83.64,83ZM155,41.67c-4.58,1-5.74,2.86-5.74,8.42,0,4.4-.54,15.43-.72,20.1-.72,14.88-5.33,20.36-11.74,24a24.09,24.09,0,0,1-12,2.78c-8.16,0-13.9-2.5-17.22-5.56-5-4.66-7.09-9.5-7.09-23.49,0-3.77-.36-21-.44-22.07-.19-1.7-.91-3.32-4.31-4-1-.28-2.6-1-2.6-1.8S94.4,38.67,96,38.67c3.77,0,7.8.45,11,.45s9.15-.45,11.12-.45c1.69,0,2.67.72,2.67,1.44S119.75,41.63,118,42c-3.23.62-4,1.8-4.57,5.33-.36,3-.36,11.21-.36,23.85,0,10.5,2.16,13.34,5.12,16.24,2.41,2.42,8.33,3.59,9.94,3.59,6.28,0,12.92-1.71,15.16-11.4,1.08-4.75,1.52-12.37,1.52-25.83,0-5.82-.26-6.28-.44-7.25-.36-2.33-2.25-3.77-6-4.76-.89-.27-2.6-.89-2.6-1.88,0-.55,1-1.17,2.6-1.17,2.07,0,5.65.45,8.52.45,3.59,0,5.92-.45,8.43-.45,1.44,0,2.24.72,2.24,1.44s-1.31,1.29-2.56,1.56Zm71.73,0c-4.57,1-5.73,2.86-5.73,8.42,0,4.4-.55,15.43-.72,20.1-.72,14.88-5.34,20.36-11.75,24A24,24,0,0,1,196.63,97c-8.16,0-13.9-2.5-17.22-5.56-5-4.66-7.08-9.5-7.08-23.49,0-3.77-.36-21-.45-22.07-.17-1.7-.89-3.32-4.31-4-1-.28-2.66-1-2.66-1.8s1.17-1.44,2.78-1.44c3.76,0,7.8.46,11,.46s9.15-.46,11.12-.46c1.71,0,2.6.72,2.6,1.44s-1.08,1.52-2.79,1.88c-3.22.63-4,1.8-4.57,5.34-.36,3-.36,11.21-.36,23.85,0,10.49,2.16,13.33,5.12,16.24,2.43,2.41,8.33,3.59,9.95,3.59,6.28,0,12.92-1.71,15.16-11.4,1.08-4.75,1.52-12.38,1.52-25.83,0-5.83-.27-6.28-.44-7.25-.36-2.34-2.24-3.78-6-4.76-.89-.27-2.6-.9-2.6-1.88,0-.55,1-1.18,2.6-1.18,2.07,0,5.66.46,8.52.46,3.59,0,5.92-.46,8.43-.46,1.44,0,2.25.72,2.25,1.44s-1.21,1.35-2.45,1.62Zm72.09,53c0,1-1.16,1.44-3.22,1.44-1.71,0-13.34-.63-17-.63-2.6,0-6.55.53-7.8.53-1.71,0-2.24-.72-2.24-1.25s.62-1.33,2.14-1.88a18.21,18.21,0,0,0,2.43-1,1.66,1.66,0,0,0,.36-1.44c-1.25-2.5-9.24-16.32-10.32-17.33-.53-.53-.8-.27-1-.09a105.73,105.73,0,0,0-8.33,11.3c-3.32,5.56-2.16,7.18,1.25,8.26,1.52.44,2.34,1.25,2.34,1.69,0,1-1.18,1.53-2.34,1.53-2.42,0-6.09-.36-9.14-.36-3.78,0-6.67.54-8.79.54-2.43,0-3.23-.54-3.23-1.16.08-1.26,1.16-1.62,3.14-2.07a20.15,20.15,0,0,0,10.13-6.45c2.07-2.34,8.79-10.5,13.09-16.24a1.34,1.34,0,0,0,.1-1.26c-.46-1.88-7.54-13.89-13.72-22.24a9.74,9.74,0,0,0-7.18-4.48c-1.7-.36-2.78-1.33-2.66-2s.89-1.44,2.66-1.44,10.86.45,14.08.45c3.59,0,5.11-.26,8-.26,2,0,2.79.44,2.79,1.08,0,1.06-1.08,1.78-3,2.5a1.63,1.63,0,0,0-1.07,2,1.88,1.88,0,0,0,.18.38,126.75,126.75,0,0,0,8.33,14.36.53.53,0,0,0,.72.22.39.39,0,0,0,.17-.14A151.27,151.27,0,0,0,280,45c.72-1.26-.55-2.43-3.05-3-1.71-.36-2.34-1.52-2.34-2,0-.72.55-1.25,2.34-1.25,2.78,0,5.33.27,7.89.27s7.8-.46,10-.46c1.25,0,2.32.28,2.32,1s-1.33,1.71-2.32,2c-5.56,1.34-8.71,2.88-12.11,6.67-3.77,4.48-7.18,8.07-10.94,13.33a2.25,2.25,0,0,0-.18,1.44c.8,2.34,8.43,14.67,12.55,20.63,3.15,4.48,5.83,7.61,12.64,9.24C298.49,93.33,299,94.25,298.85,94.67Zm68.87,0c0,1-1.16,1.44-3.23,1.44-1.7,0-13.33-.63-17-.63-2.6,0-6.54.53-7.8.53-1.7,0-2.24-.72-2.24-1.25s.63-1.33,2.15-1.88a18.21,18.21,0,0,0,2.43-1,1.66,1.66,0,0,0,.36-1.44C341.09,88,333.11,74.13,332,73.12c-.54-.53-.8-.27-1-.09a104.38,104.38,0,0,0-8.33,11.3c-3.32,5.56-2.16,7.18,1.25,8.26,1.52.44,2.33,1.25,2.33,1.69,0,1-1.16,1.53-2.33,1.53-2.41,0-6.09-.36-9.15-.36-3.77,0-6.66.54-8.78.54-2.43,0-3.23-.54-3.23-1.16.08-1.26,1.16-1.62,3.13-2.07a20.18,20.18,0,0,0,10.14-6.45c2.06-2.34,8.78-10.5,13.09-16.24a1.34,1.34,0,0,0,.09-1.26c-.45-1.88-7.53-13.89-13.72-22.24a9.71,9.71,0,0,0-7.17-4.48c-1.71-.36-2.79-1.33-2.67-2s.9-1.44,2.67-1.44,10.85.45,14.08.45c3.59,0,5.11-.26,8-.26,2,0,2.79.44,2.79,1.08,0,1.06-1.08,1.78-3,2.5a1.63,1.63,0,0,0-1.07,2,1.84,1.84,0,0,0,.17.38,129.25,129.25,0,0,0,8.34,14.36.53.53,0,0,0,.72.22.55.55,0,0,0,.17-.14,152,152,0,0,0,10.32-14.26c.72-1.25-.55-2.42-3.05-3-1.71-.36-2.34-1.52-2.34-2,0-.72.55-1.25,2.34-1.25,2.78,0,5.33.26,7.89.26s7.8-.45,10-.45c1.25,0,2.32.28,2.32,1s-1.33,1.7-2.32,2c-5.56,1.33-8.71,2.88-12.11,6.67-3.77,4.48-7.18,8.06-10.94,13.33a2.24,2.24,0,0,0-.18,1.44c.8,2.33,8.43,14.67,12.55,20.63,3.15,4.48,5.83,7.61,12.65,9.24C367.36,93.33,367.81,94.25,367.72,94.67Z" transform="translate(0 0)" style="fill:#3d576d"/></g></svg>