<?xml version="1.0" encoding="utf-8"?>
<!-- Generator: Adobe Illustrator 25.2.1, SVG Export Plug-In . SVG Version: 6.00 Build 0)  -->
<svg version="1.1" id="Layer_1" xmlns="http://www.w3.org/2000/svg" xmlns:xlink="http://www.w3.org/1999/xlink" x="0px" y="0px"
	 viewBox="0 0 330 110" style="enable-background:new 0 0 330 110;" xml:space="preserve">
<style type="text/css">
	.st0{fill:#8EAEBF;}
</style>
<g id="Layer_2_1_">
	<g id="Logos">
		<path class="st0" d="M0,0v110h330V0H0z M69.1,68.4c-0.7,2.2-2.1,7.8-2.6,9.5c-0.5,0.6-1,1-1.7,1.2c-1.3,0-8.1-0.5-23.7-0.5
			c-3.1,0-9,0.5-12.1,0.5c-1.3,0-2.4-0.4-2.4-1c0-0.7,0.7-1.3,2-1.6c4.3-0.7,4.8-2.1,5.1-5.6c0.1-2,0.4-8.1,0.4-19.1
			c0-9.5,0-11.5-0.1-14.1c-0.1-3.1-0.5-4.2-3.9-5.1c-1.5-0.4-2.2-1-2.2-1.6c0-0.9,1-1.1,2.3-1.1c2.1,0,6.4,0.2,8.7,0.2
			c3.1,0,8.4-0.4,10.3-0.4c1.8,0,2.6,0.4,2.6,1c0,0.9-1,1.5-1.6,1.6c-4,1-4.6,2.2-4.8,3.1c-0.5,4-0.6,11.9-0.6,23.2
			c0,5,0,10.8,0.4,13.4c0.2,2.2,2.8,3.1,2.9,3.1c2,0.2,3.9,0.5,6,0.5c1.8,0,3.7-0.1,5.5-0.5c0.7-0.1,1.5-0.4,2-0.9
			c2-2,3.7-4,5.1-6.4c0.5-0.7,1.2-1.3,2.1-1.6C69.3,66.4,69.4,67.3,69.1,68.4z M127.8,34.3c-3.8,0.9-4.8,2.3-4.8,7
			c0,3.7-0.5,12.7-0.6,16.6c-0.6,12.2-4.4,16.7-9.7,19.8c-3.1,1.6-6.5,2.4-9.9,2.3c-6.7,0-11.5-2.1-14.2-4.6
			c-4-3.8-5.7-7.8-5.7-19.3c0-3.1-0.2-17.4-0.4-18.2c-0.1-1.5-0.7-2.7-3.5-3.3c-0.9-0.2-2.2-0.9-2.2-1.5s1-1.2,2.3-1.2
			c3.1,0,6.5,0.4,9.2,0.4c2.7,0,7.6-0.4,9.2-0.4c1.3,0,2.2,0.6,2.2,1.2s-0.9,1.2-2.3,1.6c-2.7,0.5-3.3,1.5-3.8,4.4
			c-0.2,2.4-0.2,9.3-0.2,19.7c0,8.7,1.8,11,4.3,13.4c2,2,6.8,2.9,8.2,2.9c5.1,0,10.6-1.5,12.5-9.4c0.9-3.9,1.2-10.3,1.2-21.3
			c0-4.8-0.2-5.1-0.4-6c-0.2-2-1.8-3.1-5-3.9c-0.7-0.2-2.2-0.7-2.2-1.6c0-0.5,0.9-1,2.2-1c1.7,0,4.6,0.4,7.1,0.4
			c2.9,0,4.9-0.4,7-0.4c1.2,0,1.8,0.6,1.8,1.2C130,33.7,128.9,34.2,127.8,34.3L127.8,34.3z M187.1,34.3c-3.8,0.9-4.8,2.3-4.8,7
			c0,3.7-0.5,12.7-0.6,16.6c-0.6,12.2-4.4,16.7-9.7,19.8c-3.1,1.6-6.5,2.4-9.9,2.3c-6.7,0-11.5-2.1-14.2-4.6
			c-4.2-3.8-5.9-7.8-5.9-19.4c0-3.1-0.2-17.4-0.4-18.2c-0.1-1.5-0.7-2.7-3.5-3.3c-0.9-0.2-2.2-0.9-2.2-1.5s1-1.2,2.3-1.2
			c3.1,0,6.5,0.4,9,0.4c2.7,0,7.7-0.4,9.3-0.4c1.5,0,2.2,0.6,2.2,1.2s-0.9,1.2-2.3,1.6c-2.7,0.5-3.3,1.5-3.8,4.4
			c-0.2,2.4-0.2,9.3-0.2,19.7c0,8.7,1.8,11,4.3,13.4c2,2,6.8,2.9,8.2,2.9c5.1,0,10.6-1.5,12.5-9.4c0.9-3.9,1.2-10.3,1.2-21.3
			c0-4.8-0.2-5.1-0.4-6c-0.2-2-1.8-3.1-5-3.9c-0.7-0.2-2.2-0.7-2.2-1.6c0-0.5,0.9-1,2.2-1c1.7,0,4.6,0.4,7.1,0.4
			c2.9,0,4.9-0.4,7-0.4c1.2,0,1.8,0.6,1.8,1.2C189.2,33.7,188.1,34.2,187.1,34.3L187.1,34.3z M246.5,78.1c0,0.9-1,1.2-2.7,1.2
			c-1.5,0-11-0.5-14.1-0.5c-2.2,0-5.4,0.5-6.5,0.5c-1.5,0-1.8-0.6-1.8-1s0.5-1.1,1.7-1.6c0.7-0.2,1.3-0.5,2-0.9
			c0.2-0.4,0.4-0.7,0.2-1.2c-1-2.1-7.6-13.4-8.6-14.3c-0.5-0.5-0.6-0.2-0.9-0.1c-2.4,2.9-4.8,6.1-6.8,9.3c-2.7,4.6-1.8,5.9,1,6.8
			c1.2,0.4,2,1,2,1.3c0,0.9-1,1.2-2,1.2c-2,0-5-0.2-7.6-0.2c-3.1,0-5.5,0.5-7.2,0.5c-2,0-2.7-0.5-2.7-1c0.1-1,1-1.3,2.6-1.7
			c3.3-0.9,6.2-2.7,8.3-5.4c1.7-2,7.2-8.7,10.8-13.4c0.2-0.4,0.2-0.7,0.1-1c-0.4-1.6-6.2-11.5-11.4-18.3c-1.3-2.1-3.5-3.4-5.9-3.7
			c-1.5-0.2-2.3-1.1-2.2-1.6c0.1-0.5,0.7-1.2,2.2-1.2s8.9,0.4,11.6,0.4c2.9,0,4.2-0.2,6.6-0.2c1.6,0,2.3,0.4,2.3,0.9
			c0,0.9-0.9,1.5-2.4,2.1c-0.7,0.2-1.1,1-0.9,1.7c0,0.1,0.1,0.2,0.1,0.4c2.1,4,4.3,8.1,6.8,11.9c0.1,0.2,0.4,0.2,0.6,0.2l0.1-0.1
			c3.1-3.8,5.9-7.7,8.4-11.7c0.6-1-0.5-2-2.6-2.4c-1.5-0.2-2-1.2-2-1.6c0-0.6,0.5-1,2-1c2.3,0,4.4,0.2,6.5,0.2s6.5-0.4,8.2-0.4
			c1,0,2,0.2,2,0.9s-1.1,1.5-2,1.6c-4.6,1.1-7.2,2.3-10,5.5c-3.1,3.7-6,6.6-9,11c-0.1,0.4-0.2,0.7-0.1,1.2c0.6,2,7,12.1,10.4,17
			c2.6,3.7,4.8,6.2,10.4,7.6C246.3,77,246.6,77.7,246.5,78.1z M303.4,78.1c0,0.9-1,1.2-2.7,1.2c-1.5,0-11-0.5-14.1-0.5
			c-2.2,0-5.4,0.5-6.5,0.5c-1.5,0-1.8-0.6-1.8-1s0.5-1.1,1.7-1.6c0.7-0.2,1.3-0.5,2-0.9c0.2-0.4,0.4-0.7,0.2-1.2
			c-1-2.1-7.6-13.4-8.6-14.3c-0.5-0.5-0.6-0.2-0.9-0.1c-2.6,2.9-4.8,6.1-7,9.3c-2.7,4.6-1.8,5.9,1,6.8c1.2,0.4,2,1,2,1.3
			c0,0.9-1,1.2-2,1.2c-2,0-5-0.2-7.6-0.2c-3.1,0-5.5,0.5-7.2,0.5c-2,0-2.7-0.5-2.7-1c0.1-1,1-1.3,2.6-1.7c3.3-0.9,6.2-2.7,8.3-5.4
			c1.7-2,7.2-8.7,10.8-13.4c0.2-0.4,0.2-0.7,0.1-1c-0.4-1.6-6.2-11.5-11.4-18.3c-1.3-2.1-3.5-3.4-5.9-3.7c-1.5-0.2-2.3-1.1-2.2-1.6
			c0.1-0.5,0.7-1.2,2.2-1.2c1.5,0,8.9,0.4,11.6,0.4c2.9,0,4.2-0.2,6.6-0.2c1.6,0,2.3,0.4,2.3,0.9c0,0.9-0.9,1.5-2.4,2.1
			c-0.7,0.2-1.1,1-0.9,1.7c0,0.1,0.1,0.2,0.1,0.4c2.1,4,4.3,8.1,6.8,11.9c0.1,0.2,0.4,0.2,0.6,0.2l0.1-0.1c3.1-3.8,5.9-7.7,8.6-11.7
			c0.6-1-0.5-2-2.6-2.4c-1.5-0.2-2-1.2-2-1.6c0-0.6,0.5-1,2-1c2.3,0,4.4,0.2,6.5,0.2c2.1,0,6.5-0.4,8.2-0.4c1,0,2,0.2,2,0.9
			s-1.1,1.5-2,1.6c-4.6,1.1-7.2,2.3-10,5.5c-3.1,3.7-6,6.6-9,11c-0.1,0.4-0.2,0.7-0.1,1.2c0.6,2,7,12.1,10.4,17
			c2.6,3.7,4.8,6.2,10.4,7.6C303.1,77,303.5,77.7,303.4,78.1z"/>
	</g>
</g>
</svg>
