<svg xmlns="http://www.w3.org/2000/svg" xmlns:xlink="http://www.w3.org/1999/xlink" viewBox="0 0 642.98 831.75"><defs><linearGradient id="linear-gradient" x1="446.46" y1="485.47" x2="499.11" y2="485.47" gradientUnits="userSpaceOnUse"><stop offset="0" stop-color="#8d6800"/><stop offset="0.07" stop-color="#957109"/><stop offset="0.19" stop-color="#ab8921"/><stop offset="0.33" stop-color="#cfaf49"/><stop offset="0.5" stop-color="#ffe37e"/><stop offset="0.67" stop-color="#cfaf49"/><stop offset="0.81" stop-color="#ab8821"/><stop offset="0.93" stop-color="#957009"/><stop offset="1" stop-color="#8d6700"/></linearGradient></defs><g id="Layer_2" data-name="Layer 2"><g id="Layer_1-2" data-name="Layer 1"><path d="M317.08,81.75s4.13-7,6.6-5.78,7-.15,7-.15v-4l4.54,2.47V71.84H341c4.54-1.24,9.91.41,12.39,0s5.78-1.65,6.6-2.89.83-2.48,3.31-2.07,0-.82,2.47.42l2.48,1.23a13,13,0,0,0,2.89-1.8l1.24-1.09s-1.24,1.24,3.72,0a36.93,36.93,0,0,0,6.6-2.06l2.48-2.06s2.06-1.24,2.89,0,2.89,3.71,3.71,4.95-4.95,7.43-4.95,7.43v2.89a3.64,3.64,0,0,0,3.3,2.89s4.29,1.24,1.74,4.13a55.05,55.05,0,0,0-4.21,5.37L379,92.89l-5,5c-1.24,1.24-2.89,2.06-3.71,4.13s-2.48,3.3-2.89,4.54-1.66,1.24-2.07,2.48-7.43,5-7.43,5-8.26,2.06-8.67,3.3-2.48,5.37-4.54,6.61a44,44,0,0,0-4.54,3.3h-4.13l3.71,5.37-5.36,2.89h-5.37s5.78,2.48,7,2.48,3.71,1.23,6.6,0-1.65-.83,2.89-1.24l4.55-.42s-2.07,7-5.37,9.5-1.65,2.48-3.3,2.48h-8.67l3.71,3.71s1.65-3.71,2.07,0-.42,5-1.66,6.2a35.17,35.17,0,0,1-5.78,4.54c-2.06,1.24-2.89,2.06-5.36,2.89a12.36,12.36,0,0,1-5.78,0l9.08,2.06s2.06-.41,4.95-3.3a78.61,78.61,0,0,1,9.09-7l4.54.83s0,1.65,2.48-1.24a18.79,18.79,0,0,1,4.78-4.13l2.65-.83s-1.65.83,2.06,0a20.12,20.12,0,0,0,6.61-2.89l12.8-1.65a14.67,14.67,0,0,1,4.12,2.07c2.48,1.65,2.48,1.65,4.55,1.65h5c1.58,0,2.82-.83,4.06-1.24a7.3,7.3,0,0,1,4.54-.41,76.88,76.88,0,0,0,9.91.41,25.46,25.46,0,0,1,6.6,1.24,20.23,20.23,0,0,0,5.78.82,25.73,25.73,0,0,0,6.2,0s2.47-2.89,3.71-2.06a23,23,0,0,0,3.31,1.65,26.59,26.59,0,0,1,2.89-1.24c1.23-.41,4.95-2.89,7,.41a12.07,12.07,0,0,0,5.78,4.55s1.66-1.24,2.07,2.06-1.65,4.13,0,5.37.82-2.07,1.65,1.24l.83,3.3-1.66,4.54s-2.89,0-5.78,4.13a58.45,58.45,0,0,0-5,8.26,32.28,32.28,0,0,0-3.3,15.68c.41,7.85-3.31,4.13-5,10.74a50.5,50.5,0,0,1-2.89,9.08s-9.49,11.56-10.73,12.8l-1.24,1.24-5.78,2.48,6.19,1.65s-2.89,1.65-2.89,2.89,1.24,2.89,0,5-3.3,3.3-4.95,4.54A45.68,45.68,0,0,0,410,253.5c-2.89,2.47-3.72,3.3-6.61,4.12a9.87,9.87,0,0,1-5.36,0s-10.32,1.24-12.8,5.78-5,3.31-8.67,2.48l-3.72-.82s1.24,5.36,9.5,3.3,13.21-2.07,14.45-3.3,2.48-5.78,4.54-3.72,2.06,3.3,2.89,4.54a28,28,0,0,0,2.48,2.95s4.54.35,5.36,2-.82-.42.83,1.65,4.54,0,1.65,2.06-8.26,4.13-9.49,5-8.26,0-8.26,0-6.19,2.47-6.61,4.54-4.54,4.54-6.6,6.6-2.48,2.89-5.78,4.55-2.07,2.06-6.2,2.06-8.25-1.65-10.73-2.06a82.24,82.24,0,0,1-9.08-2.9s4.95,6.2,12,7.85,12.39-.41,13.62,0a7.54,7.54,0,0,0,3.72.65c1.24-.24-.83-1.48,1.24-.24s-2.89,0,2.06,1.24,13.21,0,13.21,0l1.66-3.71c1.65-3.72,4.12-8.67,5.78-7a22.78,22.78,0,0,0,5.36,3.3l3.31,2.89a11.8,11.8,0,0,0,2.47,1.24c1.24.41,4.54-3.72,6.2.41a11,11,0,0,0,6.19,6.19c1.65.83,2.89-.82,4.95,0s3.72,2.89,5,4.13,2.06,2.07,4.13,5.78,1.23,3.72,2.89,5.78,1.65,2.89,4.54,4.13,7.84.83,7,2.07-.65,2.47.09,4.54,4,2.47,4,2.47,5.37.83,5,5.78,4.13,5.37,3.3,8.26-3.71,5.37-4.13,6.61,1.24,4.54,2.48,5.36,1.65,2.07,0,3.72-3.72,1.65-1.24,3.3,1,.42,3,5.78-.92.42,2,5.37,3.3,3.72,3.71,6.61-3.71,2.89,0,4.54,2.89-2.07,3.72,1.65-1.24,6.6,0,8.26.82,2.47,2.06,5.78,2.07,7,3.3,8.25,5.79-4.54,3.72,2.48-5.37,14.86-2.89,9.5,5.78-7.44,5.78-7.44,5.37-.41,5.78,1.24-5.78-3.71.41,1.65,2.07,4.39,9.09,6.32,13.62,1.53,14.86,5.24-1.24,8.26,1.65,10.33,4.13,1.23,5.78,3.3,1.24,2.06,2.48,4.13-.41.82,2.06,3.71a61.76,61.76,0,0,1,4.13,5.37c.83,2.06-5.37-.83.83,2.06s9.08,4.13,9.08,4.13-7.43-5-7.84,0,2.06,15.28,2.06,17.34-.83,4.13.83,6.61,3.71,1.65,4.95,4.95a61.49,61.49,0,0,0,6.19,11.15c2.48,3.72,8.26,5.78,2.48,3.72s-5-3.31-7.84-2.89-3.31,4.13-6.2,1.24-7.43-8.26-7.43-8.26-2.06-2.07-3.71,0-1.66,4.54-5.78,2.06a6.83,6.83,0,0,0-4.74-.44A28.81,28.81,0,0,0,512,504.1l16.51,1.24c3.72,1.65-1.24.83,3.72,1.65s7,6.61,10.73,7.85,6.61,1.24,8.67,3.71,6.21-1.65,6.62,3.31-3.71,8.25,0,10.32,0-3.31,3.7,2.06,3.72,3.3,3.72,7v6.19c-.83,7.43,4.13,8.67,0,10.74s-3.72,2.06-7,4.54-5,2.89-6.61,5.37-4.54,3.71-4.12,4.95,1.23-3.3,5.36,0,3.72,4.13,7,6.61,5.81,4.54,7,2.89-2.07,1.65,1.23-1.66,3.71-9.49,7-12,5-2.89,8.67-2.48,4.54,1.24,7,0,3.71-5,6.19-1.23-.41,1.23,2.48,3.71,3.71-.41,6.6-.41,4.54,1.24,7,2.89a12.71,12.71,0,0,0,7.84,2.48c3.31,0,4.13-5.78,6.61,0s4.13,7,5.78,9.26-3.3,5.6,0,8.9,4.13,2.89,5,6.19-2.47,5,0,7.44,1.24,2.89,2.89,5.78,2.07,4.12,0,5.78-6.19,7.84-7,14,.82,6.61-1.66,9.09l-2.47,2.47c-2.07,2.07,3.3-5-2.07,2.07a37.86,37.86,0,0,1-10.73,9.91s-11.56-9.09-9.08-5.37,3.3,3.3,4.54,5.37-.42,4.12-2.89,2.89-.42,2.47,1.24,3.3,4.95-.83,2.47,2.89-.82.83-3.71,5.37,5.36,7-2.89,4.54a97,97,0,0,1-14-5.37l2.48,6.35h-4.13c-2.89,3.56,4.54,4.39,5.78,5.21s.82,6.61-.41,7-5.78,4.13-5.78,4.13a6.21,6.21,0,0,1-4.55,2.48c-3.3.41-9.08.41-11.14,1.65s.41,1.24-4.13,2.89-6.61,2.47-6.61,2.47,12.39-4.12,14-3.71a30.38,30.38,0,0,1,4.54,1.65c2.07.83,2.48-.83,4.13,2.06s-2.89-.82,1.65,2.89,6.61,2.89,8.67,4.55-1.65,1.65,2.07,1.65,2.89-1.65,7.43-1.65,12.8,1.23,13.62,0,4.54,0,4.54,0-5.36,3.3-4.54,6.6.83,5.37,1.24,7a8.26,8.26,0,0,1-.83,5.37c-.82,1.65-14,11.14-16.51,9.08s-4.54,2.48-4.54,2.48l-1.24,9.49H588.74a33.73,33.73,0,0,1-3.72,4.13c-2.89,2.89-2.89,2.07-9.08,3.72s-7,.41-8.26,2.06,2.89-1.65-1.24,1.65-7.43,3.72-7.43,3.72-7.43-1.65-9.08-2.89A25.64,25.64,0,0,0,545,758l-6.2-1.24-4.95-.41s-4.54,1.65-6.19,2.06-5.37.42-7.44.83-3.3,0-5,.41-4.54,2.48-6.61,3.72-4.54,2.89-4.54,2.89l-5.36-7L492.13,758l-6.19-.41L480,756.36l-2.35-3.72.41,5.78a8.18,8.18,0,0,0-3.3.83c-1.65.83-1.65-2.48-5,.83a56.71,56.71,0,0,1-7,6.19c-1.24.82-2.89.41-4.55,0s-5.36.48-5.36.48a27.36,27.36,0,0,1-2.89,0l-2.48-.07s.83,16.1-6.19,12.39S431,776.18,431,776.18s-3.31-1.65-4.55-.83-7.43,7.85-7.43,7.85l-3.71-8.26a29.19,29.19,0,0,0-3.72-3.72,53.23,53.23,0,0,0-7.84-4.54,17.29,17.29,0,0,0-5.37-1.24,32.07,32.07,0,0,0-6.19.83c-2.07.41-3.72,0-5.37.82s-.41.83-4.54,2.07-9.08,3.3-9.08,3.3l-4.55-.41s.42,11.56-1.23,11.15,1.23.82-.42,4.12-2.47,4.55-3.3,6.2.83,2.89.41,4.13,2.89-2.48-.41,1.23-.41-1.23-3.3,3.72a59.17,59.17,0,0,1-5.78,8.26l-3.72-1.65-3.71-2.89L346,804.25a3.19,3.19,0,0,0-2.07-.82h-4.13a34.81,34.81,0,0,1-3.71-.83c-1.24-.41-6.61-2.48-6.61-2.48a11.5,11.5,0,0,0-3.3-.41c-2.06,0-5-.41-6.19-.41s-5.78.82-5.78.82a35.14,35.14,0,0,0-4.54.42c-2.89.41-1.66-.42-5.37.41s-1.24,2.89-3.3,5.37a39.52,39.52,0,0,0-3.31,4.54h-6.19l-3.72,3.71s-2.06-1.24-2.47,1.65a31,31,0,0,0,0,6.61l-2.48,3.3s-5.78,7-6.61,5.37-.82-4.54-1.65-5.78-3.71-4.54-3.71-4.54l-4.13-2.07s-1.65-2.06-2.89,0-.83,2.48-2.48,4.55,2.06,1.65-1.65,2.06a24.94,24.94,0,0,1-6.19,0,19.73,19.73,0,0,0,0-5.37c-.42-2.89-2.07-2.89,0-4.54s5.36-2.48,6.19-3.71,3.71-3.72,4.95-2.07l1.24,1.65s3.3-3.3,5-4.13,2.47-.82,4.54-1.65,2.89-.82,4.95-4.54S285.7,789,285.7,789l.83-2.89s-6.2-2.48,1.65-5.78,11.56-8.67,12.38-10.74,1.65-4.13,1.65-4.13,5.37,1.24,6.2-1.65,2.06-8.67,2.06-8.67.41-2.06,1.65-6.6,2.07-9.91,2.07-9.91l5.78,2.06s2.89,1.65,4.95,0,2.89-4.95,2.89-4.95-1.24-5.78-.41-7,3.71-6.61,3.71-6.61,9.09-1.24,10.74-1.24,9.49.83,11.56,0,5.78,3.72,7.84,2.07-2.89-3.3,2.07-1.65,6.19,2.47,7.43,2.89,12.38,4.54,13.21,2.06l.83-2.48h0c5.36,0,5.78,2.89,7,0s2.07-5.36,2.07-5.36a11.17,11.17,0,0,0,0-4.13c-.41-2.48-.83-5.37-.83-5.37s15.69-11.56,17.76-15.69a64.86,64.86,0,0,1,4.12-7c1.24-2.06,5.37-10.73,5.37-10.73s-8.67,6.61-11.56,9.08-7.43,7.43-9.49,7.85-2.89,1.24-4.55,1.24-5.36-2.07-6.19-.83S386,694.43,384,699s1.24,2.48-2.06,4.54a16.79,16.79,0,0,1-9.09,2.48c-2.47,0-2.47,2.48-6.19-.82a43.87,43.87,0,0,0-6.61-5,32.27,32.27,0,0,0-4.54-3.3,9,9,0,0,1-4.13-4.54c-.82-2.07-2.06-5.78-4.54-5.78s-3.3,1.65-6.6,3.3-2.48,2.89-5.78,2.89a61.41,61.41,0,0,1-6.61-.41l-1.24-2.89s-1.65.41,2.89-2.48l4.54-2.89h0c-2.47-2.06-3.3-2.48-4.95-2.48s-2.06,3.31-3.3,0-1.65-6.6-2.89-7-.42-2.89-2.89-.82-9.5-.41-12,2.89-2.47,4.54-4.54,6.19-4.95,1.24-7,1.65-1.23-2.89-2.06.42,2.06,8.67-4.54,3.3-7.85-6.61-9.5-7.85.42,1.24-1.65-1.23-6.6,2.47-2.06-2.48l4.54-5s4.13-5.78-2.07-5.78-9.49,2.07-8.67,0,5-7.43,5-7.43-.42,0,2.89-2.06,4.13-3.31,5.36-4.13,1.24-2.48,3.31-2.48,11.15,1.24,14-3.3,1.65-5.37,5.36-7,2.48-2.06,6.2-2.48,4.95.42,7.43-1.65,3.71-2.48,7-4.95,3.71-2.07,6.19-5.37,6.19-8.67,6.19-11.15.83-7,0-9.08-3.3.41-2.89-4.54,1.65-7.85,2.07-11.15-4.13-12.8-4.13-12.8l-1.24-3.71s-12,0-15.28,3.3a55.57,55.57,0,0,1-6.19,5.37h-6.19a10.49,10.49,0,0,1-5-1.65l1.24-2.07L313,568.92s3.3.41,4.95-5.37,1.65-6.6,2.07-8.25-2.89-3.72-5-6.2-3.3-4.12-3.3-4.12-4.13,4.12-4.54-3.72-1.65-5.37-.41-7.84.41-3.31,3.3-5,12-3.71,12-3.71c2.48,1.65,3.72,1.65,5.37,4.12s1.24,4.13,2.89,5-1.65-.41,1.65.82a41.81,41.81,0,0,1,7,3.72s-2.07,4.13,0,2.48.41-.83,5-2.89-.41-2.07,6.61-2.48,13.21-.83,13.21-.83,1.24.42,3.72-1.23,3.71-2.48,6.19-1.66,9.91,7,11.15,7.85,4.54,0,3.3-2.48-3.72-3.3-2.89-6.19a9.64,9.64,0,0,1,2.89-4.54c2.06-.83,3.71-5.37,3.3-7.43s-2.48-5.78-2.48-7,12-13.21,12-13.21-7.43,1.65-8.67-.83-1.65-2.89-1.65-4.54-1.66-6.61.41-9.09,4.54-2.88,5.78-4.95a50.16,50.16,0,0,0,2.89-7v-2.89s2.06-7,.41-9.08-3.3-.83-3.3-.83c-2.89,0-2.48-6.6-5-.41s-3.3,7.84-7,9.91-7,6.19-6.61,2.48,1.24-4.55.83-7-.83-5.37-.83-5.37c-4.95-5-6.61-8.26-7-9.5l-.41-1.23-1.24-2s-2.06-1.71-4.13-6.25-4.13-9.91-4.54-12.39,0-3.71,1.24-6.19a33.26,33.26,0,0,0,2.06-5.78s6.2-5.78,7-7.43-.41-7-.41-7l2.89-3.3s1.65-2.07,3.3-4.54l1.65-2.48s-10.73-1.24-12-.83l-1.24.42-2.89.82s.83.83.41,3.72-3.71,3.3-5.36,4.13a12.78,12.78,0,0,1-4.54.82,32.56,32.56,0,0,0-4.13,2.48c-1.65,1.24-3.31,2.89-5,3.71a35,35,0,0,1-6.19,1.66l-5-1.66-3.72-2.89L320,397.58a7.58,7.58,0,0,0,0,3.31,73,73,0,0,0,3.3,7.43L322,412,320,415.75h-6.2a50,50,0,0,1-4.12-5.37c-1.24-2.06-5-6.6-5-6.6l-2.89-2.48s-4.13,0-6.6,1.65l-2.48,1.65s1.65,4.54,2.06,6.2.83-1.24.42,1.65.82,4.95.82,6.19-4.13.83-4.54-1.24a20.84,20.84,0,0,1-.83-4.95c0-2.07-2.06-2.89-2.47-4.13a9.84,9.84,0,0,0-2.48-3.72l-1.24-1.24s-6.19-9.49-5.37-12.79l.83-3.31s5.37-2.89,5.78-4.54a18.29,18.29,0,0,1,1.24-4.54c.82-1.65.82-3.3,2.48-5.37a21,21,0,0,1,3.3-3.71c2.89-2.89,4.13-2.48,4.95-4.54s-1.65-5.78,0-8.26a26.42,26.42,0,0,1,4.13-5c1.65-1.65,2.07.42,3.72-3.3s2.06.41,1.65-3.71-2.48-6.2-3.72-9.09-11.56-13.62-11.56-13.62.41-3.72.83-6.19-2.89-4.13-2.89-4.13l-2.89,7.43-4.13-2.07-8.26-2.06c-.82,3.3,2.89,3.3-1.65,6.19s-5.37,2.07-6.19,3.72a35.12,35.12,0,0,0-2.89,7c-.42,2.06-1.65,3.3-1.65,6.6s1.23.42,0,3.31.41,7,0,8.67,0-1.24-.42,1.65,3.72,2.47,1.65,4.95a26.08,26.08,0,0,1-5.36,4.54s-4.1,0-5.56.83-6.42-2.48-5.59-7.43-2.48-2.07.83-5,4.54-2.89,4.95-4.95,0-4.13,0-6.61-1.24-.82,0-4.95,2.06-7.43,2.89-9.08,1.24-6.2,1.24-6.2-.83-.41-.83-5.36-2.06-7.85-1.65-11.15,1.24-5.37,1.65-7.85.42-2.89.83-5,.41-4.13,1.24-5.37-2.89-2.06-3.31-.82-2.47,9.08-3.3,11.14,0,2.48-2.48,5.37-1.35,1.24-2.73,5a53.48,53.48,0,0,1-2.22,5.78c-1.65,3.71-3.72,7.84-3.72,7.84h-4.54s-1.65-1.65,0,2.48,2.48-.42,1.65,4.13-1,6.6-2.38,7.43-3-.42-5,1.65-4.13,2.48-5.36,3.3l-1.24.83-2.48-10.74s1.24-1.24,0-2.06-1.65-5-4.54-1.65-5.37,8.67-5.37,4.95.41-5.78,0-7.84-2.06-2.89,0-5.37,6.19-6.61,7.85-7.43.82-1.65,4.12-2.07,7.85-1.65,9.09-.41,3.71-4.54,3.71-4.54-2.06-1.65,1.24-4.95,4.13-4.55,7-6.61,4.54-2.06,6.19-5.37,1.65-4.13,4.13-8.26a44.29,44.29,0,0,1,5.78-7.43s.83,0,2.89-6.19,2.48-7.43,3.3-9.08-1.65,2.06.83-1.65,4.13-6.61,5.78-8.67-11.15,7-14.45,11.56-4.95,5.78-6.61,9.49-2.47,7.43-3.71,7.85-12.39,2.89-15.28,3.3-3.3.82-5.78,0-3.3-1.24-4.54-1.24-6.19-2.48-6.19-2.48l6.6-2.89,4.55-4.54a12.58,12.58,0,0,0,1.23-3.71c0-1.24,2.89-1.24-1.23-3.72s-9.5-3.72-9.5-4.95.41-1.66,1.24-2.89,7-7.85,8.26-8.26,1.23-1.24.82-4.13l-.41-2.89a21.31,21.31,0,0,1,5.37-2.89c3.3-1.24,0-1.24,3.3-1.24h3.3c2.07,0,2.07.41,3.72-1.24s3.71-4.13,3.71-4.13,4.13-3.71.42-4.12-3.72,3.3-3.72-.42,2.06-7,3.3-7.84,1.65-4.54,2.48-5.78,1.24-2.48,1.24-5.37-2.07-7.43-3.3-3.71-1.24,4.12-3.31,6.19a24.33,24.33,0,0,1-5.36,3.71s-4.13,2.48-4.13.42,2.06-4.54,3.3-7.43a33.08,33.08,0,0,0,1.65-4.55,33.48,33.48,0,0,0-5.78,1.66c-1.65.82,12.39,2.47-1.65.82s-4.95,2.07-6.61.41-2.06-2.06-3.3-1.65,2.07,2.48-1.24.42-5.36-5.78-6.19-7a21.92,21.92,0,0,1-1.65-3.31L212.21,180,210,175.88l-2.7,5s.41,1.24-2.48-1.24-3.3-.82-4.54-3.71-2.89-5.78-2.89-5.78l3.3-2.89,2.89,1.65s2.06-2.48,1.65-4.13-1.65-2.06-1.65-3.3-2.89-5.37,1.24-4.13,2.48-1.65,4.13,1.24-.83,2.89,3.3,4.54,2.89,3.72,4.13,1.65,1.24-6.6,1.24-6.6c-1.24-2.07,0,2.06-1.24-2.07s-3.72-4.54-.41-6.19,4.54-2.89,5.78-1.65,3.71,2.47,5.36,4.95,4.13,4.13,4.54,6.19,1.24,3.72,0,5.78-5.36,0-2.89,4.55,4.55,4.54,5,2.47,0-3.3,1.24-4.13,2.89-6.6,2.89-6.6a20.64,20.64,0,0,1,.41,6.6,38.12,38.12,0,0,0-.41,7c0,3.72,3.71,9.09,3.71,9.09s-1.24-.42,2.07,2.06,4.54-.41,4.54-.41a44.49,44.49,0,0,1,3.71-5.37c1.24-1.24,5.78-4.54,5.37-5.78s-7,1.65-7,1.65l-3.71-4.95a24,24,0,0,1-.83-5.78c0-2.89-4.13-6.2,0-5s5.37,5.37,6.61,3.31,2.06-1.66-.42-5.78L249.37,154s-6.61-1.24-2.48-3.72L251,147.8l-.41-3.71c-2.89-1.65-4.13-1.65-4.55-3.3s-2.06-3.72-.41-5,11.15-1.24,11.15-2.89v-1.65l2.06.41c2.89,2.48,3.72,4.54,5,3.72s-2.48,2.89,1.24-.83a35.16,35.16,0,0,0,4.95-5.78,42.83,42.83,0,0,1,5.37-.41s2.89,1.65,2.06-1.24a6.84,6.84,0,0,0-3.3-4.54c-1.24-.83-3.72-1.65-4.54-2.89s-2.48-1.65-2.89-3.3-5-5.78-1.65-5.37,2.89,0,4.95,2.06-2.06,2.89,2.07,2.07,8.25.82,4.12-3.3-7-7-7.43-8.26-2.48-3.72,0-5,3.72,1.66,7.43.83l3.72-.83s.41-7.43.83-9.9-1.24,0,.41-2.48.41,2.06,1.65-2.48-2.89-3.3,0-7.43,3.72-4.54,4.95-5.37a17.47,17.47,0,0,0,2.89-2.89,15.91,15.91,0,0,1,4.55.83c2.47.82,2.06-.42,4.95.82s2.89,2.89,4.54,3.31-1.65-.42,1.65.41,3.72.41,6.61-.83,3.3-3.71,4.54-1.65S317.08,81.75,317.08,81.75Z" style="fill:#8696a4"/><path d="M369.92,42.11s1.24,5.37,5.37,7.85-.41,1.65,4.13,2.47,4.13,1.24,5.37,0,6.6.79,6.6.79,1.24,5,3.72,3.34,2.89-2.89,2.89-5V46.24l-6.2,3.26s-.41-1.2-3.71-2.85,2.06-.82-3.3-1.65-8.26-.82-9.09-2.89-5.78-5.78-5.78-2.89Z" style="fill:#8696a4"/><path d="M373.64,22.71V33.44s-2.07-4.54,0,2.07,4.54,5.78,4.54,5.78l5.78,0h5.78l3.3-3.16a19.78,19.78,0,0,1,3.31,3.16c1.23,1.62,1.65,4.92,1.65,4.92s2.06,3.3,4.13,0a11.31,11.31,0,0,1,4.95-4.54c1.24-.83,3.72-2.12,2.89-3.54s-3.3-3.66-5.37-2.95a10.54,10.54,0,0,1-5,0s-7-.12-1.65-1.77l5.36-1.65-1.23-7L398,28.49v2.06s-6.54.41-6.57,0-3.75-.41-2.52-2.06.49-2.07,2.52-2.89,3.26-3.31,4.5-2.89,4.54-2.07.42-4.13l-4.13-2.07s-8.67-5-8.26,0l.41,5h-4.95Z" style="fill:#8696a4"/><path d="M391.43,1.24c-.86,1.24,0-2.89-.86,1.24s.41,7,3.3,7.43,4.13,4.4,4.13,4.4,4.95.55,5.36,1.79S402.13,5,400.47,2.48L398.82,0a21.23,21.23,0,0,1-1.95,3.72C395.93,5,391.43,1.24,391.43,1.24Z" style="fill:#8696a4"/><path d="M406.67,14.31a13,13,0,0,0,3.47-1.92c1.48-1.24,1.89-7,1.89-7l4.13,2.47s3,3.58,4,2l1-1.58s-2.32-4.54-1-6.2A6.62,6.62,0,0,1,423.59,0s3.31,1.65,3.72,4.54,3.3-1.24.41,2.89-3.71,5.51-5.78,6.88-3.27,1.14-4.11,1.88-2.49,1.15-3.32,2.39l-.82,1.24s3.74,3.3,4.14,4.95,4.11-1.24.4,1.65-1.24,2.07-3.72,2.89-1.73-1.65-4.37-3.71a10.72,10.72,0,0,1-3.47-4.54l-5.78-1.24,2.47-3.72Z" style="fill:#8696a4"/><path d="M189.92,146.15c1.65-3.3,1.65-4.13,3.3-5.36s2.89-.83,4.13-2.07,1.65-.82,2.47-2.89a10,10,0,0,1,3.31-3.71s.41,2.89,2.89,0,2.47-3.72,5.78-5.37a72.79,72.79,0,0,0,7.43-4.54s-1.65-9.09-2.07-11.56-1.23-3.31,0-4.54,6.61.82,7.85,0,4.54-1.66,6.19-3.31a12.12,12.12,0,0,0,2.48-4.13s-7.43,1.24-9.08,1.66-.42,2.47-1.66.41S225,95,225.83,93.31s3.72-4.54,4.13-5.78,2.07-.42-.82-3.31a62.16,62.16,0,0,0-7-5.78s-4.13,5.37-7,6.2-5.37,1.23-8.26,2.89,0-1.66-2.89,1.65,2.07,0-2.89,3.3-6.19,1.24-7,3.72.42,2.89-2.47,4.13a11.08,11.08,0,0,1-6.2.41s-1.23,0-1.65,2.48-1.65,4.54-2.06,6.6-1.65,2.07-2.07,4.54a13.25,13.25,0,0,0,0,4.13c0,1.24-1.6.83-.18,3.3a21.62,21.62,0,0,0,3.07,4.13s1.66-.41.42,2.07-.83-.42-1.24,2.47-4,5.37-2.84,6.61,0,2.06,1.6,2.89a32.56,32.56,0,0,1,6.19,4.13A11.46,11.46,0,0,0,189.92,146.15Z" style="fill:#8696a4"/><path d="M167.62,151.11c-4.13.82-2.06-4.13-5.78,0s-5.37,4.54-5,7,.82,4.12,2.06,5.36,2.42.83,3.27,2.48,2.1,3.72,2.1,5.78-2.95,4.13-2.1,7,0,8.26,0,8.26,2.1,0,1.69,2.89a25.89,25.89,0,0,1-1.69,5.78l2.51,7a11.58,11.58,0,0,1,2.89,1.66c1.65,1.23-2.48,4.54,1.65,1.23s2.89-1.23,2.89-7.84-1.71-6.19.18-12.39,2.71-4,2.71-7.13V173c0-5-.82-5.78,0-8.26a21.76,21.76,0,0,1,1.65-4.13c.83-1.65-2.06-.82,0-4.13s1.14-8.67.16-10.32,1.08-1.65-3.05,0A14,14,0,0,0,167.62,151.11Z" style="fill:#8696a4"/><path d="M160.6,207s-3.84,1.46-3.77,3.12.34,5.78,0,7.43,6.13-1.24,0,2.89l-6.13,4.13,6.14,2.47,2.12-4.13s4.54-5.59,5-5.89,0-3.6,0-3.6a6.41,6.41,0,0,0,.18-6.42Z" style="fill:#8696a4"/><path d="M220.05,207s-1.23-.19-2.47,3.12-1.65,3.3,0,4.95a8.51,8.51,0,0,0,2.47,2s2.07,2.37,2.89,0,1.24-2.89,1.66-4.48,2.06-5.35,0-5.54A32.14,32.14,0,0,0,220.05,207Z" style="fill:#8696a4"/><path d="M227.9,220.47c1.65,1.24-2.48-1.24,1.65,1.24l4.13,2.47V218.1s-.25-4.24-3-2.59-2.76-1.65-2.76,1.65Z" style="fill:#8696a4"/><path d="M209.73,237.39c-2.06,1.24,1.47-2.47-3.6,2.48s-6.72,9.5-8.78,11.15-.42,1.24-3.72,2.48-4.54-2.48-6.6,0-4.13,4.12-2.89,5.78.82,3.3,3.71,3.3,1.24,1.24,2.89,0-.82,1.65,1.65-1.24,2.48-3.3,5-4.54,2.89,0,4.13-2.07,1.65-3.76,2.89-4.56-2.25-1.22,1.76-3.28,2.36.41,4-2.06,2.89-2.89,2.89-4.13S209.73,237.39,209.73,237.39Z" style="fill:#8696a4"/><path d="M227.65,285.7c-1.82.41-5.6,2.48-6.6,4.54s0,7.85,0,7.85a7.44,7.44,0,0,0,3.08,0c.88-.42-.8-3.95,1.48-6.11S227.65,285.7,227.65,285.7Z" style="fill:#8696a4"/><path d="M269.18,329.88c0,1.65-1.23,7.43,0,9.08s1.52,2.89,3,5,.69,3.31,3.58,3.72a15.57,15.57,0,0,0,6.19,0c2.07-.41-.41,4.95,2.07-.41s3.3-5.37,2.06-7-2.89-.08-2.89-2.72v-6c0-1.65-3.3-6.2-3.3-6.2S269.18,328.22,269.18,329.88Z" style="fill:#8696a4"/><path d="M320,438.87s-9.5,8.67-9.91,11.15.82,2.06-1.65,4.54-3.31,2.89-5,4.95-3.71,3.72-3.3,5.78a17.28,17.28,0,0,1,0,5s9.08,1.24,9.93,0,1.27-3.72,3.74-5.37,4.13,0,6.2-4.54,3.71-6.19,4.13-7.85a10.17,10.17,0,0,0,0-6.13l-.83-2.95Z" style="fill:#8696a4"/><path d="M187.85,370.34s6.19,5,11.15,2.06,1.65-1.65,4.95-2.89,2.07.41,5-2.06L211.8,365h4.95a116.33,116.33,0,0,1,11.15,4.17c5.37,1.2,4.13-1.69,5.37,1.2s2.89,4.54,3.3,7.43-1.65,3.3,0,5,5.37,1.65,4.13,4.13-2.48,3.3-1.65,4.54,7.84,5.78,7.84,5.78A33.31,33.31,0,0,0,249,401.3c1.24,2.06,3.72,1.24,2.89,4.13s-2.47,6.19-3.71,7.43-5.78,4.95-5.78,4.95l7.43-2.06s2.89-5.78,7.43,0l4.54,5.78s3.72,7.43,4.13,9.5,0,3.71,0,5.78-2.06,3.3-2.06,5.36-3.31,18.58-7.43,15.69-.83-2.89-4.13-2.89-6.2-2.34-7-.14-2.07,4.27-1.65,7.57,3.71,6.47,0,8.4a61.42,61.42,0,0,1-6.2,3.16L232.85,476s1.24,2.06-2.89,3.3a12.59,12.59,0,0,1-7.43,0l-2.89-2.89-1.24,6.61s-2.06.41,1.24,2.47,4.13.83,5,3.31,3.07,4.13,2.36,5.78,0,6.19,0,6.19-4.43,4.54,2.18,10.32,6.19,5.78,6.6,7.43-5,2.89-5,2.89a25.31,25.31,0,0,0,0,5.78,13.36,13.36,0,0,1,.41,5.78c-.41,2.48-4.24,3.31-4.24,3.31l3.83,4.12s1.24,4.13,1.65,6.2,1.24.41,1.24,6.6-.83,9.09,0,11.15,1.24.41,2.06,3.72,1.24,3.71.83,5.78-4.54,1.65-6.19,7.43-3.95,9.08-3.42,11.14,2.36,3.72,0,6.61-2.36,5-2,6.61,2.48,4.12-1.65,7.43-5.37,3.3-6.61,5.78a49.34,49.34,0,0,0-2.48,7s5,.82,5.37,2.47a5.68,5.68,0,0,1-.82,5c-1.24,2.06,5.36,1.65-1.24,2.06s-8.26,0-8.26,0-1.24-3.35-3.3.19-6.2,0-6.2,0,1.66-1.84-2.47-1.43-6.2,2.68-7,3-2.48,3.61-2.48,3.61-3.71-3.72-5.78-2.89a12.25,12.25,0,0,0-4.54,2.89c-1.24,1.24,5.78,1.24-1.24,1.24s-3.3-.42-7,0-2.47-1.65-5.78,0l-6.6,3.3s-1.65,10.73-5.37,10.32-3.3-2-5.37,0,1.65-.83-2.06,2.06,1.65-5-3.72,2.89-5,10.32-7.84,11.14,0,0-5,0a36,36,0,0,1-9.9-1.65s0,7-2.07,8.26-2.89.83-6.19,2.48-3.72-2.89-6.19,1.65.41,3.3-2.48,4.54,4.13-5.78-4.54,0-7.85,3.72-12,4.13l-4.12.41s-7.85.83-8.68,2.07-2.89,4.95-4.12,5.36-4.13,1.24-6.2,0-7.43,7-6.19,3.72a34.5,34.5,0,0,0,1.65-7.43s3.76-5-1.83-2.48a79.71,79.71,0,0,1-7.66,3.3,54.67,54.67,0,0,0-7.44,3.31v-6.61c0-2.48-4.12-3.72,0-5.37s2.48-1.65,6.2-2.47,8.25,0,9.08-3.72,4.13-6.19.83-5.37-2.07.41-5.78,2.48-1.24,2.06-6.61,3.3-5-.41-7.43,1.65-2.89,1.66-5.37,2.89A25,25,0,0,1,26,688.24a19.88,19.88,0,0,1-6.61,1.65s-4.12-2.48,0-4.54,8.26-5.37,9.5-5.78,2.89-1.65,5.37-4.13L36.74,673s.83-.82,2.89-2.48a27,27,0,0,0,3.72-3.71s-7.84,2.89-9.08,3.71.41-1.23-5,1.66L24,675h0c-2.48,0-6.38-2.89-6.38-2.89-2.71-.83-3.12-2.07-4.77-.42s-3.3,4.13-3.3,2.48-2.07-11.15-2.07-11.15-4.95,4.13,0-2.06,5.37-6.19,7-7l1.65-.83s7.43-3.3,10.32-4.12,3.72,2.06,5-1.66a40.55,40.55,0,0,0,1.65-7s0-2.89-5.37,0-6.6,3.71-8.67,4.12-2.06,0-4.54,0-1.65-1.23-6.61.83A81.1,81.1,0,0,1,0,648.19l2.89-7.43a20.43,20.43,0,0,0,3.72-4.13c1.65-2.48,3.71-6.19,5.36-6.19s-5.78,4.54,1.65,0S26.84,623,26.84,623a3,3,0,0,1,1.65,2.47c0,1.65,2.47,3.31,4.13,3.72s3.3.41,4.12-1.24a6.77,6.77,0,0,0,.83-3.72c0-1.23-.41-5.36-.41-5.36s-3.31-2.48-1.65-3.72-4.55.41,4.12-2.89,10.74-2.89,11.15-4.13,0-6.6,3.3-7.43,2.48.83,3.31-.82-2.07-3.72-3.31-3.31l-1.23.42a9.58,9.58,0,0,0-6.2,1.65c-2.89,2.06-1.24,2.89-5.36,3.3a54.33,54.33,0,0,1-7,.41c-2.07,0,13.21-11.14,14.86-13.21s-.41,0,1.65-2.06,7-3.72,8.26-7,1.24-5.78,2.48-7.43,2.06.41,1.23-1.65-6.19,0-4.54-2.48,6.2-7.85,6.2-7.85a29.76,29.76,0,0,1,.41-5.36c.41-1.24.82-3.72,2.89-5s-2.48-3.71,2.06-1.24,2.89,2.89,6.61,2.48,2.89,0,5.78-1.65,2.06.41,2.89-1.65-1.24-5-3.72-5.78-2.47-1.65-4.54-1.24a74.33,74.33,0,0,1-9.91.83c-2.47,0-10.73-1.24-10.73-1.24s-1.65,4.54-4.54,3.3-5.37-4.54-4.54-6.61,2.47-8.67-.83-5.36-2.89,4.13-5,5.36,2.06,4.55-2.07,1.24a35.25,35.25,0,0,0-7-4.56s7.85-2.46,1.65-3.28-7.84-.41-7.84-.41a16,16,0,0,1-1.24-4.13c-.41-2.48-2.48-2.07-1.65-5s-3.72-5.36-3.72-5.36l7-3.31a3.29,3.29,0,0,0,3.72-1.24c1.65-2.06-5.37-2.06,1.65-2.06h7s-2.48-6.61-2.48-7.84-.82-4.55.41-5.78,0-.83,3.31-2.07,3.71-1.24,6.19-2.06,3.72.41,4.95-2.07,8.26-4.54.83-5.37-9.5-1.65-9.5-1.65c-4.12,2.48-5.78,4.13-7.84,4.13s-1.65,4.13-6.61-2.06l-4.95-6.19-4.95-.42s-2.89-4.13,1.23-4.95a14.89,14.89,0,0,1,8.67.41c2.89.83,1.24,2.06,2.89.83s-.41-3.31-.41-6.2v-7l-3.3-5.36-1.65-4.13s-4.54-1.65,1.24-2.48,7.84-2.83,7.84-2.83.83,5.31,7,3.24S50,446.83,52,446.36s-.41-2.54,2.06-.47,2.07,2.06,8.26,2.89,8.67-.41,9.08,1.24,2.48,3.3,2.48,5.36,5,6.61,5.78,3.31,2.07-6.61,2.07-6.61-1.65-1.65,3.71-.41,9.91,2.06,9.91,2.06-1.24,2.07,2.89.83,8.67-1.24,9.08-2.89.42-4.84-2.06-5.31-7.84-.88-5.78-2.12,5.78-1.24,9.08-2.89,10.74-6.2,10.74-6.2,2.47-6.6,2.89-8.67.82-2.06,1.65-3.71,5.37-.41.82-1.65-9.49-1.24-11.56-.42l-2.06.83s-4.54,2.06-6.61,1.24a10.32,10.32,0,0,0-2.06-.83c-2.48-.82-7-2.06-7.84-3.3s-5.37,0-4.55-2.89S98.26,405,103.63,405s5.37,2.47,5.37,0-1.24-5.37.41-6.2,6.19,2.07,5,.42-5.78-8.26-5.78-8.26,0-.41,1.65-2.07,2.48-2.89,3.72-4.12,1.65-2.89,2.48-4.55a9.3,9.3,0,0,0,1.24-4.12c0-1.24-2.07-6.61.41-6.2s4.54,1.65,6.6,2.07,3.72-.83,5.37-1.65-.64-1.24,3-.83-.09,0,3.63.41,3.3,4.13,5.36.42-1.23-4.13,3.31-5.37,2.47-.83,4.54-1.24,2.48-5,3.71,0-.82,4.95,1.66,7.43,2.89-1.65,2.47,2.48S154.82,384,154.82,384s-5.36,1.24-3.3,3.3,5.78,2.89,7-.41,1.65-5,2.89-6.61-.41,2.07,1.24-1.65,2.06-4.54,1.24-7-6.61-4.12-6.61-5.78-.83-2.52,1.65-4.36,0,1.06,2.48-1.83-3.3-6.6,4.13-5.37S176.29,358,176.29,358a10,10,0,0,0,4.13.83c2.48,0,3.72-2.89,4.54,0s.83,9.08.83,9.08-11.15,7-12,8.67,0,4.13-.41,7,8.67-1.65,8.67-1.65.41,2.06,1.65-2.07A63.26,63.26,0,0,1,187.85,370.34Z" style="fill:#8696a4"/><path d="M17.13,458c0,.46-1.08,4.18,0,5.42s1.4.77,2,1.54l1.24,1.55s.15-4.8,0-5.73.3-2.63-.62-2.78A13.54,13.54,0,0,0,17.13,458Z" style="fill:#8696a4"/><path d="M24,458s.31-1,0,1.62.46,2.63,0,4.33,0,3.87-.08,4.49a1.27,1.27,0,0,0,2.09.93c1.08-.93.31.62,1.08-.93a10.91,10.91,0,0,0,.78-4,2.85,2.85,0,0,1-.93-2.12c-.16-1.59.15-2.06-.31-3S24,458,24,458Z" style="fill:#8696a4"/><path d="M33.24,492.08H29.83s-.16-.16-1.24,0-2.68.31-2.81,1.55,1.26,2,2,2.32-1.55.93.77.31a8.28,8.28,0,0,0,3.56-2C32.93,493.78,33.24,492.08,33.24,492.08Z" style="fill:#8696a4"/><path d="M26.89,500.13H24.26c-1.24,0-3.74.15-3.81,1.39s-1.79,1.4,0,1.71,3.65-.62,4.27,0,.57,1.52,1.06.06S26.89,500.13,26.89,500.13Z" style="fill:#8696a4"/><path d="M20.45,507.71s.14-.15-1.9.93-1.88,1.09-3,1.71-3.1-.62-3.88.77-2.94,3.72-.77,3.56,5.23-.62,5.71-1.08.84-1.24,1.9-1.55,1.2.31,1.91-.85S20.45,507.71,20.45,507.71Z" style="fill:#8696a4"/><path d="M40.05,550.45s2.32-1.24,2.94,0,2.17,1.39,2.63,1.85a26.57,26.57,0,0,0,3.1,1.86c2.32,1.4,4,1.24,5.11,2.32s3.25,1.09,3.25,2-2.79,3.4-2.79,3.4a1.39,1.39,0,0,0-1.39-.77c-.93.15-4.18,0-4.34-1.09s-2-2.16-2.63-2.94a17.39,17.39,0,0,0-2.79-2.16,4.77,4.77,0,0,0-1.7-.93,20.11,20.11,0,0,1-2.32-.78S39.15,550.81,40.05,550.45Z" style="fill:#8696a4"/><path d="M467.67,767.82l11.14-4s0-1.55,3.72,0a21.06,21.06,0,0,0,6.5,1.67s0-3.9,1.55,0,3.1.5,1.55,3.91-.62.61-3.1,4.33-2.16,3.1-4,4.34-3.41,5-7.12,1.54-5-3.4-7.13-5.88A17,17,0,0,1,467.67,767.82Z" style="fill:#8696a4"/><path d="M446.46,476.7v17.55h52.65V476.7Zm11,10.92c-.11.36-.34,1.24-.41,1.53a.69.69,0,0,1-.27.19c-.21,0-1.29-.08-3.78-.08-.48,0-1.45.07-1.93.07-.22,0-.38-.05-.38-.16s.13-.21.32-.24c.68-.13.76-.34.81-.9,0-.31.07-1.29.07-3,0-1.53,0-1.83,0-2.24s-.07-.66-.62-.81c-.24-.06-.35-.16-.35-.25s.16-.18.37-.18,1,0,1.38,0,1.34-.07,1.63-.07.41.07.41.15-.16.24-.26.26c-.64.16-.74.36-.75.49a35.6,35.6,0,0,0-.1,3.7c0,.8,0,1.72.05,2.16a.61.61,0,0,0,.47.47,5.81,5.81,0,0,0,.95.08,4.46,4.46,0,0,0,.88-.09.66.66,0,0,0,.32-.13,5.14,5.14,0,0,0,.82-1,.54.54,0,0,1,.34-.25C457.51,487.29,457.53,487.44,457.47,487.62Zm9.39-5.43c-.6.13-.75.37-.75,1.11,0,.58-.07,2-.1,2.64-.09,2-.71,2.68-1.54,3.16a3.17,3.17,0,0,1-1.57.37,3.32,3.32,0,0,1-2.27-.73c-.66-.62-.93-1.25-.93-3.09,0-.5-.05-2.77-.06-2.91s-.12-.43-.57-.53c-.13,0-.34-.13-.34-.24s.15-.18.36-.18c.5,0,1,0,1.46,0s1.2,0,1.46,0,.34.09.34.18-.14.21-.36.25c-.43.09-.53.24-.61.7s0,1.47,0,3.14c0,1.38.28,1.75.67,2.14a2.55,2.55,0,0,0,1.31.47,1.8,1.8,0,0,0,2-1.5,17.59,17.59,0,0,0,.2-3.4,3.9,3.9,0,0,0-.06-1c0-.3-.3-.49-.79-.62-.12,0-.35-.12-.35-.25s.13-.15.35-.15.74,0,1.12,0,.78,0,1.11,0,.29.09.29.18S467,482.15,466.86,482.19Zm9.44,0c-.6.13-.75.37-.75,1.11,0,.58-.07,2-.1,2.64-.09,2-.7,2.68-1.54,3.16a3.12,3.12,0,0,1-1.57.37,3.32,3.32,0,0,1-2.27-.73c-.66-.62-.93-1.25-.93-3.09,0-.5-.05-2.77-.06-2.91s-.12-.43-.57-.53c-.13,0-.34-.13-.34-.24s.15-.18.37-.18c.49,0,1,0,1.45,0s1.2,0,1.46,0,.35.09.35.18-.15.21-.37.25c-.43.09-.53.24-.6.7s-.05,1.47-.05,3.14c0,1.38.28,1.75.67,2.14a2.55,2.55,0,0,0,1.31.47,1.8,1.8,0,0,0,2-1.5,17.59,17.59,0,0,0,.2-3.4,3.9,3.9,0,0,0-.06-1c0-.3-.3-.49-.79-.62-.12,0-.34-.12-.34-.25s.13-.15.34-.15.74,0,1.12,0,.78,0,1.11,0,.3.09.3.18S476.47,482.15,476.3,482.19Zm9.49,7c0,.13-.15.19-.42.19s-1.76-.08-2.24-.08-.87.07-1,.07-.3-.1-.3-.17.09-.17.29-.24l.32-.13s.07-.15,0-.19c-.16-.33-1.21-2.15-1.35-2.28s-.11,0-.13,0a13.16,13.16,0,0,0-1.1,1.48c-.44.74-.28.95.16,1.09.2.06.31.17.31.22s-.15.21-.31.21-.8-.05-1.2-.05-.89.07-1.16.07-.42-.07-.42-.15.15-.22.41-.28a2.68,2.68,0,0,0,1.34-.85c.27-.3,1.15-1.38,1.72-2.13a.17.17,0,0,0,0-.17,18.64,18.64,0,0,0-1.81-2.93,1.27,1.27,0,0,0-.94-.59c-.22,0-.37-.17-.35-.26s.11-.18.35-.18,1.43,0,1.85,0,.68,0,1.05,0,.37.06.37.14-.14.24-.39.33a.22.22,0,0,0-.12.32,17.92,17.92,0,0,0,1.1,1.89.07.07,0,0,0,.12,0,22,22,0,0,0,1.36-1.88c.09-.16-.08-.31-.41-.39a.34.34,0,0,1-.3-.26c0-.09.07-.16.3-.16s.71,0,1,0,1,0,1.31,0,.31,0,.31.13-.18.22-.31.26a2.66,2.66,0,0,0-1.59.87c-.5.59-.94,1.06-1.44,1.76a.28.28,0,0,0,0,.19,27.11,27.11,0,0,0,1.65,2.71,2.53,2.53,0,0,0,1.66,1.22C485.75,489,485.81,489.1,485.79,489.15Zm9.07,0c0,.13-.15.19-.43.19s-1.75-.08-2.24-.08c-.34,0-.86.07-1,.07s-.29-.1-.29-.17.08-.17.28-.24l.32-.13a.22.22,0,0,0,0-.19c-.17-.33-1.22-2.15-1.36-2.28s-.1,0-.13,0a14.5,14.5,0,0,0-1.1,1.48c-.43.74-.28.95.17,1.09.2.06.31.17.31.22s-.16.21-.31.21c-.32,0-.8-.05-1.21-.05s-.88.07-1.15.07-.43-.07-.43-.15.16-.22.42-.28a2.61,2.61,0,0,0,1.33-.85c.27-.3,1.16-1.38,1.72-2.13a.18.18,0,0,0,0-.17,19.48,19.48,0,0,0-1.81-2.93,1.29,1.29,0,0,0-.94-.59c-.23,0-.37-.17-.36-.26s.12-.18.36-.18,1.42,0,1.85,0,.67,0,1.05,0,.36.06.36.14-.14.24-.38.33a.21.21,0,0,0-.12.32,16.3,16.3,0,0,0,1.1,1.89.07.07,0,0,0,.11,0,20,20,0,0,0,1.36-1.88c.09-.16-.07-.31-.4-.39a.34.34,0,0,1-.31-.26c0-.09.07-.16.31-.16s.71,0,1,0,1,0,1.31,0,.31,0,.31.13-.18.22-.31.26a2.69,2.69,0,0,0-1.6.87c-.49.59-.94,1.06-1.44,1.76a.36.36,0,0,0,0,.19,29.17,29.17,0,0,0,1.65,2.71,2.55,2.55,0,0,0,1.67,1.22C494.81,489,494.87,489.1,494.86,489.15Z" style="fill:url(#linear-gradient)"/><circle class="yorkshire section-area" cx="474.17" cy="487.37" r="39.86" style="fill:#3d576d;stroke:#0d2d49;stroke-miterlimit:10;stroke-width:2px;opacity:0.21"/><circle class="manchester section-area" cx="415.14" cy="524.41" r="48.63" style="fill:#3d576d;stroke:#0d2d49;stroke-miterlimit:10;stroke-width:2px;opacity:0.21"/><circle class="surrey section-area" cx="462.05" cy="716.94" r="18.65" style="fill:#3d576d;stroke:#0d2d49;stroke-miterlimit:10;stroke-width:2px;opacity:0.21"/><circle class="london section-area" cx="528.08" cy="700.06" r="41.3" style="fill:#3d576d;stroke:#0d2d49;stroke-miterlimit:10;stroke-width:2px;opacity:0.21"/><circle class="northumbria section-area" cx="454.36" cy="391.79" r="24.34" style="fill:#3d576d;stroke:#0d2d49;stroke-miterlimit:10;stroke-width:2px;opacity:0.21"/></g></g></svg>