<?xml version="1.0" encoding="utf-8"?>
<!-- Generator: Adobe Illustrator 25.2.1, SVG Export Plug-In . SVG Version: 6.00 Build 0)  -->
<svg version="1.1" id="Layer_1" focusable="false" xmlns="http://www.w3.org/2000/svg" xmlns:xlink="http://www.w3.org/1999/xlink"
	 x="0px" y="0px" viewBox="0 0 576 512" style="enable-background:new 0 0 576 512;" xml:space="preserve">
<style type="text/css">
	.st0{fill:#F05454;}
</style>
<path class="st0" d="M532,386.2c27.5-27.1,44-61.1,44-98.2c0-80-76.5-146.1-176.2-157.9C368.3,72.5,294.3,32,208,32
	C93.1,32,0,103.6,0,192c0,37,16.5,71,44,98.2c-15.3,30.7-37.3,54.5-37.7,54.9c-6.3,6.7-8.1,16.5-4.4,25c3.6,8.5,12,14,21.2,14
	c53.5,0,96.7-20.2,125.2-38.8c9.2,2.1,18.7,3.7,28.4,4.9C208.1,407.6,281.8,448,368,448c20.8,0,40.8-2.4,59.8-6.8
	C456.3,459.7,499.4,480,553,480c9.2,0,17.5-5.5,21.2-14c3.6-8.5,1.9-18.3-4.4-25C569.4,440.7,547.3,416.9,532,386.2z M139.2,293.9
	L122.1,305c-14.1,9.1-28.5,16.3-43.1,21.4c2.7-4.7,5.4-9.7,8-14.8l15.5-31.1L77.7,256C64.2,242.6,48,220.7,48,192
	c0-60.7,73.3-112,160-112s160,51.3,160,112s-73.3,112-160,112c-16.5,0-33-1.9-49-5.6L139.2,293.9L139.2,293.9z M498.3,352
	l-24.7,24.4l15.5,31.1c2.6,5.1,5.3,10.1,8,14.8c-14.6-5.1-29-12.3-43.1-21.4l-17.1-11.1l-19.9,4.6c-16,3.7-32.5,5.6-49,5.6
	c-54,0-102.2-20.1-131.3-49.7C338,339.5,416,272.9,416,192c0-3.4-0.4-6.7-0.7-10C479.7,196.5,528,238.8,528,288
	C528,316.7,511.8,338.6,498.3,352z"/>
</svg>
