<svg id="Layer_1" data-name="Layer 1" xmlns="http://www.w3.org/2000/svg" xmlns:xlink="http://www.w3.org/1999/xlink" viewBox="0 0 1920 1080"><defs><pattern id="LUUXX_-_Light_Blue_Name" data-name="LUUXX - Light Blue Name" width="110.55" height="110.55" patternTransform="translate(266.79 -440.46) scale(4)" patternUnits="userSpaceOnUse" viewBox="0 0 110.55 110.55"><rect width="110.55" height="110.55" style="fill:none"/><path d="M33,125.66c.29-.29.92-.85,1.23-1.16s1.12-1.23,1.38-1.48.4-.3.48-.23.06.34,0,.45c-.42.7-.33,1-.23,1.08.49.64,1.57,1.74,3.14,3.32.7.69,1.5,1.5,1.92,1.83a.77.77,0,0,0,.83,0,8.13,8.13,0,0,0,.89-.76,5.33,5.33,0,0,0,.69-.85.81.81,0,0,0,.16-.4,6.43,6.43,0,0,0-.17-1.6.66.66,0,0,1,.08-.51c.08-.08.22,0,.33.25.21.41.79,1.37,1,1.68a.74.74,0,0,1-.06.41c-.18.18-1.2,1-3.36,3.22-.42.41-1.21,1.32-1.62,1.74-.2.19-.38.29-.47.19s-.08-.28.06-.49c.48-.7.37-1-.08-1.49-.24-.29-1.07-1.18-2.6-2.71-1.33-1.33-1.6-1.6-2-1.94s-.64-.51-1.25-.16c-.26.15-.44.16-.52.09S32.81,125.85,33,125.66Z" style="fill:#8eaebf"/><path d="M40.05,119.1c.43-.43,1-.84,1.32-1.21s1-1.1,1.22-1.33.38-.21.47-.13,0,.3-.11.53c-.3.45-.25.67.09,1.14s1.24,1.32,2.69,2.77c1.2,1.21,1.77,1.28,2.45,1.28a3,3,0,0,0,1.55-.73,2.22,2.22,0,0,0,.44-3,22.54,22.54,0,0,0-2.79-3.14,5,5,0,0,0-.89-.78c-.31-.22-.69-.17-1.23.15-.14.07-.4.19-.52.08s0-.25.17-.43.7-.6,1-.93.62-.73.91-1,.34-.17.42-.09,0,.3-.1.47c-.41.64-.33,1,.31,1.63s1.71,1.83,2.22,2.39c1.63,1.79,1.72,3,1.41,4.1a3.86,3.86,0,0,1-1,1.69,4.14,4.14,0,0,1-2.61,1.34c-1.11,0-1.9-.28-3.51-1.89-.43-.43-2.45-2.36-2.58-2.48s-.49-.27-1,0c-.14.09-.41.19-.5.1S39.87,119.29,40.05,119.1Z" style="fill:#8eaebf"/><path d="M48.28,110.87c.43-.43.95-.84,1.32-1.21s1-1.1,1.22-1.33.38-.21.47-.13.05.3-.11.53c-.3.45-.25.67.09,1.14s1.24,1.32,2.69,2.77c1.2,1.21,1.77,1.28,2.45,1.28a3,3,0,0,0,1.55-.73,2.22,2.22,0,0,0,.44-3A22.54,22.54,0,0,0,55.61,107a5,5,0,0,0-.89-.78c-.31-.22-.69-.17-1.23.15-.14.07-.4.19-.52.08s0-.25.17-.43.7-.6,1-.93.62-.73.91-1,.34-.17.42-.09,0,.3-.1.47c-.41.64-.33,1,.31,1.63s1.71,1.83,2.22,2.39c1.63,1.79,1.72,3,1.41,4.1a3.86,3.86,0,0,1-1.05,1.69,4.14,4.14,0,0,1-2.61,1.34c-1.11,0-1.9-.28-3.51-1.89-.43-.43-2.45-2.36-2.58-2.48s-.49-.27-1,0c-.14.09-.41.19-.5.1S48.1,111.06,48.28,110.87Z" style="fill:#8eaebf"/><path d="M56.51,102.64c.21-.2,1.3-1.19,1.67-1.56s.55-.62.88-1,.37-.26.45-.19.08.33-.06.63,0,.3.18.38a22.3,22.3,0,0,0,2.6.69.1.1,0,0,0,.12-.1,25.85,25.85,0,0,0-.46-2.82c-.06-.22-.34-.21-.69,0a.43.43,0,0,1-.49,0c-.08-.09-.08-.21.12-.42s.65-.58.94-.87.84-.95,1.09-1.19.3-.24.38-.16,0,.35,0,.5a3.37,3.37,0,0,0-.63,2.15c.08.94.1,1.74.28,2.78,0,0,.07.16.14.19a33.64,33.64,0,0,0,3.81.92,3.05,3.05,0,0,0,2.51-.39c.24-.15.4-.09.43,0s0,.3-.2.54-1.61,1.46-2,1.88-.69.81-.83,1-.34.17-.4.11-.09-.23,0-.46a3.63,3.63,0,0,0,.16-.39.26.26,0,0,0-.12-.21c-.43-.14-2.93-.81-3.17-.8s-.13.06-.13.1a19,19,0,0,0,.34,2.25c.26,1,.58,1.07,1.1.81.22-.13.41-.13.46-.08s0,.31-.09.45c-.28.27-.75.66-1.1,1s-.71.83-.94,1.07-.43.3-.51.23-.05-.32.13-.59a3.29,3.29,0,0,0,.42-1.91c0-.5-.2-2.21-.36-3.36a.22.22,0,0,0-.13-.16,23.34,23.34,0,0,0-4.13-1,1.58,1.58,0,0,0-1.34.3c-.23.16-.47.17-.53.09S56.31,102.85,56.51,102.64Z" style="fill:#8eaebf"/><path d="M64.41,94.74c.21-.2,1.3-1.19,1.67-1.56s.55-.62.88-1,.37-.27.45-.19.08.33,0,.62,0,.31.17.39a21.19,21.19,0,0,0,2.6.68.09.09,0,0,0,.12-.09,25.46,25.46,0,0,0-.46-2.82c-.06-.22-.34-.21-.69,0a.4.4,0,0,1-.49,0c-.08-.08-.08-.2.12-.41s.65-.58.94-.87.84-1,1.09-1.2.3-.23.38-.15,0,.35,0,.49a3.4,3.4,0,0,0-.63,2.15c.08,1,.11,1.75.28,2.79,0,0,.07.16.14.19a33.64,33.64,0,0,0,3.81.92,3,3,0,0,0,2.51-.39c.24-.15.4-.09.43,0s0,.3-.2.54-1.61,1.46-2,1.88-.69.81-.83,1-.34.17-.4.11-.09-.23,0-.46a3.63,3.63,0,0,0,.16-.39.26.26,0,0,0-.12-.21c-.43-.14-2.93-.81-3.17-.8s-.12.06-.12.1a15.59,15.59,0,0,0,.34,2.25c.25,1,.57,1.07,1.09.81.22-.13.41-.13.46-.08s0,.31-.09.45c-.28.27-.74.65-1.09,1s-.71.84-1,1.07-.43.31-.5.24-.06-.32.12-.6a3.24,3.24,0,0,0,.42-1.9c0-.5-.2-2.21-.36-3.36a.2.2,0,0,0-.13-.16,23.34,23.34,0,0,0-4.13-1,1.55,1.55,0,0,0-1.34.3c-.23.16-.47.17-.53.09S64.21,95,64.41,94.74Z" style="fill:#8eaebf"/><path d="M88.64,70.65c.29-.29.92-.86,1.23-1.17S91,68.26,91.24,68s.41-.3.48-.23a.39.39,0,0,1,0,.45c-.42.7-.33,1-.22,1.09a45.42,45.42,0,0,0,3.14,3.31c.69.7,1.5,1.5,1.92,1.83a.76.76,0,0,0,.82,0,8.13,8.13,0,0,0,.89-.76,5.37,5.37,0,0,0,.7-.85.83.83,0,0,0,.16-.39A6.46,6.46,0,0,0,99,70.85a.64.64,0,0,1,.07-.5c.09-.09.23,0,.33.24.22.41.8,1.37,1,1.69a.73.73,0,0,1-.07.4c-.18.19-1.2,1-3.36,3.22-.42.42-1.2,1.33-1.62,1.74-.19.2-.37.29-.47.2s-.08-.29.06-.5c.49-.69.38-1-.07-1.48-.25-.29-1.07-1.18-2.61-2.72-1.32-1.33-1.59-1.59-2-1.94S89.6,70.69,89,71c-.26.15-.44.16-.51.09S88.45,70.83,88.64,70.65Z" style="fill:#8eaebf"/><path d="M95.7,64.09c.43-.44.94-.85,1.31-1.22s1-1.1,1.23-1.32.38-.22.46-.14,0,.3-.1.54c-.3.44-.26.67.08,1.13s1.24,1.33,2.7,2.78c1.2,1.2,1.76,1.27,2.44,1.27a3,3,0,0,0,1.56-.73,2.21,2.21,0,0,0,.43-3A21.32,21.32,0,0,0,103,60.22a4.56,4.56,0,0,0-.88-.78c-.31-.23-.69-.18-1.24.14-.13.07-.4.2-.51.08s0-.24.16-.43.7-.6,1-.93.63-.73.92-1,.34-.18.42-.1,0,.3-.1.48c-.42.63-.33,1,.3,1.62s1.71,1.83,2.23,2.39c1.62,1.79,1.71,2.95,1.41,4.1a4,4,0,0,1-1.05,1.69,4.09,4.09,0,0,1-2.62,1.34c-1.11,0-1.9-.28-3.51-1.88-.43-.44-2.44-2.37-2.58-2.48s-.48-.28-1,0c-.15.08-.42.18-.51.09S95.51,64.27,95.7,64.09Z" style="fill:#8eaebf"/><path d="M103.93,55.86c.43-.44.94-.85,1.31-1.22s1-1.1,1.23-1.32.38-.22.46-.14,0,.3-.1.54c-.3.44-.26.67.08,1.13s1.24,1.33,2.7,2.78c1.2,1.2,1.76,1.27,2.44,1.27a3,3,0,0,0,1.56-.73,2.21,2.21,0,0,0,.43-3A21.32,21.32,0,0,0,111.25,52a4.56,4.56,0,0,0-.88-.78c-.31-.23-.69-.18-1.24.14-.13.07-.4.2-.51.08s0-.24.16-.43.7-.6,1-.93.63-.73.92-1,.34-.18.42-.1,0,.3-.1.48c-.42.63-.33,1,.3,1.62s1.71,1.83,2.23,2.39c1.62,1.79,1.71,2.95,1.41,4.1a4,4,0,0,1-1,1.69,4.09,4.09,0,0,1-2.62,1.34c-1.11,0-1.9-.28-3.51-1.88-.43-.44-2.44-2.37-2.58-2.48s-.48-.28-1,0c-.15.08-.42.18-.51.09S103.74,56,103.93,55.86Z" style="fill:#8eaebf"/><path d="M112.16,47.63c.2-.21,1.29-1.2,1.66-1.57s.56-.61.89-.94.37-.27.44-.2.08.33-.05.63a.27.27,0,0,0,.17.38,23.13,23.13,0,0,0,2.61.69.09.09,0,0,0,.11-.09,25,25,0,0,0-.45-2.82c-.07-.23-.34-.22-.69,0a.45.45,0,0,1-.5,0c-.08-.08-.08-.21.13-.41s.64-.59.93-.88.85-.94,1.09-1.19.3-.24.38-.16.05.35,0,.5a3.32,3.32,0,0,0-.62,2.15c.08.95.1,1.75.27,2.79a.4.4,0,0,0,.15.18,33,33,0,0,0,3.8.93,3.12,3.12,0,0,0,2.51-.39c.24-.16.41-.1.44,0s0,.29-.21.53-1.6,1.46-2,1.88-.69.82-.83,1-.34.18-.4.11-.08-.22,0-.46a3,3,0,0,0,.16-.39s-.06-.19-.12-.21c-.43-.14-2.93-.81-3.17-.8s-.12.06-.12.1a17.53,17.53,0,0,0,.34,2.26c.26,1,.57,1.07,1.09.8.23-.12.41-.12.46-.07s0,.31-.09.44c-.28.28-.74.66-1.09,1s-.71.83-1,1.07-.43.31-.5.24,0-.32.12-.6a3.29,3.29,0,0,0,.42-1.91c0-.5-.19-2.21-.36-3.36a.2.2,0,0,0-.13-.15,23.07,23.07,0,0,0-4.13-1,1.56,1.56,0,0,0-1.33.31c-.24.15-.48.16-.54.08S112,47.83,112.16,47.63Z" style="fill:#8eaebf"/><path d="M120.06,39.73c.2-.21,1.29-1.2,1.66-1.57s.56-.62.89-.94.37-.27.44-.2.08.33,0,.63a.27.27,0,0,0,.17.38,23.13,23.13,0,0,0,2.61.69.09.09,0,0,0,.11-.09,25,25,0,0,0-.45-2.82c-.06-.23-.34-.22-.69,0a.46.46,0,0,1-.5,0c-.08-.08-.08-.21.13-.41s.65-.59.93-.88.85-1,1.09-1.19.3-.24.39-.16,0,.35-.05.5a3.36,3.36,0,0,0-.62,2.15c.08.94.1,1.75.27,2.79a.4.4,0,0,0,.15.18,33,33,0,0,0,3.8.93,3.15,3.15,0,0,0,2.52-.39c.23-.16.4-.1.43,0s0,.29-.21.53-1.6,1.46-2,1.88-.68.82-.83,1-.34.17-.4.11-.08-.22,0-.46L130,42a.28.28,0,0,0-.13-.21c-.43-.14-2.93-.81-3.17-.8s-.12.06-.12.1a17.53,17.53,0,0,0,.34,2.26c.26,1,.58,1.07,1.09.8.23-.12.41-.12.46-.07s0,.31-.09.44c-.28.28-.74.66-1.09,1s-.71.83-1,1.07-.43.31-.5.23,0-.31.12-.59a3.21,3.21,0,0,0,.42-1.91c0-.5-.19-2.21-.36-3.36a.2.2,0,0,0-.13-.15,22.2,22.2,0,0,0-4.13-1,1.56,1.56,0,0,0-1.33.31c-.24.15-.48.16-.54.08S119.85,39.93,120.06,39.73Z" style="fill:#8eaebf"/><path d="M-6.63,55.86c.44-.44,1-.85,1.32-1.22s1-1.1,1.23-1.32.38-.22.46-.14.05.3-.1.54c-.3.44-.26.67.08,1.13s1.24,1.33,2.69,2.78C.26,58.83.82,58.9,1.5,58.9a3,3,0,0,0,1.56-.73,2.21,2.21,0,0,0,.43-3A21.32,21.32,0,0,0,.7,52a4.56,4.56,0,0,0-.88-.78c-.31-.23-.69-.18-1.24.14-.13.07-.4.2-.51.08s0-.24.16-.43.7-.6,1-.93.63-.73.92-1,.33-.18.42-.1,0,.3-.11.48c-.41.63-.32,1,.31,1.62S2.51,52.89,3,53.45c1.62,1.79,1.71,2.95,1.4,4.1a3.85,3.85,0,0,1-1,1.69A4.09,4.09,0,0,1,.77,60.58c-1.11,0-1.9-.28-3.51-1.88-.43-.44-2.44-2.37-2.58-2.48s-.48-.28-1,0c-.14.08-.41.18-.5.09S-6.81,56-6.63,55.86Z" style="fill:#8eaebf"/><path d="M1.6,47.63c.21-.21,1.3-1.2,1.67-1.57s.56-.61.89-.94.37-.27.44-.2.08.33,0,.63,0,.31.17.38a23.46,23.46,0,0,0,2.6.69.09.09,0,0,0,.12-.09A25,25,0,0,0,7,43.71c-.07-.23-.34-.22-.69,0a.45.45,0,0,1-.5,0c-.08-.08-.08-.21.13-.41s.64-.59.93-.88.85-.94,1.09-1.19.3-.24.38-.16,0,.35,0,.5a3.39,3.39,0,0,0-.63,2.15c.09.95.11,1.75.28,2.79a.34.34,0,0,0,.15.18,33,33,0,0,0,3.8.93,3.12,3.12,0,0,0,2.51-.39c.24-.16.4-.1.44,0s0,.29-.21.53-1.61,1.46-2,1.88-.69.82-.83,1-.34.18-.4.11-.08-.22,0-.46a3,3,0,0,0,.16-.39.27.27,0,0,0-.12-.21c-.43-.14-2.93-.81-3.17-.8s-.12.06-.12.1a15.94,15.94,0,0,0,.34,2.26c.25,1,.57,1.07,1.09.8.22-.12.41-.12.46-.07s0,.31-.09.44-.74.66-1.09,1-.71.83-.95,1.07-.43.31-.5.24,0-.32.12-.6A3.29,3.29,0,0,0,8,52.2c0-.5-.19-2.21-.36-3.36a.2.2,0,0,0-.13-.15,23.07,23.07,0,0,0-4.13-1A1.56,1.56,0,0,0,2,48c-.24.15-.48.16-.54.08S1.4,47.83,1.6,47.63Z" style="fill:#8eaebf"/><path d="M9.51,39.73c.2-.21,1.29-1.2,1.66-1.57s.56-.62.89-.94.37-.27.44-.2.08.33-.05.63a.27.27,0,0,0,.17.38,23.13,23.13,0,0,0,2.61.69.09.09,0,0,0,.11-.09,25,25,0,0,0-.45-2.82c-.07-.23-.34-.22-.69,0a.45.45,0,0,1-.5,0c-.08-.08-.08-.21.13-.41s.64-.59.93-.88.85-1,1.09-1.19.3-.24.38-.16.05.35,0,.5a3.3,3.3,0,0,0-.62,2.15c.08.94.1,1.75.27,2.79a.34.34,0,0,0,.15.18,33,33,0,0,0,3.8.93,3.12,3.12,0,0,0,2.51-.39c.24-.16.41-.1.44,0s0,.29-.21.53-1.6,1.46-2,1.88-.69.82-.83,1-.34.17-.4.11-.08-.22,0-.46a3.63,3.63,0,0,0,.16-.39.27.27,0,0,0-.12-.21c-.43-.14-2.93-.81-3.17-.8s-.12.06-.12.1a15.94,15.94,0,0,0,.34,2.26c.26,1,.57,1.07,1.09.8.23-.12.41-.12.46-.07s0,.31-.09.44c-.28.28-.74.66-1.09,1s-.71.83-1,1.07-.43.31-.5.23-.05-.31.12-.59a3.29,3.29,0,0,0,.42-1.91c0-.5-.19-2.21-.36-3.36a.2.2,0,0,0-.13-.15,22.2,22.2,0,0,0-4.13-1,1.56,1.56,0,0,0-1.33.31c-.24.15-.48.16-.54.08S9.3,39.93,9.51,39.73Z" style="fill:#8eaebf"/><path d="M33,15.11c.29-.29.92-.85,1.23-1.17s1.12-1.22,1.38-1.47.4-.3.48-.23.06.34,0,.45c-.42.7-.33,1-.23,1.08.49.64,1.57,1.74,3.14,3.31.7.7,1.5,1.5,1.92,1.84a.77.77,0,0,0,.83,0,8.13,8.13,0,0,0,.89-.76,5.81,5.81,0,0,0,.69-.85.81.81,0,0,0,.16-.4,6.43,6.43,0,0,0-.17-1.6.66.66,0,0,1,.08-.51c.08-.08.22,0,.33.25.21.41.79,1.37,1,1.68a.75.75,0,0,1-.06.41c-.18.18-1.2,1.05-3.36,3.21-.42.42-1.21,1.33-1.62,1.75-.2.19-.38.29-.47.19s-.08-.29.06-.49c.48-.7.37-.95-.08-1.49-.24-.29-1.07-1.18-2.6-2.71-1.33-1.33-1.6-1.6-2-1.94s-.64-.51-1.25-.16c-.26.15-.44.16-.52.08S32.81,15.29,33,15.11Z" style="fill:#8eaebf"/><path d="M40.05,8.55c.43-.43,1-.84,1.32-1.21s1-1.1,1.22-1.33.38-.22.47-.13,0,.3-.11.53c-.3.44-.25.67.09,1.13s1.24,1.33,2.69,2.78c1.2,1.21,1.77,1.28,2.45,1.28a3,3,0,0,0,1.55-.73,2.22,2.22,0,0,0,.44-3,22.54,22.54,0,0,0-2.79-3.14,4.08,4.08,0,0,0-.89-.78c-.31-.22-.69-.17-1.23.15-.14.07-.4.19-.52.08s0-.25.17-.43.7-.6,1-.93.62-.73.91-1,.34-.17.42-.09,0,.3-.1.47c-.41.64-.33,1,.31,1.63s1.71,1.83,2.22,2.38c1.63,1.79,1.72,3,1.41,4.11a3.86,3.86,0,0,1-1,1.69,4.07,4.07,0,0,1-2.61,1.33c-1.11.05-1.9-.27-3.51-1.88C43.51,11,41.49,9,41.36,8.91a.72.72,0,0,0-1,0c-.14.09-.41.19-.5.1S39.87,8.74,40.05,8.55Z" style="fill:#8eaebf"/><path d="M48.28.32c.43-.43.95-.84,1.32-1.21s1-1.1,1.22-1.33.38-.22.47-.13.05.3-.11.53c-.3.44-.25.67.09,1.13S52.51.64,54,2.09c1.2,1.21,1.77,1.28,2.45,1.28A3,3,0,0,0,58,2.64,2.22,2.22,0,0,0,58.4-.41a22.54,22.54,0,0,0-2.79-3.14,4.08,4.08,0,0,0-.89-.78c-.31-.22-.69-.17-1.23.15-.14.07-.4.19-.52.08s0-.25.17-.43.7-.6,1-.93.62-.73.91-1,.34-.17.42-.09,0,.3-.1.47c-.41.64-.33,1,.31,1.63s1.71,1.83,2.22,2.38C59.56-.3,59.65.87,59.34,2a3.86,3.86,0,0,1-1.05,1.69A4.07,4.07,0,0,1,55.68,5c-1.11,0-1.9-.27-3.51-1.88C51.74,2.73,49.72.8,49.59.68a.72.72,0,0,0-1,0c-.14.09-.41.19-.5.1S48.1.51,48.28.32Z" style="fill:#8eaebf"/></pattern></defs><rect width="1920" height="1080" style="fill:#c7d7df"/><rect width="1920" height="1080" style="opacity:0.3;fill:url(#LUUXX_-_Light_Blue_Name)"/></svg>