<?xml version="1.0" encoding="utf-8"?>
<!-- Generator: Adobe Illustrator 25.2.1, SVG Export Plug-In . SVG Version: 6.00 Build 0)  -->
<svg version="1.1" id="Layer_1" xmlns="http://www.w3.org/2000/svg" xmlns:xlink="http://www.w3.org/1999/xlink" x="0px" y="0px"
	 viewBox="0 0 1920 1080" style="enable-background:new 0 0 1920 1080;" xml:space="preserve">
<style type="text/css">
	.st0{fill:none;}
	.st1{fill:#F5F5F5;}
	.st2{fill:#FFFFFF;}
	.st3{opacity:0.75;fill:url(#SVGID_1_);}
</style>
<pattern  y="1080" width="110.6" height="110.6" patternUnits="userSpaceOnUse" id="LUUXX_-_Off_White_Name" viewBox="6.8 -132.9 110.6 110.6" style="overflow:visible;">
	<g>
		<rect x="6.8" y="-132.9" class="st0" width="110.6" height="110.6"/>
		<g>
			<g>
				<path class="st1" d="M39.8-7.2c0.3-0.3,0.9-0.9,1.2-1.2c0.4-0.4,1.1-1.2,1.4-1.5c0.3-0.3,0.4-0.3,0.5-0.2c0.1,0.1,0.1,0.3,0,0.4
					c-0.4,0.7-0.3,1-0.2,1.1c0.5,0.6,1.6,1.7,3.1,3.3c0.7,0.7,1.5,1.5,1.9,1.8c0.3,0.3,0.8,0,0.8,0c0.2-0.1,0.6-0.5,0.9-0.8
					C49.6-4.4,50-4.8,50.1-5c0.1-0.1,0.2-0.3,0.2-0.4c0-0.3,0-0.8-0.2-1.6c0-0.2,0-0.4,0.1-0.5c0.1-0.1,0.2,0,0.3,0.2
					c0.2,0.4,0.8,1.4,1,1.7c0,0,0,0.4-0.1,0.4C51.3-5,50.2-4.1,48.1-2c-0.4,0.4-1.2,1.3-1.6,1.7C46.3,0,46.1,0.1,46,0
					c-0.1-0.1-0.1-0.3,0.1-0.5c0.5-0.7,0.4-1-0.1-1.5c-0.2-0.3-1.1-1.2-2.6-2.7c-1.3-1.3-1.6-1.6-2-1.9c-0.4-0.4-0.6-0.5-1.3-0.2
					c-0.3,0.2-0.4,0.2-0.5,0.1C39.5-6.9,39.6-7,39.8-7.2z"/>
				<path class="st1" d="M46.9-13.8c0.4-0.4,0.9-0.8,1.3-1.2c0.4-0.4,1-1.1,1.2-1.3c0.2-0.2,0.4-0.2,0.5-0.1
					c0.1,0.1,0.1,0.3-0.1,0.5c-0.3,0.4-0.3,0.7,0.1,1.1c0.3,0.4,1.2,1.3,2.7,2.8c1.2,1.2,1.8,1.3,2.4,1.3c0.6,0,1.4-0.5,1.6-0.7
					c0.7-0.7,1.3-1.7,0.4-3c-0.4-0.7-1.2-1.6-2.8-3.1c-0.7-0.7-0.8-0.7-0.9-0.8c-0.3-0.2-0.7-0.2-1.2,0.1c-0.1,0.1-0.4,0.2-0.5,0.1
					c-0.1-0.1,0-0.2,0.2-0.4c0.2-0.2,0.7-0.6,1-0.9c0.4-0.4,0.6-0.7,0.9-1c0.2-0.2,0.3-0.2,0.4-0.1c0.1,0.1,0,0.3-0.1,0.5
					c-0.4,0.6-0.3,1,0.3,1.6c0.5,0.5,1.7,1.8,2.2,2.4c1.6,1.8,1.7,3,1.4,4.1c-0.2,0.7-0.7,1.3-1,1.7c-0.9,0.9-1.9,1.3-2.6,1.3
					c-1.1,0-1.9-0.3-3.5-1.9c-0.4-0.4-2.4-2.4-2.6-2.5c-0.2-0.2-0.5-0.3-1,0c-0.1,0.1-0.4,0.2-0.5,0.1
					C46.6-13.4,46.7-13.6,46.9-13.8z"/>
				<path class="st1" d="M55.1-22c0.4-0.4,0.9-0.8,1.3-1.2c0.4-0.4,1-1.1,1.2-1.3c0.2-0.2,0.4-0.2,0.5-0.1c0.1,0.1,0.1,0.3-0.1,0.5
					c-0.3,0.4-0.3,0.7,0.1,1.1c0.3,0.4,1.2,1.3,2.7,2.8C62-19,62.5-19,63.2-19c0.6,0,1.4-0.5,1.6-0.7c0.7-0.7,1.3-1.7,0.4-3
					c-0.4-0.7-1.2-1.6-2.8-3.1c-0.7-0.7-0.8-0.7-0.9-0.8c-0.3-0.2-0.7-0.2-1.2,0.1c-0.1,0.1-0.4,0.2-0.5,0.1c-0.1-0.1,0-0.2,0.2-0.4
					c0.2-0.2,0.7-0.6,1-0.9c0.4-0.4,0.6-0.7,0.9-1c0.2-0.2,0.3-0.2,0.4-0.1c0.1,0.1,0,0.3-0.1,0.5c-0.4,0.6-0.3,1,0.3,1.6
					c0.5,0.5,1.7,1.8,2.2,2.4c1.6,1.8,1.7,3,1.4,4.1c-0.2,0.7-0.7,1.3-1,1.7c-0.9,0.9-1.9,1.3-2.6,1.3c-1.1,0-1.9-0.3-3.5-1.9
					c-0.4-0.4-2.4-2.4-2.6-2.5c-0.2-0.2-0.5-0.3-1,0c-0.1,0.1-0.4,0.2-0.5,0.1C54.9-21.6,54.9-21.8,55.1-22z"/>
				<path class="st1" d="M63.3-30.2c0.2-0.2,1.3-1.2,1.7-1.6c0.4-0.4,0.6-0.6,0.9-0.9c0.2-0.2,0.4-0.3,0.4-0.2
					c0.1,0.1,0.1,0.3-0.1,0.6c-0.1,0.2,0,0.3,0.2,0.4c0.5,0.2,1.6,0.5,2.6,0.7c0.1,0,0.1-0.1,0.1-0.1c-0.1-0.6-0.3-2.2-0.5-2.8
					c-0.1-0.2-0.3-0.2-0.7,0c-0.2,0.2-0.4,0.1-0.5,0c-0.1-0.1-0.1-0.2,0.1-0.4c0.3-0.3,0.6-0.6,0.9-0.9c0.3-0.3,0.8-0.9,1.1-1.2
					c0.1-0.1,0.3-0.2,0.4-0.2c0.1,0.1,0,0.3,0,0.5c-0.5,0.8-0.7,1.3-0.6,2.2c0.1,0.9,0.1,1.7,0.3,2.8c0,0,0.1,0.2,0.1,0.2
					c0.4,0.2,2.6,0.7,3.8,0.9c0.9,0.2,1.5,0.2,2.5-0.4c0.2-0.2,0.4-0.1,0.4,0c0.1,0.1,0,0.3-0.2,0.5c-0.2,0.2-1.6,1.5-2,1.9
					c-0.3,0.3-0.7,0.8-0.8,1c-0.2,0.2-0.3,0.2-0.4,0.1c-0.1-0.1-0.1-0.2,0-0.5c0.1-0.2,0.1-0.3,0.2-0.4c0-0.1-0.1-0.2-0.1-0.2
					C72.7-28.4,70.2-29,70-29c-0.1,0-0.1,0.1-0.1,0.1c0,0.6,0.2,1.7,0.3,2.3c0.3,1,0.6,1.1,1.1,0.8c0.2-0.1,0.4-0.1,0.5-0.1
					c0.1,0.1,0,0.3-0.1,0.4c-0.3,0.3-0.7,0.7-1.1,1c-0.4,0.4-0.7,0.8-0.9,1.1c-0.3,0.3-0.4,0.3-0.5,0.2c-0.1-0.2-0.1-0.3,0.1-0.6
					c0.4-0.6,0.5-1.4,0.4-1.9c0-0.5-0.2-2.2-0.4-3.4c0-0.1-0.1-0.1-0.1-0.2c-0.3-0.2-2.5-0.7-4.1-1c-0.6-0.1-0.9,0-1.3,0.3
					c-0.2,0.2-0.5,0.2-0.5,0.1C63.1-29.8,63.1-30,63.3-30.2z"/>
				<path class="st1" d="M71.2-38.1c0.2-0.2,1.3-1.2,1.7-1.6c0.4-0.4,0.6-0.6,0.9-0.9c0.2-0.2,0.4-0.3,0.4-0.2
					c0.1,0.1,0.1,0.3-0.1,0.6c-0.1,0.2,0,0.3,0.2,0.4c0.5,0.2,1.6,0.5,2.6,0.7c0.1,0,0.1-0.1,0.1-0.1c-0.1-0.6-0.3-2.2-0.5-2.8
					c-0.1-0.2-0.3-0.2-0.7,0c-0.2,0.2-0.4,0.1-0.5,0c-0.1-0.1-0.1-0.2,0.1-0.4c0.3-0.3,0.6-0.6,0.9-0.9c0.3-0.3,0.8-0.9,1.1-1.2
					c0.1-0.1,0.3-0.2,0.4-0.2c0.1,0.1,0,0.3,0,0.5c-0.5,0.8-0.7,1.3-0.6,2.2c0.1,0.9,0.1,1.7,0.3,2.8c0,0,0.1,0.2,0.1,0.2
					c0.4,0.2,2.6,0.7,3.8,0.9c0.9,0.2,1.5,0.2,2.5-0.4c0.2-0.2,0.4-0.1,0.4,0c0.1,0.1,0,0.3-0.2,0.5c-0.2,0.2-1.6,1.5-2,1.9
					c-0.3,0.3-0.7,0.8-0.8,1C81.2-35,81.1-35,81-35.1c-0.1-0.1-0.1-0.2,0-0.5c0.1-0.2,0.1-0.3,0.2-0.4c0-0.1-0.1-0.2-0.1-0.2
					c-0.4-0.1-2.9-0.8-3.2-0.8c-0.1,0-0.1,0.1-0.1,0.1c0,0.6,0.2,1.7,0.3,2.3c0.3,1,0.6,1.1,1.1,0.8c0.2-0.1,0.4-0.1,0.5-0.1
					c0.1,0.1,0,0.3-0.1,0.4c-0.3,0.3-0.7,0.7-1.1,1c-0.4,0.4-0.7,0.8-0.9,1.1C77.3-31,77.1-31,77-31.1c-0.1-0.2-0.1-0.3,0.1-0.6
					c0.4-0.6,0.5-1.4,0.4-1.9c0-0.5-0.2-2.2-0.4-3.4c0-0.1-0.1-0.1-0.1-0.2c-0.3-0.2-2.5-0.7-4.1-1c-0.6-0.1-0.9,0-1.3,0.3
					c-0.2,0.2-0.5,0.2-0.5,0.1C71-37.7,71-37.9,71.2-38.1z"/>
			</g>
			<g>
				<path class="st1" d="M95.5-62.2c0.3-0.3,0.9-0.9,1.2-1.2c0.4-0.4,1.1-1.2,1.4-1.5c0.3-0.3,0.4-0.3,0.5-0.2
					c0.1,0.1,0.1,0.3,0,0.4c-0.4,0.7-0.3,1-0.2,1.1c0.5,0.6,1.6,1.7,3.1,3.3c0.7,0.7,1.5,1.5,1.9,1.8c0.3,0.3,0.8,0,0.8,0
					c0.2-0.1,0.6-0.5,0.9-0.8c0.2-0.2,0.5-0.6,0.7-0.8c0.1-0.1,0.2-0.3,0.2-0.4c0-0.3,0-0.8-0.2-1.6c0-0.2,0-0.4,0.1-0.5
					c0.1-0.1,0.2,0,0.3,0.2c0.2,0.4,0.8,1.4,1,1.7c0,0,0,0.4-0.1,0.4c-0.2,0.2-1.2,1.1-3.4,3.2c-0.4,0.4-1.2,1.3-1.6,1.7
					c-0.2,0.2-0.4,0.3-0.5,0.2c-0.1-0.1-0.1-0.3,0.1-0.5c0.5-0.7,0.4-1-0.1-1.5c-0.2-0.3-1.1-1.2-2.6-2.7c-1.3-1.3-1.6-1.6-2-1.9
					c-0.4-0.4-0.6-0.5-1.3-0.2c-0.3,0.2-0.4,0.2-0.5,0.1C95.2-61.9,95.3-62.1,95.5-62.2z"/>
				<path class="st1" d="M102.5-68.8c0.4-0.4,0.9-0.8,1.3-1.2c0.4-0.4,1-1.1,1.2-1.3c0.2-0.2,0.4-0.2,0.5-0.1
					c0.1,0.1,0.1,0.3-0.1,0.5c-0.3,0.4-0.3,0.7,0.1,1.1c0.3,0.4,1.2,1.3,2.7,2.8c1.2,1.2,1.8,1.3,2.4,1.3c0.6,0,1.4-0.5,1.6-0.7
					c0.7-0.7,1.3-1.7,0.4-3c-0.4-0.7-1.2-1.6-2.8-3.1c-0.7-0.7-0.8-0.7-0.9-0.8c-0.3-0.2-0.7-0.2-1.2,0.1c-0.1,0.1-0.4,0.2-0.5,0.1
					c-0.1-0.1,0-0.2,0.2-0.4c0.2-0.2,0.7-0.6,1-0.9c0.4-0.4,0.6-0.7,0.9-1c0.2-0.2,0.3-0.2,0.4-0.1c0.1,0.1,0,0.3-0.1,0.5
					c-0.4,0.6-0.3,1,0.3,1.6c0.5,0.5,1.7,1.8,2.2,2.4c1.6,1.8,1.7,3,1.4,4.1c-0.2,0.7-0.7,1.3-1,1.7c-0.9,0.9-1.9,1.3-2.6,1.3
					c-1.1,0-1.9-0.3-3.5-1.9c-0.4-0.4-2.4-2.4-2.6-2.5c-0.2-0.2-0.5-0.3-1,0c-0.1,0.1-0.4,0.2-0.5,0.1
					C102.3-68.4,102.3-68.6,102.5-68.8z"/>
				<path class="st1" d="M110.7-77c0.4-0.4,0.9-0.8,1.3-1.2c0.4-0.4,1-1.1,1.2-1.3c0.2-0.2,0.4-0.2,0.5-0.1c0.1,0.1,0.1,0.3-0.1,0.5
					c-0.3,0.4-0.3,0.7,0.1,1.1c0.3,0.4,1.2,1.3,2.7,2.8c1.2,1.2,1.8,1.3,2.4,1.3c0.6,0,1.4-0.5,1.6-0.7c0.7-0.7,1.3-1.7,0.4-3
					c-0.4-0.7-1.2-1.6-2.8-3.1c-0.7-0.7-0.8-0.7-0.9-0.8c-0.3-0.2-0.7-0.2-1.2,0.1c-0.1,0.1-0.4,0.2-0.5,0.1c-0.1-0.1,0-0.2,0.2-0.4
					c0.2-0.2,0.7-0.6,1-0.9c0.4-0.4,0.6-0.7,0.9-1c0.2-0.2,0.3-0.2,0.4-0.1c0.1,0.1,0,0.3-0.1,0.5c-0.4,0.6-0.3,1,0.3,1.6
					c0.5,0.5,1.7,1.8,2.2,2.4c1.6,1.8,1.7,3,1.4,4.1c-0.2,0.7-0.7,1.3-1,1.7c-0.9,0.9-1.9,1.3-2.6,1.3c-1.1,0-1.9-0.3-3.5-1.9
					c-0.4-0.4-2.4-2.4-2.6-2.5c-0.2-0.2-0.5-0.3-1,0c-0.1,0.1-0.4,0.2-0.5,0.1C110.5-76.6,110.6-76.9,110.7-77z"/>
				<path class="st1" d="M119-85.3c0.2-0.2,1.3-1.2,1.7-1.6c0.4-0.4,0.6-0.6,0.9-0.9c0.2-0.2,0.4-0.3,0.4-0.2
					c0.1,0.1,0.1,0.3-0.1,0.6c-0.1,0.2,0,0.3,0.2,0.4c0.5,0.2,1.6,0.5,2.6,0.7c0.1,0,0.1-0.1,0.1-0.1c-0.1-0.6-0.3-2.2-0.5-2.8
					c-0.1-0.2-0.3-0.2-0.7,0c-0.2,0.2-0.4,0.1-0.5,0c-0.1-0.1-0.1-0.2,0.1-0.4c0.3-0.3,0.6-0.6,0.9-0.9c0.3-0.3,0.8-0.9,1.1-1.2
					c0.1-0.1,0.3-0.2,0.4-0.2c0.1,0.1,0,0.3,0,0.5c-0.5,0.8-0.7,1.3-0.6,2.2c0.1,0.9,0.1,1.7,0.3,2.8c0,0,0.1,0.2,0.1,0.2
					c0.4,0.2,2.6,0.7,3.8,0.9c0.9,0.2,1.5,0.2,2.5-0.4c0.2-0.2,0.4-0.1,0.4,0c0.1,0.1,0,0.3-0.2,0.5c-0.2,0.2-1.6,1.5-2,1.9
					c-0.3,0.3-0.7,0.8-0.8,1c-0.2,0.2-0.3,0.2-0.4,0.1c-0.1-0.1-0.1-0.2,0-0.5c0.1-0.2,0.1-0.3,0.2-0.4c0-0.1-0.1-0.2-0.1-0.2
					c-0.4-0.1-2.9-0.8-3.2-0.8c-0.1,0-0.1,0.1-0.1,0.1c0,0.6,0.2,1.7,0.3,2.3c0.3,1,0.6,1.1,1.1,0.8c0.2-0.1,0.4-0.1,0.5-0.1
					c0.1,0.1,0,0.3-0.1,0.4c-0.3,0.3-0.7,0.7-1.1,1c-0.4,0.4-0.7,0.8-0.9,1.1c-0.3,0.3-0.4,0.3-0.5,0.2c-0.1-0.2-0.1-0.3,0.1-0.6
					c0.4-0.6,0.5-1.4,0.4-1.9c0-0.5-0.2-2.2-0.4-3.4c0-0.1-0.1-0.1-0.1-0.2c-0.3-0.2-2.5-0.7-4.1-1c-0.6-0.1-0.9,0-1.3,0.3
					c-0.2,0.2-0.5,0.2-0.5,0.1C118.8-84.9,118.8-85.1,119-85.3z"/>
				<path class="st1" d="M126.9-93.2c0.2-0.2,1.3-1.2,1.7-1.6c0.4-0.4,0.6-0.6,0.9-0.9c0.2-0.2,0.4-0.3,0.4-0.2
					c0.1,0.1,0.1,0.3-0.1,0.6c-0.1,0.2,0,0.3,0.2,0.4c0.5,0.2,1.6,0.5,2.6,0.7c0.1,0,0.1-0.1,0.1-0.1c-0.1-0.6-0.3-2.2-0.5-2.8
					c-0.1-0.2-0.3-0.2-0.7,0c-0.2,0.2-0.4,0.1-0.5,0c-0.1-0.1-0.1-0.2,0.1-0.4c0.3-0.3,0.6-0.6,0.9-0.9c0.3-0.3,0.8-0.9,1.1-1.2
					c0.1-0.1,0.3-0.2,0.4-0.2c0.1,0.1,0,0.3,0,0.5c-0.5,0.8-0.7,1.3-0.6,2.2c0.1,0.9,0.1,1.7,0.3,2.8c0,0,0.1,0.2,0.1,0.2
					c0.4,0.2,2.6,0.7,3.8,0.9c0.9,0.2,1.5,0.2,2.5-0.4c0.2-0.2,0.4-0.1,0.4,0c0.1,0.1,0,0.3-0.2,0.5c-0.2,0.2-1.6,1.5-2,1.9
					c-0.3,0.3-0.7,0.8-0.8,1c-0.2,0.2-0.3,0.2-0.4,0.1c-0.1-0.1-0.1-0.2,0-0.5c0.1-0.2,0.1-0.3,0.2-0.4c0-0.1-0.1-0.2-0.1-0.2
					c-0.4-0.1-2.9-0.8-3.2-0.8c-0.1,0-0.1,0.1-0.1,0.1c0,0.6,0.2,1.7,0.3,2.3c0.3,1,0.6,1.1,1.1,0.8c0.2-0.1,0.4-0.1,0.5-0.1
					c0.1,0.1,0,0.3-0.1,0.4c-0.3,0.3-0.7,0.7-1.1,1c-0.4,0.4-0.7,0.8-0.9,1.1c-0.3,0.3-0.4,0.3-0.5,0.2c-0.1-0.2-0.1-0.3,0.1-0.6
					c0.4-0.6,0.5-1.4,0.4-1.9c0-0.5-0.2-2.2-0.4-3.4c0-0.1-0.1-0.1-0.1-0.2c-0.3-0.2-2.5-0.7-4.1-1c-0.6-0.1-0.9,0-1.3,0.3
					c-0.2,0.2-0.5,0.2-0.5,0.1C126.7-92.8,126.7-93,126.9-93.2z"/>
			</g>
		</g>
		<g>
			<g>
				<path class="st1" d="M0.2-77c0.4-0.4,0.9-0.8,1.3-1.2c0.4-0.4,1-1.1,1.2-1.3c0.2-0.2,0.4-0.2,0.5-0.1c0.1,0.1,0.1,0.3-0.1,0.5
					c-0.3,0.4-0.3,0.7,0.1,1.1c0.3,0.4,1.2,1.3,2.7,2.8C7.1-74.1,7.6-74,8.3-74c0.6,0,1.4-0.5,1.6-0.7c0.7-0.7,1.3-1.7,0.4-3
					c-0.4-0.7-1.2-1.6-2.8-3.1c-0.7-0.7-0.8-0.7-0.9-0.8c-0.3-0.2-0.7-0.2-1.2,0.1c-0.1,0.1-0.4,0.2-0.5,0.1c-0.1-0.1,0-0.2,0.2-0.4
					c0.2-0.2,0.7-0.6,1-0.9c0.4-0.4,0.6-0.7,0.9-1C7.2-84,7.3-84,7.4-83.9c0.1,0.1,0,0.3-0.1,0.5c-0.4,0.6-0.3,1,0.3,1.6
					c0.5,0.5,1.7,1.8,2.2,2.4c1.6,1.8,1.7,3,1.4,4.1c-0.2,0.7-0.7,1.3-1,1.7c-0.9,0.9-1.9,1.3-2.6,1.3c-1.1,0-1.9-0.3-3.5-1.9
					c-0.4-0.4-2.4-2.4-2.6-2.5c-0.2-0.2-0.5-0.3-1,0c-0.1,0.1-0.4,0.2-0.5,0.1C0-76.6,0-76.9,0.2-77z"/>
				<path class="st1" d="M8.4-85.3c0.2-0.2,1.3-1.2,1.7-1.6c0.4-0.4,0.6-0.6,0.9-0.9c0.2-0.2,0.4-0.3,0.4-0.2
					c0.1,0.1,0.1,0.3-0.1,0.6c-0.1,0.2,0,0.3,0.2,0.4c0.5,0.2,1.6,0.5,2.6,0.7c0.1,0,0.1-0.1,0.1-0.1c-0.1-0.6-0.3-2.2-0.5-2.8
					c-0.1-0.2-0.3-0.2-0.7,0c-0.2,0.2-0.4,0.1-0.5,0c-0.1-0.1-0.1-0.2,0.1-0.4c0.3-0.3,0.6-0.6,0.9-0.9c0.3-0.3,0.8-0.9,1.1-1.2
					c0.1-0.1,0.3-0.2,0.4-0.2c0.1,0.1,0,0.3,0,0.5c-0.5,0.8-0.7,1.3-0.6,2.2c0.1,0.9,0.1,1.7,0.3,2.8c0,0,0.1,0.2,0.1,0.2
					c0.4,0.2,2.6,0.7,3.8,0.9c0.9,0.2,1.5,0.2,2.5-0.4c0.2-0.2,0.4-0.1,0.4,0c0.1,0.1,0,0.3-0.2,0.5c-0.2,0.2-1.6,1.5-2,1.9
					c-0.3,0.3-0.7,0.8-0.8,1c-0.2,0.2-0.3,0.2-0.4,0.1c-0.1-0.1-0.1-0.2,0-0.5c0.1-0.2,0.1-0.3,0.2-0.4c0-0.1-0.1-0.2-0.1-0.2
					c-0.4-0.1-2.9-0.8-3.2-0.8C15-84,15-84,15-83.9c0,0.6,0.2,1.7,0.3,2.3c0.3,1,0.6,1.1,1.1,0.8c0.2-0.1,0.4-0.1,0.5-0.1
					c0.1,0.1,0,0.3-0.1,0.4c-0.3,0.3-0.7,0.7-1.1,1c-0.4,0.4-0.7,0.8-0.9,1.1c-0.3,0.3-0.4,0.3-0.5,0.2c-0.1-0.2-0.1-0.3,0.1-0.6
					c0.4-0.6,0.5-1.4,0.4-1.9c0-0.5-0.2-2.2-0.4-3.4c0-0.1-0.1-0.1-0.1-0.2c-0.3-0.2-2.5-0.7-4.1-1c-0.6-0.1-0.9,0-1.3,0.3
					c-0.2,0.2-0.5,0.2-0.5,0.1C8.2-84.9,8.2-85.1,8.4-85.3z"/>
				<path class="st1" d="M16.3-93.2c0.2-0.2,1.3-1.2,1.7-1.6c0.4-0.4,0.6-0.6,0.9-0.9c0.2-0.2,0.4-0.3,0.4-0.2
					c0.1,0.1,0.1,0.3-0.1,0.6c-0.1,0.2,0,0.3,0.2,0.4c0.5,0.2,1.6,0.5,2.6,0.7c0.1,0,0.1-0.1,0.1-0.1c-0.1-0.6-0.3-2.2-0.5-2.8
					c-0.1-0.2-0.3-0.2-0.7,0c-0.2,0.2-0.4,0.1-0.5,0c-0.1-0.1-0.1-0.2,0.1-0.4c0.3-0.3,0.6-0.6,0.9-0.9c0.3-0.3,0.8-0.9,1.1-1.2
					c0.1-0.1,0.3-0.2,0.4-0.2c0.1,0.1,0,0.3,0,0.5c-0.5,0.8-0.7,1.3-0.6,2.2c0.1,0.9,0.1,1.7,0.3,2.8c0,0,0.1,0.2,0.1,0.2
					c0.4,0.2,2.6,0.7,3.8,0.9c0.9,0.2,1.5,0.2,2.5-0.4c0.2-0.2,0.4-0.1,0.4,0c0.1,0.1,0,0.3-0.2,0.5c-0.2,0.2-1.6,1.5-2,1.9
					c-0.3,0.3-0.7,0.8-0.8,1c-0.2,0.2-0.3,0.2-0.4,0.1c-0.1-0.1-0.1-0.2,0-0.5c0.1-0.2,0.1-0.3,0.2-0.4c0-0.1-0.1-0.2-0.1-0.2
					c-0.4-0.1-2.9-0.8-3.2-0.8c-0.1,0-0.1,0.1-0.1,0.1c0,0.6,0.2,1.7,0.3,2.3c0.3,1,0.6,1.1,1.1,0.8c0.2-0.1,0.4-0.1,0.5-0.1
					c0.1,0.1,0,0.3-0.1,0.4c-0.3,0.3-0.7,0.7-1.1,1c-0.4,0.4-0.7,0.8-0.9,1.1c-0.3,0.3-0.4,0.3-0.5,0.2c-0.1-0.2-0.1-0.3,0.1-0.6
					c0.4-0.6,0.5-1.4,0.4-1.9c0-0.5-0.2-2.2-0.4-3.4c0-0.1-0.1-0.1-0.1-0.2c-0.3-0.2-2.5-0.7-4.1-1c-0.6-0.1-0.9,0-1.3,0.3
					c-0.2,0.2-0.5,0.2-0.5,0.1C16.1-92.8,16.1-93,16.3-93.2z"/>
			</g>
		</g>
		<g>
			<g>
				<path class="st1" d="M39.8-117.8c0.3-0.3,0.9-0.9,1.2-1.2c0.4-0.4,1.1-1.2,1.4-1.5c0.3-0.3,0.4-0.3,0.5-0.2
					c0.1,0.1,0.1,0.3,0,0.4c-0.4,0.7-0.3,1-0.2,1.1c0.5,0.6,1.6,1.7,3.1,3.3c0.7,0.7,1.5,1.5,1.9,1.8c0.3,0.3,0.8,0,0.8,0
					c0.2-0.1,0.6-0.5,0.9-0.8c0.2-0.2,0.5-0.6,0.7-0.8c0.1-0.1,0.2-0.3,0.2-0.4c0-0.3,0-0.8-0.2-1.6c0-0.2,0-0.4,0.1-0.5
					c0.1-0.1,0.2,0,0.3,0.2c0.2,0.4,0.8,1.4,1,1.7c0,0,0,0.4-0.1,0.4c-0.2,0.2-1.2,1.1-3.4,3.2c-0.4,0.4-1.2,1.3-1.6,1.7
					c-0.2,0.2-0.4,0.3-0.5,0.2c-0.1-0.1-0.1-0.3,0.1-0.5c0.5-0.7,0.4-1-0.1-1.5c-0.2-0.3-1.1-1.2-2.6-2.7c-1.3-1.3-1.6-1.6-2-1.9
					c-0.4-0.4-0.6-0.5-1.3-0.2c-0.3,0.2-0.4,0.2-0.5,0.1C39.5-117.4,39.6-117.6,39.8-117.8z"/>
				<path class="st1" d="M46.9-124.3c0.4-0.4,0.9-0.8,1.3-1.2c0.4-0.4,1-1.1,1.2-1.3c0.2-0.2,0.4-0.2,0.5-0.1
					c0.1,0.1,0.1,0.3-0.1,0.5c-0.3,0.4-0.3,0.7,0.1,1.1c0.3,0.4,1.2,1.3,2.7,2.8c1.2,1.2,1.8,1.3,2.4,1.3c0.6,0,1.4-0.5,1.6-0.7
					c0.7-0.7,1.3-1.7,0.4-3c-0.4-0.7-1.2-1.6-2.8-3.1c-0.7-0.7-0.8-0.7-0.9-0.8c-0.3-0.2-0.7-0.2-1.2,0.1c-0.1,0.1-0.4,0.2-0.5,0.1
					c-0.1-0.1,0-0.2,0.2-0.4c0.2-0.2,0.7-0.6,1-0.9c0.4-0.4,0.6-0.7,0.9-1c0.2-0.2,0.3-0.2,0.4-0.1c0.1,0.1,0,0.3-0.1,0.5
					c-0.4,0.6-0.3,1,0.3,1.6c0.5,0.5,1.7,1.8,2.2,2.4c1.6,1.8,1.7,3,1.4,4.1c-0.2,0.7-0.7,1.3-1,1.7c-0.9,0.9-1.9,1.3-2.6,1.3
					c-1.1,0-1.9-0.3-3.5-1.9c-0.4-0.4-2.4-2.4-2.6-2.5c-0.2-0.2-0.5-0.3-1,0c-0.1,0.1-0.4,0.2-0.5,0.1
					C46.6-123.9,46.7-124.2,46.9-124.3z"/>
				<path class="st1" d="M55.1-132.6c0.4-0.4,0.9-0.8,1.3-1.2c0.4-0.4,1-1.1,1.2-1.3c0.2-0.2,0.4-0.2,0.5-0.1
					c0.1,0.1,0.1,0.3-0.1,0.5c-0.3,0.4-0.3,0.7,0.1,1.1c0.3,0.4,1.2,1.3,2.7,2.8c1.2,1.2,1.8,1.3,2.4,1.3c0.6,0,1.4-0.5,1.6-0.7
					c0.7-0.7,1.3-1.7,0.4-3c-0.4-0.7-1.2-1.6-2.8-3.1c-0.7-0.7-0.8-0.7-0.9-0.8c-0.3-0.2-0.7-0.2-1.2,0.1c-0.1,0.1-0.4,0.2-0.5,0.1
					c-0.1-0.1,0-0.2,0.2-0.4c0.2-0.2,0.7-0.6,1-0.9c0.4-0.4,0.6-0.7,0.9-1c0.2-0.2,0.3-0.2,0.4-0.1c0.1,0.1,0,0.3-0.1,0.5
					c-0.4,0.6-0.3,1,0.3,1.6c0.5,0.5,1.7,1.8,2.2,2.4c1.6,1.8,1.7,3,1.4,4.1c-0.2,0.7-0.7,1.3-1,1.7c-0.9,0.9-1.9,1.3-2.6,1.3
					c-1.1,0-1.9-0.3-3.5-1.9c-0.4-0.4-2.4-2.4-2.6-2.5c-0.2-0.2-0.5-0.3-1,0c-0.1,0.1-0.4,0.2-0.5,0.1
					C54.9-132.2,54.9-132.4,55.1-132.6z"/>
			</g>
		</g>
	</g>
</pattern>
<rect class="st2" width="1920" height="1080"/>
<pattern  id="SVGID_1_" xlink:href="#LUUXX_-_Off_White_Name" patternTransform="matrix(4 0 0 4 21939.1504 25810.8711)">
</pattern>
<rect x="-0.2" y="-0.2" class="st3" width="1920" height="1080"/>
</svg>
