<?xml version="1.0" encoding="utf-8"?>
<!-- Generator: Adobe Illustrator 25.2.1, SVG Export Plug-In . SVG Version: 6.00 Build 0)  -->
<svg version="1.1" id="Layer_1" xmlns="http://www.w3.org/2000/svg" xmlns:xlink="http://www.w3.org/1999/xlink" x="0px" y="0px"
	 viewBox="0 0 1920 1080" style="enable-background:new 0 0 1920 1080;" xml:space="preserve">
<style type="text/css">
	.st0{fill:none;}
	.st1{clip-path:url(#SVGID_2_);fill:#0D2D49;}
	.st2{clip-path:url(#SVGID_4_);}
	.st3{fill:url(#SVGID_5_);}
</style>
<pattern  y="1080" width="72" height="72" patternUnits="userSpaceOnUse" id="Dots_-_LUUXX_Blue" viewBox="0.4 -72 72 72" style="overflow:visible;">
	<g>
		<rect x="0.4" y="-72" class="st0" width="72" height="72"/>
		<g>
			<defs>
				<rect id="SVGID_1_" x="0.4" y="-72" width="72" height="72"/>
			</defs>
			<clipPath id="SVGID_2_">
				<use xlink:href="#SVGID_1_"  style="overflow:visible;"/>
			</clipPath>
			<path class="st1" d="M21.4-3.1c-0.1,0-0.2,0-0.2,0.1c-0.1,0.1-0.1,0.4,0,0.5c0.1,0.1,0.4,0.1,0.5,0c0.1-0.1,0.1-0.1,0.1-0.2
				c0-0.1,0-0.2-0.1-0.2C21.5-3.1,21.4-3.1,21.4-3.1z"/>
			<path class="st1" d="M20.4-8.4C20.2-8.4,20-8.2,20-8c0,0,0,0,0,0c0,0.1,0,0.2,0.1,0.2c0.1,0.1,0.4,0.1,0.5,0
				c0.1-0.1,0.1-0.2,0.1-0.2c0-0.1,0-0.2-0.1-0.2C20.5-8.3,20.4-8.3,20.4-8.4z"/>
			<path class="st1" d="M20.6-10.6c-0.2,0-0.4,0.2-0.4,0.3c0,0.1,0,0.2,0.1,0.3c0.1,0.1,0.4,0.1,0.5,0c0.1-0.1,0.1-0.4,0-0.5
				C20.8-10.6,20.7-10.6,20.6-10.6z"/>
			<path class="st1" d="M15.6-10.6c-0.2,0-0.3,0.1-0.4,0.3c0,0,0,0,0,0c0,0.1,0,0.2,0.1,0.2c0.1,0.1,0.4,0.1,0.5,0
				c0.1-0.1,0.1-0.4,0-0.5C15.8-10.6,15.7-10.6,15.6-10.6z"/>
			<path class="st1" d="M23.1-20.1c-0.2,0-0.4,0.2-0.4,0.3c0,0.1,0,0.2,0.1,0.3c0.1,0.1,0.4,0.1,0.5,0c0.1-0.1,0.1-0.1,0.1-0.2
				C23.5-19.9,23.3-20.1,23.1-20.1C23.1-20.1,23.1-20.1,23.1-20.1z"/>
			<path class="st1" d="M15.6-23.1c-0.2,0-0.3,0.1-0.4,0.3c0,0,0,0,0,0c0,0.1,0,0.2,0.1,0.2c0.1,0.1,0.4,0.1,0.5,0
				c0.1-0.1,0.1-0.2,0.1-0.2C15.9-22.9,15.8-23.1,15.6-23.1C15.6-23.1,15.6-23.1,15.6-23.1L15.6-23.1z"/>
			<path class="st1" d="M14.4-24.1c-0.2,0-0.4,0.2-0.4,0.3c0,0.1,0,0.2,0.1,0.3c0.1,0.1,0.4,0.1,0.5,0c0.1-0.1,0.1-0.1,0.1-0.2
				c0-0.1,0-0.2-0.1-0.2C14.5-24.1,14.4-24.1,14.4-24.1z"/>
			<path class="st1" d="M24.4-27.1c-0.2,0-0.3,0.1-0.4,0.3c0,0,0,0,0,0c0,0.1,0,0.2,0.1,0.2c0.1,0.1,0.4,0.1,0.5,0
				c0.1-0.1,0.1-0.2,0.1-0.2c0-0.1,0-0.2-0.1-0.2C24.5-27.1,24.4-27.1,24.4-27.1z"/>
			<path class="st1" d="M31.1-25.9c-0.2,0-0.4,0.2-0.4,0.3c0,0.1,0,0.2,0.1,0.3c0.1,0.1,0.4,0.1,0.5,0c0.1-0.1,0.1-0.1,0.1-0.2
				C31.5-25.7,31.3-25.8,31.1-25.9C31.1-25.9,31.1-25.9,31.1-25.9z"/>
			<path class="st1" d="M31.6-23.4c-0.2,0-0.3,0.1-0.4,0.3c0,0,0,0,0,0c0,0.1,0,0.2,0.1,0.2c0.1,0.1,0.4,0.1,0.5,0
				c0.1-0.1,0.1-0.1,0.1-0.2c0-0.1,0-0.2-0.1-0.2C31.8-23.3,31.7-23.3,31.6-23.4z"/>
			<path class="st1" d="M29.6-18.4c-0.2,0-0.4,0.2-0.4,0.3c0,0.1,0,0.2,0.1,0.3c0.1,0.1,0.4,0.1,0.5,0c0.1-0.1,0.1-0.1,0.1-0.2
				C30-18.2,29.8-18.3,29.6-18.4C29.6-18.4,29.6-18.4,29.6-18.4z"/>
			<path class="st1" d="M34.4-19.9c-0.2,0-0.4,0.2-0.4,0.3c0,0.1,0,0.2,0.1,0.3c0.1,0.1,0.4,0.1,0.5,0c0.1-0.1,0.1-0.1,0.1-0.2
				C34.7-19.7,34.6-19.8,34.4-19.9C34.4-19.9,34.4-19.9,34.4-19.9z"/>
			<path class="st1" d="M31.9-14.9c-0.2,0-0.4,0.2-0.4,0.3c0,0.1,0,0.2,0.1,0.3c0.1,0.1,0.4,0.1,0.5,0c0.1-0.1,0.1-0.1,0.1-0.2
				C32.2-14.7,32.1-14.8,31.9-14.9C31.9-14.9,31.9-14.9,31.9-14.9z"/>
			<path class="st1" d="M32.1-11.9c-0.2,0-0.4,0.2-0.4,0.3c0,0.1,0,0.2,0.1,0.3c0.1,0.1,0.4,0.1,0.5,0c0.1-0.1,0.1-0.4,0-0.5
				C32.3-11.8,32.2-11.9,32.1-11.9z"/>
			<path class="st1" d="M32.6-7.1c-0.2,0-0.4,0.2-0.4,0.3c0,0.1,0,0.2,0.1,0.3c0.1,0.1,0.4,0.1,0.5,0c0.1-0.1,0.1-0.1,0.1-0.2
				C33-6.9,32.8-7.1,32.6-7.1C32.6-7.1,32.6-7.1,32.6-7.1z"/>
			<path class="st1" d="M32.4-3.1c-0.1,0-0.2,0-0.2,0.1C32-2.9,32-2.8,32-2.8c0,0.1,0,0.2,0.1,0.2c0.1,0.1,0.4,0.1,0.5,0
				c0.1-0.1,0.1-0.1,0.1-0.2c0-0.1,0-0.2-0.1-0.2C32.5-3.1,32.4-3.1,32.4-3.1z"/>
			<path class="st1" d="M34.4-1.4c-0.1,0-0.2,0-0.2,0.1C34-1.2,34-1.1,34-1c0,0.1,0,0.2,0.1,0.2c0.1,0.1,0.4,0.1,0.5,0
				c0.1-0.1,0.1-0.2,0.1-0.2c0-0.1,0-0.2-0.1-0.2C34.5-1.3,34.4-1.3,34.4-1.4z"/>
			<path class="st1" d="M41.9-7.1c-0.1,0-0.2,0-0.2,0.1c-0.1,0.1-0.1,0.2-0.1,0.2c0,0.1,0,0.2,0.1,0.2c0.1,0.1,0.4,0.1,0.5,0
				c0.1-0.1,0.1-0.2,0.1-0.2C42.2-6.9,42.1-7.1,41.9-7.1C41.9-7.1,41.9-7.1,41.9-7.1z"/>
			<path class="st1" d="M45.9-6.8c-0.1,0-0.2,0-0.2,0.1c-0.1,0.1-0.1,0.4,0,0.5c0.1,0.1,0.4,0.1,0.5,0c0.1-0.1,0.1-0.1,0.1-0.2
				C46.2-6.7,46.1-6.8,45.9-6.8C45.9-6.9,45.9-6.9,45.9-6.8z"/>
			<path class="st1" d="M42.9-13.6c-0.2,0-0.3,0.1-0.3,0.3c0,0,0,0,0,0c0,0.1,0,0.2,0.1,0.2c0.1,0.1,0.4,0.1,0.5,0
				c0.1-0.1,0.1-0.1,0.1-0.2C43.2-13.4,43.1-13.6,42.9-13.6C42.9-13.6,42.9-13.6,42.9-13.6z"/>
			<path class="st1" d="M47.4-14.4c-0.2,0-0.3,0.1-0.3,0.3c0,0,0,0,0,0c0,0.1,0,0.2,0.1,0.2c0.1,0.1,0.4,0.1,0.5,0
				c0.1-0.1,0.1-0.2,0.1-0.2c0-0.1,0-0.2-0.1-0.2C47.5-14.3,47.4-14.3,47.4-14.4z"/>
			<path class="st1" d="M47.4-16.4c-0.2,0-0.3,0.1-0.3,0.3c0,0,0,0,0,0c0,0.1,0,0.2,0.1,0.2c0.1,0.1,0.4,0.1,0.5,0
				c0.1-0.1,0.1-0.2,0.1-0.2c0-0.1,0-0.2-0.1-0.2C47.5-16.3,47.4-16.3,47.4-16.4z"/>
			<path class="st1" d="M39.4-20.9c-0.2,0-0.4,0.2-0.4,0.3c0,0.1,0,0.2,0.1,0.3c0.1,0.1,0.4,0.1,0.5,0c0.1-0.1,0.1-0.2,0.1-0.2
				C39.7-20.7,39.6-20.8,39.4-20.9C39.4-20.9,39.4-20.9,39.4-20.9z"/>
			<path class="st1" d="M50.6-13.6c-0.1,0-0.2,0-0.2,0.1c-0.1,0.1-0.1,0.4,0,0.5c0.1,0.1,0.4,0.1,0.5,0c0.1-0.1,0.1-0.4,0-0.5
				C50.8-13.6,50.7-13.6,50.6-13.6z"/>
			<path class="st1" d="M52.6-12.1c-0.1,0-0.2,0-0.2,0.1c-0.1,0.1-0.1,0.2-0.1,0.2c0,0.1,0,0.2,0.1,0.3c0.1,0.1,0.4,0.1,0.5,0
				c0.1-0.1,0.1-0.2,0.1-0.2C52.9-11.9,52.8-12.1,52.6-12.1C52.6-12.1,52.6-12.1,52.6-12.1L52.6-12.1z"/>
			<path class="st1" d="M55.1-11.1c-0.1,0-0.2,0-0.2,0.1c-0.1,0.1-0.1,0.2-0.1,0.2c0,0.1,0,0.2,0.1,0.2c0.1,0.1,0.4,0.1,0.5,0
				c0.1-0.1,0.1-0.1,0.1-0.2C55.5-10.9,55.3-11.1,55.1-11.1C55.1-11.1,55.1-11.1,55.1-11.1L55.1-11.1z"/>
			<path class="st1" d="M56.9-0.9c-0.1,0-0.2,0-0.2,0.1c-0.1,0.1-0.1,0.2-0.1,0.2c0,0.1,0,0.2,0.1,0.2c0.1,0.1,0.4,0.1,0.5,0
				c0.1-0.1,0.1-0.2,0.1-0.2c0-0.1,0-0.2-0.1-0.2C57-0.8,56.9-0.8,56.9-0.9z"/>
			<path class="st1" d="M68.4-3.1c-0.1,0-0.2,0-0.2,0.1C68-2.9,68-2.8,68-2.8c0,0.1,0,0.2,0.1,0.2c0.1,0.1,0.4,0.1,0.5,0
				c0.1-0.1,0.1-0.2,0.1-0.2c0-0.1,0-0.2-0.1-0.2C68.5-3.1,68.4-3.1,68.4-3.1z"/>
			<path class="st1" d="M68.4-10.4c-0.1,0-0.2,0-0.2,0.1C68-10.2,68-10.1,68-10c0,0.1,0,0.2,0.1,0.2c0.1,0.1,0.4,0.1,0.5,0
				c0.1-0.1,0.1-0.2,0.1-0.2c0-0.1,0-0.2-0.1-0.2C68.5-10.3,68.4-10.3,68.4-10.4z"/>
			<path class="st1" d="M64.6-12.4c-0.2,0-0.4,0.2-0.4,0.3c0,0.1,0,0.2,0.1,0.3c0.1,0.1,0.4,0.1,0.5,0c0.1-0.1,0.1-0.1,0.1-0.2
				C65-12.2,64.8-12.3,64.6-12.4C64.6-12.4,64.6-12.4,64.6-12.4z"/>
			<path class="st1" d="M65.6-15.9c-0.2,0-0.3,0.1-0.3,0.3c0,0,0,0,0,0c0,0.1,0,0.2,0.1,0.2c0.1,0.1,0.4,0.1,0.5,0
				c0.1-0.1,0.1-0.4,0-0.5C65.8-15.8,65.7-15.9,65.6-15.9z"/>
			<path class="st1" d="M64.4-19.9c-0.1,0-0.2,0-0.2,0.1C64-19.7,64-19.6,64-19.5c0,0.1,0,0.2,0.1,0.2c0.1,0.1,0.4,0.1,0.5,0
				c0.1-0.1,0.1-0.2,0.1-0.2c0-0.1,0-0.2-0.1-0.2C64.5-19.8,64.4-19.8,64.4-19.9z"/>
			<path class="st1" d="M66.6-19.9c-0.2,0-0.3,0.1-0.3,0.3c0,0,0,0,0,0c0,0.1,0,0.2,0.1,0.2c0.1,0.1,0.4,0.1,0.5,0
				c0.1-0.1,0.1-0.2,0.1-0.2C67-19.7,66.8-19.8,66.6-19.9C66.6-19.9,66.6-19.9,66.6-19.9z"/>
			<path class="st1" d="M68.4-21.4c-0.2,0-0.4,0.2-0.4,0.3c0,0.1,0,0.2,0.1,0.3c0.1,0.1,0.4,0.1,0.5,0c0.1-0.1,0.1-0.4,0-0.5
				C68.5-21.3,68.4-21.4,68.4-21.4z"/>
			<path class="st1" d="M7.4-52.3C7.2-52.4,7-52.2,7-52c0,0.1,0,0.2,0.1,0.3c0.1,0.1,0.4,0.1,0.5,0c0.1-0.1,0.1-0.4,0-0.5
				C7.5-52.3,7.4-52.4,7.4-52.3z"/>
			<path class="st1" d="M7.6-54.6c-0.2,0-0.4,0.2-0.4,0.3c0,0.1,0,0.2,0.1,0.3c0.1,0.1,0.4,0.1,0.5,0c0.1-0.1,0.1-0.4,0-0.5
				C7.8-54.6,7.7-54.6,7.6-54.6z"/>
			<path class="st1" d="M2.6-54.6c-0.1,0-0.2,0-0.2,0.1c-0.1,0.1-0.1,0.4,0,0.5c0.1,0.1,0.4,0.1,0.5,0c0.1-0.1,0.1-0.4,0-0.5
				C2.8-54.6,2.7-54.6,2.6-54.6z"/>
			<path class="st1" d="M10.1-64.1c-0.2,0-0.4,0.2-0.4,0.3c0,0.1,0,0.2,0.1,0.3c0.1,0.1,0.4,0.1,0.5,0c0.1-0.1,0.1-0.1,0.1-0.2
				C10.5-63.9,10.3-64.1,10.1-64.1C10.1-64.1,10.1-64.1,10.1-64.1z"/>
			<path class="st1" d="M1.4-68.1c-0.1,0-0.2,0-0.2,0.1c-0.1,0.1-0.1,0.4,0,0.5c0.1,0.1,0.4,0.1,0.5,0c0.1-0.1,0.1-0.4,0-0.5
				C1.5-68.1,1.4-68.1,1.4-68.1z"/>
			<path class="st1" d="M11.4-71.1c-0.2,0-0.4,0.2-0.4,0.3c0,0.1,0,0.2,0.1,0.3c0.1,0.1,0.4,0.1,0.5,0c0.1-0.1,0.1-0.4,0-0.5
				C11.5-71.1,11.4-71.1,11.4-71.1z"/>
			<path class="st1" d="M18.6-67.3c-0.2,0-0.3,0.1-0.4,0.3c0,0,0,0,0,0c0,0.1,0,0.2,0.1,0.2c0.1,0.1,0.4,0.1,0.5,0
				c0.1-0.1,0.1-0.2,0.1-0.2C19-67.2,18.8-67.3,18.6-67.3C18.6-67.4,18.6-67.4,18.6-67.3z"/>
			<path class="st1" d="M16.6-62.3c-0.2,0-0.4,0.2-0.4,0.3c0,0.1,0,0.2,0.1,0.3c0.1,0.1,0.4,0.1,0.5,0c0.1-0.1,0.1-0.4,0-0.5
				C16.8-62.3,16.7-62.4,16.6-62.3z"/>
			<path class="st1" d="M19.9-57.8c-0.2,0-0.3,0.1-0.4,0.3c0,0,0,0,0,0c0,0.1,0,0.2,0.1,0.2c0.1,0.1,0.4,0.1,0.5,0
				c0.1-0.1,0.1-0.2,0.1-0.2C20.2-57.7,20.1-57.8,19.9-57.8C19.9-57.9,19.9-57.9,19.9-57.8z"/>
			<path class="st1" d="M19.1-55.8c-0.2,0-0.3,0.1-0.4,0.3c0,0,0,0,0,0c0,0.1,0,0.2,0.1,0.2c0.1,0.1,0.4,0.1,0.5,0
				c0.1-0.1,0.1-0.2,0.1-0.2C19.5-55.7,19.3-55.8,19.1-55.8C19.1-55.9,19.1-55.9,19.1-55.8z"/>
			<path class="st1" d="M16.6-54.8c-0.2,0-0.3,0.1-0.4,0.3c0,0,0,0,0,0c0,0.1,0,0.2,0.1,0.2c0.1,0.1,0.4,0.1,0.5,0
				c0.1-0.1,0.1-0.2,0.1-0.2C17-54.7,16.8-54.8,16.6-54.8C16.6-54.9,16.6-54.9,16.6-54.8z"/>
			<path class="st1" d="M19.6-51.1c-0.2,0-0.3,0.1-0.4,0.3c0,0,0,0,0,0c0,0.1,0,0.2,0.1,0.2c0.1,0.1,0.4,0.1,0.5,0
				c0.1-0.1,0.1-0.2,0.1-0.2C19.9-50.9,19.8-51.1,19.6-51.1C19.6-51.1,19.6-51.1,19.6-51.1L19.6-51.1z"/>
			<path class="st1" d="M19.4-47.1c-0.2,0-0.4,0.2-0.4,0.3c0,0.1,0,0.2,0.1,0.3c0.1,0.1,0.4,0.1,0.5,0c0.1-0.1,0.1-0.4,0-0.5
				C19.5-47.1,19.4-47.1,19.4-47.1z"/>
			<path class="st1" d="M16.6-47.3c-0.2,0-0.4,0.2-0.4,0.3c0,0.1,0,0.2,0.1,0.3c0.1,0.1,0.4,0.1,0.5,0c0.1-0.1,0.1-0.4,0-0.5
				C16.8-47.3,16.7-47.4,16.6-47.3z"/>
			<path class="st1" d="M32.9-50.8c-0.2,0-0.3,0.1-0.3,0.3c0,0,0,0,0,0c0,0.1,0,0.2,0.1,0.2c0.1,0.1,0.4,0.1,0.5,0
				c0.1-0.1,0.1-0.1,0.1-0.2C33.2-50.7,33.1-50.8,32.9-50.8C32.9-50.9,32.9-50.9,32.9-50.8z"/>
			<path class="st1" d="M27.6-54.3c-0.2,0-0.4,0.2-0.4,0.3c0,0.1,0,0.2,0.1,0.3c0.1,0.1,0.4,0.1,0.5,0c0.1-0.1,0.1-0.4,0-0.5
				C27.8-54.3,27.7-54.4,27.6-54.3z"/>
			<path class="st1" d="M32.4-55.8c-0.2,0-0.4,0.2-0.4,0.3c0,0.1,0,0.2,0.1,0.3c0.1,0.1,0.4,0.1,0.5,0c0.1-0.1,0.1-0.4,0-0.5
				C32.5-55.8,32.4-55.9,32.4-55.8z"/>
			<path class="st1" d="M32.4-57.6c-0.1,0-0.2,0-0.2,0.1c-0.1,0.1-0.1,0.4,0,0.5c0,0,0,0,0,0c0.1,0.1,0.4,0.1,0.5,0
				c0.1-0.1,0.1-0.2,0.1-0.2C32.7-57.4,32.6-57.6,32.4-57.6C32.4-57.6,32.4-57.6,32.4-57.6L32.4-57.6z"/>
			<path class="st1" d="M34.4-58.3c-0.2,0-0.4,0.2-0.4,0.3c0,0.1,0,0.2,0.1,0.3c0.1,0.1,0.4,0.1,0.5,0c0.1-0.1,0.1-0.4,0-0.5
				C34.5-58.3,34.4-58.4,34.4-58.3z"/>
			<path class="st1" d="M26.4-64.8c-0.2,0-0.4,0.2-0.4,0.3c0,0.1,0,0.2,0.1,0.3c0.1,0.1,0.4,0.1,0.5,0c0.1-0.1,0.1-0.1,0.1-0.2
				C26.7-64.7,26.6-64.8,26.4-64.8C26.4-64.9,26.4-64.9,26.4-64.8z"/>
			<path class="st1" d="M36.4-56.3c-0.2,0-0.4,0.2-0.4,0.3c0,0.1,0,0.2,0.1,0.3c0.1,0.1,0.4,0.1,0.5,0c0.1-0.1,0.1-0.1,0.1-0.2
				C36.7-56.2,36.6-56.3,36.4-56.3C36.4-56.4,36.4-56.4,36.4-56.3z"/>
			<path class="st1" d="M39.6-56.1c-0.1,0-0.2,0-0.2,0.1c-0.1,0.1-0.1,0.2-0.1,0.2c0,0.1,0,0.2,0.1,0.2c0.1,0.1,0.4,0.1,0.5,0
				c0.1-0.1,0.1-0.4,0-0.5C39.8-56.1,39.7-56.1,39.6-56.1L39.6-56.1z"/>
			<path class="st1" d="M42.1-50.8c-0.2,0-0.4,0.2-0.4,0.3c0,0.1,0,0.2,0.1,0.3c0.1,0.1,0.4,0.1,0.5,0c0.1-0.1,0.1-0.4,0-0.5
				C42.3-50.8,42.2-50.9,42.1-50.8z"/>
			<path class="st1" d="M43.9-44.8c-0.1,0-0.2,0-0.2,0.1c-0.1,0.1-0.1,0.2-0.1,0.2c0,0.1,0,0.2,0.1,0.2c0.1,0.1,0.4,0.1,0.5,0
				c0.1-0.1,0.1-0.4,0-0.5C44-44.8,43.9-44.9,43.9-44.8z"/>
			<path class="st1" d="M51.4-50.6c-0.1,0-0.2,0-0.2,0.1C51-50.4,51-50.3,51-50.2c0,0.1,0,0.2,0.1,0.2c0.1,0.1,0.4,0.1,0.5,0
				c0.1-0.1,0.1-0.4,0-0.5C51.5-50.6,51.4-50.6,51.4-50.6z"/>
			<path class="st1" d="M52.4-46.6c-0.1,0-0.2,0-0.2,0.1C52-46.4,52-46.3,52-46.2c0,0.1,0,0.2,0.1,0.2c0.1,0.1,0.4,0.1,0.5,0
				c0.1-0.1,0.1-0.2,0.1-0.2C52.7-46.4,52.6-46.6,52.4-46.6C52.4-46.6,52.4-46.6,52.4-46.6z"/>
			<path class="st1" d="M55.4-47.1c-0.1,0-0.2,0-0.2,0.1C55-46.9,55-46.8,55-46.7c0,0.1,0,0.2,0.1,0.2c0.1,0.1,0.4,0.1,0.5,0
				c0.1-0.1,0.1-0.2,0.1-0.2C55.7-46.9,55.6-47.1,55.4-47.1C55.4-47.1,55.4-47.1,55.4-47.1z"/>
			<path class="st1" d="M55.4-54.3c-0.1,0-0.2,0-0.2,0.1C55-54.2,55-54.1,55-54c0,0.1,0,0.2,0.1,0.2c0.1,0.1,0.4,0.1,0.5,0
				c0.1-0.1,0.1-0.2,0.1-0.2C55.7-54.2,55.6-54.3,55.4-54.3C55.4-54.4,55.4-54.4,55.4-54.3z"/>
			<path class="st1" d="M51.6-56.3c-0.2,0-0.4,0.2-0.4,0.3c0,0.1,0,0.2,0.1,0.3c0.1,0.1,0.4,0.1,0.5,0c0.1-0.1,0.1-0.2,0.1-0.2
				c0-0.1,0-0.2-0.1-0.2C51.8-56.3,51.7-56.3,51.6-56.3z"/>
			<path class="st1" d="M51.4-63.8c-0.2,0-0.3,0.1-0.3,0.3c0,0,0,0,0,0c0,0.1,0,0.2,0.1,0.2c0.1,0.1,0.3,0.1,0.5,0c0,0,0,0,0,0
				c0.1-0.1,0.1-0.2,0.1-0.2c0-0.1,0-0.2-0.1-0.2C51.5-63.8,51.4-63.9,51.4-63.8z"/>
			<path class="st1" d="M53.6-63.8c-0.2,0-0.3,0.1-0.3,0.3c0,0,0,0,0,0c0,0.1,0,0.2,0.1,0.2c0.1,0.1,0.4,0.1,0.5,0
				c0.1-0.1,0.1-0.1,0.1-0.2C54-63.7,53.8-63.8,53.6-63.8C53.6-63.8,53.6-63.8,53.6-63.8L53.6-63.8z"/>
			<path class="st1" d="M56.4-63.1c-0.2,0-0.4,0.2-0.4,0.3c0,0.1,0,0.2,0.1,0.3c0.1,0.1,0.4,0.1,0.5,0c0.1-0.1,0.1-0.1,0.1-0.2
				C56.7-62.9,56.6-63.1,56.4-63.1C56.4-63.1,56.4-63.1,56.4-63.1z"/>
			<path class="st1" d="M58.6-61.6c-0.1,0-0.2,0-0.2,0.1c-0.1,0.1-0.1,0.2-0.1,0.2c0,0.1,0,0.2,0.1,0.2c0.1,0.1,0.4,0.1,0.5,0
				c0.1-0.1,0.1-0.2,0.1-0.2C59-61.4,58.8-61.6,58.6-61.6C58.6-61.6,58.6-61.6,58.6-61.6z"/>
			<path class="st1" d="M21.4-27.1c-0.2,0-0.4,0.2-0.4,0.3c0,0.1,0,0.2,0.1,0.3c0.1,0.1,0.4,0.1,0.5,0c0.1-0.1,0.1-0.1,0.1-0.2
				C21.7-26.9,21.6-27.1,21.4-27.1C21.4-27.1,21.4-27.1,21.4-27.1z"/>
			<path class="st1" d="M23.1-24.1c-0.2,0-0.4,0.2-0.4,0.3c0,0.1,0,0.2,0.1,0.3c0.1,0.1,0.4,0.1,0.5,0c0.1-0.1,0.1-0.4,0-0.5
				C23.3-24.1,23.2-24.1,23.1-24.1z"/>
			<path class="st1" d="M39.4-24.9c-0.2,0-0.4,0.2-0.4,0.3c0,0.1,0,0.2,0.1,0.3c0.1,0.1,0.4,0.1,0.5,0c0.1-0.1,0.1-0.4,0-0.5
				C39.5-24.8,39.4-24.9,39.4-24.9z"/>
			<path class="st1" d="M46.6-29.1c-0.1,0-0.2,0-0.2,0.1c-0.1,0.1-0.1,0.4,0,0.5c0.1,0.1,0.3,0.1,0.5,0c0,0,0,0,0,0
				c0.1-0.1,0.1-0.2,0.1-0.2C47-28.9,46.8-29.1,46.6-29.1C46.6-29.1,46.6-29.1,46.6-29.1L46.6-29.1z"/>
			<path class="st1" d="M55.6-28.1c-0.2,0-0.4,0.2-0.4,0.3c0,0.1,0,0.2,0.1,0.3c0.1,0.1,0.4,0.1,0.5,0c0.1-0.1,0.1-0.4,0-0.5
				C55.8-28.1,55.7-28.1,55.6-28.1z"/>
			<path class="st1" d="M51.6-25.4c-0.2,0-0.4,0.2-0.4,0.3c0,0.1,0,0.2,0.1,0.3c0.1,0.1,0.4,0.1,0.5,0c0.1-0.1,0.1-0.2,0.1-0.2
				C52-25.2,51.8-25.3,51.6-25.4C51.6-25.4,51.6-25.4,51.6-25.4z"/>
			<path class="st1" d="M52.4-29.6c-0.1,0-0.2,0-0.2,0.1c-0.1,0.1-0.1,0.4,0,0.5c0.1,0.1,0.4,0.1,0.5,0c0.1-0.1,0.1-0.1,0.1-0.2
				C52.7-29.4,52.6-29.6,52.4-29.6C52.4-29.6,52.4-29.6,52.4-29.6z"/>
			<path class="st1" d="M62.9-35.6c-0.2,0-0.3,0.1-0.3,0.3c0,0,0,0,0,0c0,0.1,0,0.2,0.1,0.2c0.1,0.1,0.4,0.1,0.5,0
				c0.1-0.1,0.1-0.1,0.1-0.2C63.2-35.4,63.1-35.6,62.9-35.6C62.9-35.6,62.9-35.6,62.9-35.6L62.9-35.6z"/>
			<path class="st1" d="M57.1-39.1c-0.2,0-0.4,0.2-0.4,0.3c0,0.1,0,0.2,0.1,0.3c0.1,0.1,0.4,0.1,0.5,0c0.1-0.1,0.1-0.1,0.1-0.2
				C57.5-38.9,57.3-39.1,57.1-39.1C57.1-39.1,57.1-39.1,57.1-39.1z"/>
			<path class="st1" d="M48.6-37.3c-0.1,0-0.2,0-0.2,0.1c-0.1,0.1-0.1,0.2-0.1,0.2c0,0.1,0,0.2,0.1,0.2c0.1,0.1,0.4,0.1,0.5,0
				c0.1-0.1,0.1-0.1,0.1-0.2C49-37.2,48.8-37.3,48.6-37.3C48.6-37.3,48.6-37.3,48.6-37.3L48.6-37.3z"/>
			<path class="st1" d="M48.4-41.3c-0.1,0-0.2,0-0.2,0.1C48-41.2,48-41.1,48-41c0,0.1,0,0.2,0.1,0.2c0.1,0.1,0.4,0.1,0.5,0
				c0.1-0.1,0.1-0.4,0-0.5C48.5-41.3,48.4-41.4,48.4-41.3z"/>
			<path class="st1" d="M53.9-45.1c-0.1,0-0.2,0-0.2,0.1c-0.1,0.1-0.1,0.1-0.1,0.2c0,0.1,0,0.2,0.1,0.2c0.1,0.1,0.4,0.1,0.5,0
				c0.1-0.1,0.1-0.4,0-0.5C54-45.1,53.9-45.1,53.9-45.1z"/>
			<path class="st1" d="M62.6-48.1c-0.2,0-0.3,0.1-0.3,0.3c0,0,0,0,0,0c0,0.1,0,0.2,0.1,0.2c0.1,0.1,0.4,0.1,0.5,0
				c0.1-0.1,0.1-0.1,0.1-0.2C62.9-47.9,62.8-48.1,62.6-48.1C62.6-48.1,62.6-48.1,62.6-48.1L62.6-48.1z"/>
			<path class="st1" d="M65.4-51.8c-0.2,0-0.3,0.1-0.3,0.3c0,0,0,0,0,0c0,0.1,0,0.2,0.1,0.2c0.1,0.1,0.4,0.1,0.5,0
				c0.1-0.1,0.1-0.2,0.1-0.2C65.7-51.7,65.6-51.8,65.4-51.8C65.4-51.9,65.4-51.9,65.4-51.8z"/>
			<path class="st1" d="M69.9-45.1c-0.2,0-0.4,0.2-0.4,0.3c0,0.1,0,0.2,0.1,0.3c0.1,0.1,0.4,0.1,0.5,0c0.1-0.1,0.1-0.4,0-0.5
				C70-45.1,69.9-45.1,69.9-45.1z"/>
			<path class="st1" d="M60.4-39.1c-0.1,0-0.2,0-0.2,0.1C60-38.9,60-38.8,60-38.7c0,0.1,0,0.2,0.1,0.2c0.1,0.1,0.4,0.1,0.5,0
				c0.1-0.1,0.1-0.4,0-0.5C60.5-39.1,60.4-39.1,60.4-39.1z"/>
			<path class="st1" d="M32.9-47.1c-0.2,0-0.4,0.2-0.4,0.3c0,0.1,0,0.2,0.1,0.3c0.1,0.1,0.4,0.1,0.5,0c0.1-0.1,0.1-0.1,0.1-0.2
				C33.2-46.9,33.1-47.1,32.9-47.1C32.9-47.1,32.9-47.1,32.9-47.1z"/>
			<path class="st1" d="M26.6-37.8c-0.2,0-0.4,0.2-0.4,0.3c0,0.1,0,0.2,0.1,0.3c0.1,0.1,0.4,0.1,0.5,0c0.1-0.1,0.1-0.1,0.1-0.2
				C27-37.7,26.8-37.8,26.6-37.8C26.6-37.9,26.6-37.9,26.6-37.8z"/>
			<path class="st1" d="M30.1-35.6c-0.1,0-0.2,0-0.2,0.1c-0.1,0.1-0.1,0.2-0.1,0.2c0,0.1,0,0.2,0.1,0.2c0.1,0.1,0.4,0.1,0.5,0
				c0.1-0.1,0.1-0.2,0.1-0.2C30.5-35.4,30.3-35.6,30.1-35.6C30.1-35.6,30.1-35.6,30.1-35.6z"/>
			<path class="st1" d="M10.9-29.6c-0.2,0-0.4,0.2-0.4,0.3c0,0.1,0,0.2,0.1,0.3c0.1,0.1,0.4,0.1,0.5,0c0.1-0.1,0.1-0.2,0.1-0.2
				C11.2-29.4,11.1-29.6,10.9-29.6C10.9-29.6,10.9-29.6,10.9-29.6z"/>
			<path class="st1" d="M6.4-31.6c-0.2,0-0.4,0.2-0.4,0.3c0,0.1,0,0.2,0.1,0.3c0.1,0.1,0.4,0.1,0.5,0c0.1-0.1,0.1-0.2,0.1-0.2
				c0-0.1,0-0.2-0.1-0.2C6.5-31.6,6.4-31.6,6.4-31.6z"/>
			<path class="st1" d="M2.9-35.3c-0.1,0-0.2,0-0.2,0.1c-0.1,0.1-0.1,0.4,0,0.5c0.1,0.1,0.4,0.1,0.5,0c0.1-0.1,0.1-0.2,0.1-0.2
				c0-0.1,0-0.2-0.1-0.2C3-35.3,2.9-35.3,2.9-35.3z"/>
			<path class="st1" d="M17.4-42.1c-0.2,0-0.3,0.1-0.4,0.3c0,0,0,0,0,0c0,0.1,0,0.2,0.1,0.2c0.1,0.1,0.4,0.1,0.5,0
				c0.1-0.1,0.1-0.1,0.1-0.2c0-0.1,0-0.2-0.1-0.2C17.5-42.1,17.4-42.1,17.4-42.1z"/>
			<path class="st1" d="M13.1-36.1c-0.2,0-0.3,0.1-0.4,0.3c0,0,0,0,0,0c0,0.1,0,0.2,0.1,0.2c0.1,0.1,0.4,0.1,0.5,0
				c0.1-0.1,0.1-0.2,0.1-0.2c0-0.1,0-0.2-0.1-0.2C13.3-36.1,13.2-36.1,13.1-36.1z"/>
			<path class="st1" d="M26.9-30.4c-0.2,0-0.4,0.2-0.4,0.3c0,0.1,0,0.2,0.1,0.3c0.1,0.1,0.4,0.1,0.5,0c0.1-0.1,0.1-0.4,0-0.5
				C27-30.3,26.9-30.4,26.9-30.4z"/>
			<path class="st1" d="M39.6-30.9c-0.2,0-0.4,0.2-0.4,0.3c0,0.1,0,0.2,0.1,0.3c0.1,0.1,0.4,0.1,0.5,0c0.1-0.1,0.1-0.4,0-0.5
				C39.8-30.8,39.7-30.8,39.6-30.9z"/>
			<path class="st1" d="M38.6-32.8c-0.2,0-0.4,0.2-0.4,0.3c0,0.1,0,0.2,0.1,0.3c0.1,0.1,0.4,0.1,0.5,0c0.1-0.1,0.1-0.4,0-0.5
				C38.8-32.8,38.7-32.9,38.6-32.8z"/>
			<path class="st1" d="M28.4-42.1c-0.2,0-0.4,0.2-0.4,0.3c0,0.1,0,0.2,0.1,0.3c0.1,0.1,0.4,0.1,0.5,0c0.1-0.1,0.1-0.4,0-0.5
				C28.5-42.1,28.4-42.1,28.4-42.1z"/>
			<path class="st1" d="M6.9-20.6c-0.2,0-0.4,0.2-0.4,0.3c0,0.1,0,0.2,0.1,0.3c0.1,0.1,0.4,0.1,0.5,0c0.1-0.1,0.1-0.4,0-0.5
				C7-20.6,6.9-20.6,6.9-20.6z"/>
			<path class="st1" d="M10.1-18.9c-0.2,0-0.4,0.2-0.4,0.3c0,0.1,0,0.2,0.1,0.3c0.1,0.1,0.4,0.1,0.5,0c0.1-0.1,0.1-0.1,0.1-0.2
				C10.5-18.7,10.3-18.8,10.1-18.9C10.1-18.9,10.1-18.9,10.1-18.9z"/>
			<path class="st1" d="M12.1-23.6c-0.2,0-0.3,0.1-0.4,0.3c0,0,0,0,0,0c0,0.1,0,0.2,0.1,0.2c0.1,0.1,0.4,0.1,0.5,0
				c0.1-0.1,0.1-0.2,0.1-0.2c0-0.1,0-0.2-0.1-0.2C12.3-23.6,12.2-23.6,12.1-23.6z"/>
			<path class="st1" d="M3.4-25.9c-0.1,0-0.2,0-0.2,0.1c-0.1,0.1-0.1,0.4,0,0.5c0.1,0.1,0.4,0.1,0.5,0c0.1-0.1,0.1-0.4,0-0.5
				C3.5-25.8,3.4-25.8,3.4-25.9z"/>
			<path class="st1" d="M64.6-29.6c-0.1,0-0.2,0-0.2,0.1c-0.1,0.1-0.1,0.2-0.1,0.2c0,0.1,0,0.2,0.1,0.2c0.1,0.1,0.4,0.1,0.5,0
				c0.1-0.1,0.1-0.1,0.1-0.2C65-29.4,64.8-29.6,64.6-29.6C64.6-29.6,64.6-29.6,64.6-29.6z"/>
			<path class="st1" d="M69.9-29.9c-0.2,0-0.3,0.1-0.3,0.3c0,0,0,0,0,0c0,0.1,0,0.2,0.1,0.2c0.1,0.1,0.4,0.1,0.5,0
				c0.1-0.1,0.1-0.2,0.1-0.2c0-0.1,0-0.2-0.1-0.2C70-29.8,69.9-29.8,69.9-29.9z"/>
			<path class="st1" d="M1.9-9.1c-0.1,0-0.2,0-0.2,0.1c-0.1,0.1-0.1,0.4,0,0.5c0.1,0.1,0.4,0.1,0.5,0c0.1-0.1,0.1-0.4,0-0.5
				C2-9.1,1.9-9.1,1.9-9.1z"/>
			<path class="st1" d="M16.9-6.1c-0.2,0-0.3,0.1-0.4,0.3c0,0,0,0,0,0c0,0.1,0,0.2,0.1,0.2c0.1,0.1,0.4,0.1,0.5,0
				c0.1-0.1,0.1-0.4,0-0.5C17-6.1,16.9-6.1,16.9-6.1z"/>
			<path class="st1" d="M4.1-6.1c-0.2,0-0.4,0.2-0.4,0.3c0,0.1,0,0.2,0.1,0.3c0.1,0.1,0.4,0.1,0.5,0c0.1-0.1,0.1-0.1,0.1-0.2
				C4.5-5.9,4.3-6.1,4.1-6.1C4.1-6.1,4.1-6.1,4.1-6.1z"/>
			<path class="st1" d="M13.1-14.4c-0.2,0-0.4,0.2-0.4,0.3c0,0.1,0,0.2,0.1,0.3c0.1,0.1,0.4,0.1,0.5,0c0.1-0.1,0.1-0.1,0.1-0.2
				C13.5-14.2,13.3-14.3,13.1-14.4C13.1-14.4,13.1-14.4,13.1-14.4z"/>
			<path class="st1" d="M18.9-19.4c-0.2,0-0.3,0.1-0.4,0.3c0,0,0,0,0,0c0,0.1,0,0.2,0.1,0.2c0.1,0.1,0.4,0.1,0.5,0
				c0.1-0.1,0.1-0.1,0.1-0.2C19.2-19.2,19.1-19.3,18.9-19.4C18.9-19.4,18.9-19.4,18.9-19.4z"/>
			<path class="st1" d="M21.6-37.1c-0.2,0-0.3,0.1-0.4,0.3c0,0,0,0,0,0c0,0.1,0,0.2,0.1,0.2c0.1,0.1,0.4,0.1,0.5,0
				c0.1-0.1,0.1-0.2,0.1-0.2C22-36.9,21.8-37.1,21.6-37.1C21.6-37.1,21.6-37.1,21.6-37.1z"/>
			<path class="st1" d="M1.1-44.3c-0.1,0-0.2,0-0.2,0.1c-0.1,0.1-0.1,0.2-0.1,0.2c0,0.1,0,0.2,0.1,0.2c0.1,0.1,0.4,0.1,0.5,0
				c0.1-0.1,0.1-0.2,0.1-0.2c0-0.1,0-0.2-0.1-0.2C1.3-44.3,1.2-44.3,1.1-44.3z"/>
			<path class="st1" d="M68.4-66.1c-0.2,0-0.3,0.1-0.3,0.3c0,0,0,0,0,0c0,0.1,0,0.2,0.1,0.2c0.1,0.1,0.4,0.1,0.5,0
				c0.1-0.1,0.1-0.2,0.1-0.2C68.7-65.9,68.6-66.1,68.4-66.1C68.4-66.1,68.4-66.1,68.4-66.1z"/>
			<path class="st1" d="M60.1-69.8c-0.1,0-0.2,0-0.2,0.1c-0.1,0.1-0.1,0.2-0.1,0.2c0,0.1,0,0.2,0.1,0.2c0.1,0.1,0.4,0.1,0.5,0
				c0.1-0.1,0.1-0.2,0.1-0.2c0-0.1,0-0.2-0.1-0.2C60.3-69.8,60.2-69.8,60.1-69.8z"/>
			<path class="st1" d="M40.9-68.1c-0.2,0-0.4,0.2-0.4,0.3c0,0.1,0,0.2,0.1,0.3c0.1,0.1,0.4,0.1,0.5,0c0.1-0.1,0.1-0.4,0-0.5
				C41-68.1,40.9-68.1,40.9-68.1z"/>
			<path class="st1" d="M4.9-60.1c-0.2,0-0.4,0.2-0.4,0.3c0,0.1,0,0.2,0.1,0.3c0.1,0.1,0.4,0.1,0.5,0c0.1-0.1,0.1-0.1,0.1-0.2
				C5.2-59.9,5.1-60.1,4.9-60.1C4.9-60.1,4.9-60.1,4.9-60.1z"/>
			<path class="st1" d="M26.9-59.6c-0.2,0-0.4,0.2-0.4,0.3c0,0.1,0,0.2,0.1,0.3c0.1,0.1,0.4,0.1,0.5,0c0.1-0.1,0.1-0.1,0.1-0.2
				C27.2-59.4,27.1-59.6,26.9-59.6C26.9-59.6,26.9-59.6,26.9-59.6z"/>
			<path class="st1" d="M37.6-48.6c-0.2,0-0.3,0.1-0.3,0.3c0,0,0,0,0,0c0,0.1,0,0.2,0.1,0.2c0.1,0.1,0.4,0.1,0.5,0
				c0.1-0.1,0.1-0.4,0-0.5C37.8-48.6,37.7-48.6,37.6-48.6z"/>
			<path class="st1" d="M9.1-40.3c-0.2,0-0.4,0.2-0.4,0.3c0,0.1,0,0.2,0.1,0.3c0.1,0.1,0.4,0.1,0.5,0c0.1-0.1,0.1-0.1,0.1-0.2
				C9.5-40.2,9.3-40.3,9.1-40.3C9.1-40.4,9.1-40.4,9.1-40.3z"/>
			<path class="st1" d="M52.6-38.1c-0.1,0-0.2,0-0.2,0.1c-0.1,0.1-0.1,0.2-0.1,0.2c0,0.1,0,0.2,0.1,0.3c0.1,0.1,0.4,0.1,0.5,0
				c0.1-0.1,0.1-0.2,0.1-0.2C52.9-37.9,52.8-38.1,52.6-38.1C52.6-38.1,52.6-38.1,52.6-38.1L52.6-38.1z"/>
			<path class="st1" d="M61.1-46.1c-0.2,0-0.3,0.1-0.3,0.3c0,0,0,0,0,0c0,0.1,0,0.2,0.1,0.2c0.1,0.1,0.4,0.1,0.5,0
				c0.1-0.1,0.1-0.2,0.1-0.2C61.5-45.9,61.3-46.1,61.1-46.1C61.1-46.1,61.1-46.1,61.1-46.1z"/>
			<path class="st1" d="M51.6-66.3c-0.2,0-0.4,0.2-0.4,0.3c0,0.1,0,0.2,0.1,0.3c0.1,0.1,0.4,0.1,0.5,0c0.1-0.1,0.1-0.2,0.1-0.2
				c0-0.1,0-0.2-0.1-0.2C51.8-66.3,51.7-66.3,51.6-66.3z"/>
			<path class="st1" d="M40.4-37.8c-0.2,0-0.4,0.2-0.4,0.3c0,0.1,0,0.2,0.1,0.3c0.1,0.1,0.4,0.1,0.5,0c0.1-0.1,0.1-0.1,0.1-0.2
				C40.7-37.7,40.6-37.8,40.4-37.8C40.4-37.9,40.4-37.9,40.4-37.8z"/>
			<path class="st1" d="M27.9-13.6c-0.2,0-0.4,0.2-0.4,0.3c0,0.1,0,0.2,0.1,0.3c0.1,0.1,0.4,0.1,0.5,0c0.1-0.1,0.1-0.1,0.1-0.2
				C28.2-13.4,28.1-13.6,27.9-13.6C27.9-13.6,27.9-13.6,27.9-13.6z"/>
			<path class="st1" d="M20.1-26.6c-0.2,0-0.3,0.1-0.4,0.3c0,0,0,0,0,0c0,0.1,0,0.2,0.1,0.2c0.1,0.1,0.4,0.1,0.5,0
				c0.1-0.1,0.1-0.2,0.1-0.2C20.5-26.4,20.3-26.6,20.1-26.6C20.1-26.6,20.1-26.6,20.1-26.6L20.1-26.6z"/>
			<path class="st1" d="M12.1-1.9c-0.1,0-0.2,0-0.2,0.1c-0.1,0.1-0.1,0.2-0.1,0.2c0,0.1,0,0.2,0.1,0.2c0.1,0.1,0.4,0.1,0.5,0
				c0.1-0.1,0.1-0.2,0.1-0.2c0-0.1,0-0.2-0.1-0.2C12.3-1.8,12.2-1.8,12.1-1.9z"/>
			<path class="st1" d="M55.6-3.8c-0.2,0-0.3,0.1-0.3,0.3c0,0,0,0,0,0c0,0.1,0,0.2,0.1,0.2c0.1,0.1,0.4,0.1,0.5,0
				c0.1-0.1,0.1-0.2,0.1-0.2C55.9-3.7,55.8-3.8,55.6-3.8C55.6-3.9,55.6-3.9,55.6-3.8L55.6-3.8z"/>
			<path class="st1" d="M47.6-69.8c-0.1,0-0.2,0-0.2,0.1c-0.1,0.1-0.1,0.2-0.1,0.2c0,0.1,0,0.2,0.1,0.2c0.1,0.1,0.4,0.1,0.5,0
				c0.1-0.1,0.1-0.1,0.1-0.2C48-69.7,47.8-69.8,47.6-69.8C47.6-69.9,47.6-69.9,47.6-69.8z"/>
			<path class="st1" d="M5.1-40.3c-0.2,0-0.3,0.1-0.3,0.3c0,0,0,0,0,0c0,0.1,0,0.2,0.1,0.2c0.1,0.1,0.4,0.1,0.5,0
				c0.1-0.1,0.1-0.2,0.1-0.2C5.5-40.2,5.3-40.3,5.1-40.3C5.1-40.4,5.1-40.4,5.1-40.3z"/>
			<path class="st1" d="M69.1-13.4c-0.2,0-0.4,0.2-0.4,0.3c0,0.1,0,0.2,0.1,0.3c0.1,0.1,0.4,0.1,0.5,0c0.1-0.1,0.1-0.4,0-0.5
				C69.3-13.3,69.2-13.3,69.1-13.4z"/>
			<path class="st1" d="M23.6-14.1c-0.2,0-0.4,0.2-0.4,0.3c0,0.1,0,0.2,0.1,0.3c0.1,0.1,0.4,0.1,0.5,0c0.1-0.1,0.1-0.1,0.1-0.2
				C24-13.9,23.8-14.1,23.6-14.1C23.6-14.1,23.6-14.1,23.6-14.1z"/>
			<path class="st1" d="M20.9-17.4c-0.2,0-0.4,0.2-0.4,0.3c0,0.1,0,0.2,0.1,0.3c0.1,0.1,0.4,0.1,0.5,0c0.1-0.1,0.1-0.4,0-0.5
				C21-17.3,20.9-17.4,20.9-17.4z"/>
			<path class="st1" d="M15.1-17.4c-0.2,0-0.3,0.1-0.4,0.3c0,0,0,0,0,0c0,0.1,0,0.2,0.1,0.2c0.1,0.1,0.4,0.1,0.5,0
				c0.1-0.1,0.1-0.2,0.1-0.2C15.5-17.2,15.3-17.3,15.1-17.4C15.1-17.4,15.1-17.4,15.1-17.4z"/>
			<path class="st1" d="M6.4-11.9c-0.2,0-0.4,0.2-0.4,0.3c0,0.1,0,0.2,0.1,0.3c0.1,0.1,0.4,0.1,0.5,0c0.1-0.1,0.1-0.2,0.1-0.2
				C6.7-11.7,6.6-11.8,6.4-11.9C6.4-11.9,6.4-11.9,6.4-11.9z"/>
			<path class="st1" d="M7.4-2.8c-0.1,0-0.2,0-0.2,0.1C7-2.7,7-2.6,7-2.5c0,0.1,0,0.2,0.1,0.2c0.1,0.1,0.4,0.1,0.5,0
				c0.1-0.1,0.1-0.1,0.1-0.2c0-0.1,0-0.2-0.1-0.2C7.5-2.8,7.4-2.8,7.4-2.8z"/>
			<path class="st1" d="M10.4-8.4C10.2-8.4,10-8.2,10-8c0,0.1,0,0.2,0.1,0.3c0.1,0.1,0.4,0.1,0.5,0c0.1-0.1,0.1-0.1,0.1-0.2
				C10.7-8.2,10.6-8.3,10.4-8.4C10.4-8.4,10.4-8.4,10.4-8.4z"/>
			<path class="st1" d="M14.6-8.4c-0.2,0-0.3,0.1-0.4,0.3c0,0,0,0,0,0c0,0.1,0,0.2,0.1,0.2c0.1,0.1,0.4,0.1,0.5,0
				c0.1-0.1,0.1-0.2,0.1-0.2C14.9-8.2,14.8-8.3,14.6-8.4C14.6-8.4,14.6-8.4,14.6-8.4L14.6-8.4z"/>
			<path class="st1" d="M26.1-7.1c-0.2,0-0.4,0.2-0.4,0.3c0,0.1,0,0.2,0.1,0.3c0.1,0.1,0.4,0.1,0.5,0c0.1-0.1,0.1-0.1,0.1-0.2
				C26.5-6.9,26.3-7.1,26.1-7.1C26.1-7.1,26.1-7.1,26.1-7.1z"/>
			<path class="st1" d="M37.4-7.6c-0.2,0-0.4,0.2-0.4,0.3c0,0.1,0,0.2,0.1,0.3c0.1,0.1,0.4,0.1,0.5,0c0.1-0.1,0.1-0.4,0-0.5
				C37.5-7.6,37.4-7.6,37.4-7.6z"/>
			<path class="st1" d="M37.9-4.3c-0.2,0-0.3,0.1-0.3,0.3c0,0,0,0,0,0c0,0.1,0,0.2,0.1,0.2c0.1,0.1,0.4,0.1,0.5,0
				c0.1-0.1,0.1-0.1,0.1-0.2C38.2-4.2,38.1-4.3,37.9-4.3C37.9-4.4,37.9-4.4,37.9-4.3z"/>
			<path class="st1" d="M43.6-2.3c-0.1,0-0.2,0-0.2,0.1c-0.1,0.1-0.1,0.2-0.1,0.2c0,0.1,0,0.2,0.1,0.2c0.1,0.1,0.4,0.1,0.5,0
				C43.9-1.8,43.9-1.9,44-2c0-0.1,0-0.2-0.1-0.2C43.8-2.3,43.7-2.3,43.6-2.3z"/>
			<path class="st1" d="M49.9-8.4c-0.1,0-0.2,0-0.2,0.1c-0.1,0.1-0.1,0.4,0,0.5c0.1,0.1,0.4,0.1,0.5,0c0.1-0.1,0.1-0.4,0-0.5
				C50-8.3,49.9-8.4,49.9-8.4z"/>
			<path class="st1" d="M46.4-9.4C46.2-9.4,46-9.2,46-9c0,0.1,0,0.2,0.1,0.3c0.1,0.1,0.4,0.1,0.5,0c0.1-0.1,0.1-0.4,0-0.5
				C46.5-9.3,46.4-9.3,46.4-9.4z"/>
			<path class="st1" d="M36.1-11.1c-0.2,0-0.3,0.1-0.3,0.3c0,0,0,0,0,0c0,0.1,0,0.2,0.1,0.2c0.1,0.1,0.4,0.1,0.5,0
				c0.1-0.1,0.1-0.1,0.1-0.2C36.5-10.9,36.3-11.1,36.1-11.1C36.1-11.1,36.1-11.1,36.1-11.1z"/>
			<path class="st1" d="M39.6-15.1c-0.2,0-0.4,0.2-0.4,0.3c0,0.1,0,0.2,0.1,0.3c0.1,0.1,0.4,0.1,0.5,0c0.1-0.1,0.1-0.1,0.1-0.2
				C40-14.9,39.8-15.1,39.6-15.1C39.6-15.1,39.6-15.1,39.6-15.1z"/>
			<path class="st1" d="M25.1-18.1c-0.2,0-0.4,0.2-0.4,0.3c0,0.1,0,0.2,0.1,0.3c0.1,0.1,0.4,0.1,0.5,0c0.1-0.1,0.1-0.1,0.1-0.2
				C25.5-17.9,25.3-18.1,25.1-18.1C25.1-18.1,25.1-18.1,25.1-18.1z"/>
			<path class="st1" d="M8.6-27.4c-0.2,0-0.4,0.2-0.4,0.3c0,0.1,0,0.2,0.1,0.3c0.1,0.1,0.4,0.1,0.5,0C8.9-26.8,8.9-26.9,9-27
				C9-27.2,8.8-27.3,8.6-27.4C8.6-27.4,8.6-27.4,8.6-27.4z"/>
			<path class="st1" d="M16.4-31.9c-0.2,0-0.4,0.2-0.4,0.3c0,0.1,0,0.2,0.1,0.3c0.1,0.1,0.4,0.1,0.5,0c0.1-0.1,0.1-0.4,0-0.5
				C16.5-31.8,16.4-31.9,16.4-31.9z"/>
			<path class="st1" d="M10.9-33.6c-0.2,0-0.3,0.1-0.4,0.3c0,0,0,0,0,0c0,0.1,0,0.2,0.1,0.2c0.1,0.1,0.4,0.1,0.5,0
				c0.1-0.1,0.1-0.2,0.1-0.2c0-0.1,0-0.2-0.1-0.2C11-33.6,10.9-33.6,10.9-33.6z"/>
			<path class="st1" d="M5.6-37.1c-0.2,0-0.4,0.2-0.4,0.3c0,0.1,0,0.2,0.1,0.3c0.1,0.1,0.4,0.1,0.5,0C5.9-36.6,6-36.7,6-36.8
				C6-36.9,5.8-37.1,5.6-37.1C5.6-37.1,5.6-37.1,5.6-37.1z"/>
			<path class="st1" d="M3.6-20.6c-0.2,0-0.4,0.2-0.4,0.3c0,0.1,0,0.2,0.1,0.3c0.1,0.1,0.4,0.1,0.5,0c0.1-0.1,0.1-0.4,0-0.5
				C3.8-20.6,3.7-20.6,3.6-20.6z"/>
			<path class="st1" d="M20.9-30.9c-0.2,0-0.3,0.1-0.4,0.3c0,0,0,0,0,0c0,0.1,0,0.2,0.1,0.2c0.1,0.1,0.4,0.1,0.5,0
				c0.1-0.1,0.1-0.1,0.1-0.2C21.2-30.7,21.1-30.8,20.9-30.9C20.9-30.9,20.9-30.9,20.9-30.9z"/>
			<path class="st1" d="M17.9-35.6c-0.2,0-0.4,0.2-0.4,0.3c0,0.1,0,0.2,0.1,0.3c0.1,0.1,0.4,0.1,0.5,0c0.1-0.1,0.1-0.4,0-0.5
				C18-35.6,17.9-35.6,17.9-35.6z"/>
			<path class="st1" d="M16.4-39.1c-0.2,0-0.3,0.1-0.4,0.3c0,0,0,0,0,0c0,0.1,0,0.2,0.1,0.2c0.1,0.1,0.4,0.1,0.5,0
				c0.1-0.1,0.1-0.2,0.1-0.2c0-0.1,0-0.2-0.1-0.2C16.5-39.1,16.4-39.1,16.4-39.1z"/>
			<path class="st1" d="M13.1-41.3c-0.2,0-0.3,0.1-0.4,0.3c0,0,0,0,0,0c0,0.1,0,0.2,0.1,0.2c0.1,0.1,0.4,0.1,0.5,0
				c0.1-0.1,0.1-0.2,0.1-0.2C13.5-41.2,13.3-41.3,13.1-41.3C13.1-41.4,13.1-41.4,13.1-41.3z"/>
			<path class="st1" d="M13.1-46.6c-0.2,0-0.3,0.1-0.4,0.3c0,0,0,0,0,0c0,0.1,0,0.2,0.1,0.2c0.1,0.1,0.4,0.1,0.5,0
				c0.1-0.1,0.1-0.2,0.1-0.2C13.5-46.4,13.3-46.6,13.1-46.6C13.1-46.6,13.1-46.6,13.1-46.6z"/>
			<path class="st1" d="M6.1-48.6c-0.2,0-0.4,0.2-0.4,0.3c0,0.1,0,0.2,0.1,0.3c0.1,0.1,0.4,0.1,0.5,0c0.1-0.1,0.1-0.4,0-0.5
				C6.3-48.6,6.2-48.6,6.1-48.6z"/>
			<path class="st1" d="M11.4-54.6c-0.2,0-0.4,0.2-0.4,0.3c0,0.1,0,0.2,0.1,0.3c0.1,0.1,0.4,0.1,0.5,0c0.1-0.1,0.1-0.4,0-0.5
				C11.5-54.6,11.4-54.6,11.4-54.6z"/>
			<path class="st1" d="M15.9-58.6c-0.2,0-0.4,0.2-0.4,0.3c0,0.1,0,0.2,0.1,0.3c0.1,0.1,0.4,0.1,0.5,0c0.1-0.1,0.1-0.4,0-0.5
				C16-58.6,15.9-58.6,15.9-58.6z"/>
			<path class="st1" d="M6.4-63.6c-0.2,0-0.4,0.2-0.4,0.3c0,0.1,0,0.2,0.1,0.3c0.1,0.1,0.4,0.1,0.5,0c0.1-0.1,0.1-0.2,0.1-0.2
				C6.7-63.4,6.6-63.6,6.4-63.6C6.4-63.6,6.4-63.6,6.4-63.6z"/>
			<path class="st1" d="M2.6-62.1c-0.1,0-0.2,0-0.2,0.1c-0.1,0.1-0.1,0.4,0,0.5c0.1,0.1,0.4,0.1,0.5,0C2.9-61.6,3-61.7,3-61.8
				c0-0.1,0-0.2-0.1-0.2C2.8-62.1,2.7-62.1,2.6-62.1z"/>
			<path class="st1" d="M9.4-68.1c-0.2,0-0.4,0.2-0.4,0.3c0,0.1,0,0.2,0.1,0.3c0.1,0.1,0.4,0.1,0.5,0c0.1-0.1,0.1-0.1,0.1-0.2
				c0-0.1,0-0.2-0.1-0.2C9.5-68.1,9.4-68.1,9.4-68.1z"/>
			<path class="st1" d="M13.9-69.6c-0.2,0-0.4,0.2-0.4,0.3c0,0.1,0,0.2,0.1,0.3c0.1,0.1,0.4,0.1,0.5,0c0.1-0.1,0.1-0.4,0-0.5
				C14-69.6,13.9-69.6,13.9-69.6z"/>
			<path class="st1" d="M21.9-68.6c-0.2,0-0.3,0.1-0.4,0.3c0,0,0,0,0,0c0,0.1,0,0.2,0.1,0.2c0.1,0.1,0.4,0.1,0.5,0
				c0.1-0.1,0.1-0.1,0.1-0.2C22.2-68.4,22.1-68.6,21.9-68.6C21.9-68.6,21.9-68.6,21.9-68.6z"/>
			<path class="st1" d="M23.4-65.8c-0.2,0-0.4,0.2-0.4,0.3c0,0.1,0,0.2,0.1,0.3c0.1,0.1,0.4,0.1,0.5,0c0.1-0.1,0.1-0.4,0-0.5
				C23.5-65.8,23.4-65.8,23.4-65.8z"/>
			<path class="st1" d="M22.6-60.1c-0.2,0-0.4,0.2-0.4,0.3c0,0.1,0,0.2,0.1,0.3c0.1,0.1,0.4,0.1,0.5,0c0.1-0.1,0.1-0.4,0-0.5
				C22.8-60.1,22.7-60.1,22.6-60.1z"/>
			<path class="st1" d="M24.6-57.6c-0.2,0-0.3,0.1-0.4,0.3c0,0,0,0,0,0c0,0.1,0,0.2,0.1,0.2c0.1,0.1,0.4,0.1,0.5,0
				c0.1-0.1,0.1-0.2,0.1-0.2c0-0.1,0-0.2-0.1-0.2C24.8-57.6,24.7-57.6,24.6-57.6z"/>
			<path class="st1" d="M26.6-47.8c-0.2,0-0.4,0.2-0.4,0.3c0,0.1,0,0.2,0.1,0.3c0.1,0.1,0.4,0.1,0.5,0c0.1-0.1,0.1-0.4,0-0.5
				C26.8-47.8,26.7-47.9,26.6-47.8z"/>
			<path class="st1" d="M26.1-43.6c-0.2,0-0.4,0.2-0.4,0.3c0,0.1,0,0.2,0.1,0.3c0.1,0.1,0.4,0.1,0.5,0c0.1-0.1,0.1-0.4,0-0.5
				C26.3-43.6,26.2-43.6,26.1-43.6z"/>
			<path class="st1" d="M32.6-31.1c-0.2,0-0.3,0.1-0.4,0.3c0,0,0,0,0,0c0,0.1,0,0.2,0.1,0.2c0.1,0.1,0.4,0.1,0.5,0
				c0.1-0.1,0.1-0.1,0.1-0.2C32.9-30.9,32.8-31.1,32.6-31.1C32.6-31.1,32.6-31.1,32.6-31.1L32.6-31.1z"/>
			<path class="st1" d="M34.6-27.9c-0.2,0-0.3,0.1-0.3,0.3c0,0,0,0,0,0c0,0.1,0,0.2,0.1,0.2c0.1,0.1,0.4,0.1,0.5,0
				c0.1-0.1,0.1-0.4,0-0.5C34.8-27.8,34.7-27.8,34.6-27.9z"/>
			<path class="st1" d="M42.1-25.9c-0.2,0-0.4,0.2-0.4,0.3c0,0.1,0,0.2,0.1,0.3c0.1,0.1,0.4,0.1,0.5,0c0.1-0.1,0.1-0.4,0-0.5
				C42.3-25.8,42.2-25.9,42.1-25.9z"/>
			<path class="st1" d="M43.4-20.9c-0.1,0-0.2,0-0.2,0.1C43-20.7,43-20.6,43-20.5c0,0.1,0,0.2,0.1,0.2c0.1,0.1,0.4,0.1,0.5,0
				c0.1-0.1,0.1-0.2,0.1-0.2c0-0.1,0-0.2-0.1-0.2C43.5-20.8,43.4-20.8,43.4-20.9z"/>
			<path class="st1" d="M36.9-19.4c-0.1,0-0.2,0-0.2,0.1c-0.1,0.1-0.1,0.2-0.1,0.2c0,0.1,0,0.2,0.1,0.2c0.1,0.1,0.4,0.1,0.5,0
				c0,0,0,0,0,0c0.1-0.1,0.1-0.4,0-0.5C37-19.3,36.9-19.4,36.9-19.4L36.9-19.4z"/>
			<path class="st1" d="M28.1-22.4c-0.2,0-0.4,0.2-0.4,0.3c0,0.1,0,0.2,0.1,0.3c0.1,0.1,0.4,0.1,0.5,0c0.1-0.1,0.1-0.4,0-0.5
				C28.3-22.3,28.2-22.4,28.1-22.4z"/>
			<path class="st1" d="M52.4-22.1c-0.1,0-0.2,0-0.2,0.1C52-21.9,52-21.8,52-21.8c0,0.1,0,0.2,0.1,0.2c0.1,0.1,0.4,0.1,0.5,0
				c0.1-0.1,0.1-0.1,0.1-0.2c0-0.1,0-0.2-0.1-0.2C52.5-22.1,52.4-22.1,52.4-22.1z"/>
			<path class="st1" d="M43.6-17.9c-0.1,0-0.2,0-0.2,0.1c-0.1,0.1-0.1,0.4,0,0.5c0.1,0.1,0.4,0.1,0.5,0c0.1-0.1,0.1-0.4,0-0.5
				C43.8-17.8,43.7-17.9,43.6-17.9z"/>
			<path class="st1" d="M50.9-18.1c-0.1,0-0.2,0-0.2,0.1c-0.1,0.1-0.1,0.4,0,0.5c0.1,0.1,0.4,0.1,0.5,0c0.1-0.1,0.1-0.1,0.1-0.2
				C51.2-17.9,51.1-18.1,50.9-18.1C50.9-18.1,50.9-18.1,50.9-18.1z"/>
			<path class="st1" d="M59.9-17.4c-0.2,0-0.3,0.1-0.3,0.3c0,0,0,0,0,0c0,0.1,0,0.2,0.1,0.2c0.1,0.1,0.4,0.1,0.5,0
				c0.1-0.1,0.1-0.2,0.1-0.2C60.2-17.2,60.1-17.3,59.9-17.4C59.9-17.4,59.9-17.4,59.9-17.4z"/>
			<path class="st1" d="M58.6-14.1c-0.1,0-0.2,0-0.2,0.1c-0.1,0.1-0.1,0.4,0,0.5c0.1,0.1,0.4,0.1,0.5,0c0.1-0.1,0.1-0.1,0.1-0.2
				C59-13.9,58.8-14.1,58.6-14.1C58.6-14.1,58.6-14.1,58.6-14.1z"/>
			<path class="st1" d="M61.9-11.1c-0.2,0-0.3,0.1-0.3,0.3c0,0,0,0,0,0c0,0.1,0,0.2,0.1,0.2c0.1,0.1,0.4,0.1,0.5,0
				c0.1-0.1,0.1-0.1,0.1-0.2C62.2-10.9,62.1-11.1,61.9-11.1C61.9-11.1,61.9-11.1,61.9-11.1L61.9-11.1z"/>
			<path class="st1" d="M59.1-7.6c-0.1,0-0.2,0-0.2,0.1c-0.1,0.1-0.1,0.2-0.1,0.2c0,0.1,0,0.2,0.1,0.2c0.1,0.1,0.4,0.1,0.5,0
				c0.1-0.1,0.1-0.2,0.1-0.2C59.5-7.4,59.3-7.6,59.1-7.6C59.1-7.6,59.1-7.6,59.1-7.6L59.1-7.6z"/>
			<path class="st1" d="M60.4-4.8c-0.1,0-0.2,0-0.2,0.1C60-4.7,60-4.6,60-4.5c0,0.1,0,0.2,0.1,0.2c0.1,0.1,0.4,0.1,0.5,0
				c0.1-0.1,0.1-0.2,0.1-0.2C60.7-4.7,60.6-4.8,60.4-4.8C60.4-4.9,60.4-4.9,60.4-4.8z"/>
			<path class="st1" d="M67.9-6.1c-0.1,0-0.2,0-0.2,0.1c-0.1,0.1-0.1,0.2-0.1,0.2c0,0.1,0,0.2,0.1,0.2c0.1,0.1,0.4,0.1,0.5,0
				c0.1-0.1,0.1-0.4,0-0.5C68-6.1,67.9-6.1,67.9-6.1z"/>
			<path class="st1" d="M71.1-8.6c-0.1,0-0.2,0-0.2,0.1c-0.1,0.1-0.1,0.2-0.1,0.2c0,0.1,0,0.2,0.1,0.2c0.1,0.1,0.4,0.1,0.5,0
				c0.1-0.1,0.1-0.2,0.1-0.2C71.5-8.4,71.3-8.6,71.1-8.6C71.1-8.6,71.1-8.6,71.1-8.6L71.1-8.6z"/>
			<path class="st1" d="M66.1-9.9c-0.2,0-0.3,0.1-0.3,0.3c0,0,0,0,0,0c0,0.1,0,0.2,0.1,0.2c0.1,0.1,0.4,0.1,0.5,0
				c0.1-0.1,0.1-0.4,0-0.5C66.3-9.8,66.2-9.9,66.1-9.9z"/>
			<path class="st1" d="M60.6-23.9c-0.2,0-0.4,0.2-0.4,0.3c0,0.1,0,0.2,0.1,0.3c0.1,0.1,0.4,0.1,0.5,0c0.1-0.1,0.1-0.4,0-0.5
				C60.8-23.8,60.7-23.9,60.6-23.9z"/>
			<path class="st1" d="M55.9-23.9c-0.2,0-0.4,0.2-0.4,0.3c0,0.1,0,0.2,0.1,0.3c0.1,0.1,0.4,0.1,0.5,0c0.1-0.1,0.1-0.4,0-0.5
				C56-23.8,55.9-23.9,55.9-23.9z"/>
			<path class="st1" d="M55.9-18.9c-0.1,0-0.2,0-0.2,0.1c-0.1,0.1-0.1,0.2-0.1,0.2c0,0.1,0,0.2,0.1,0.2c0.1,0.1,0.4,0.1,0.5,0
				c0.1-0.1,0.1-0.2,0.1-0.2C56.2-18.7,56.1-18.8,55.9-18.9C55.9-18.9,55.9-18.9,55.9-18.9z"/>
			<path class="st1" d="M65.4-25.9c-0.2,0-0.3,0.1-0.3,0.3c0,0,0,0,0,0c0,0.1,0,0.2,0.1,0.2c0.1,0.1,0.4,0.1,0.5,0
				c0.1-0.1,0.1-0.2,0.1-0.2C65.7-25.7,65.6-25.8,65.4-25.9C65.4-25.9,65.4-25.9,65.4-25.9z"/>
			<path class="st1" d="M58.1-30.9c-0.1,0-0.2,0-0.2,0.1c-0.1,0.1-0.1,0.2-0.1,0.2c0,0.1,0,0.2,0.1,0.2c0.1,0.1,0.4,0.1,0.5,0
				c0.1-0.1,0.1-0.2,0.1-0.2C58.5-30.7,58.3-30.8,58.1-30.9C58.1-30.9,58.1-30.9,58.1-30.9z"/>
			<path class="st1" d="M53.1-32.8c-0.1,0-0.2,0-0.2,0.1c-0.1,0.1-0.1,0.2-0.1,0.2c0,0.1,0,0.2,0.1,0.2c0.1,0.1,0.4,0.1,0.5,0
				c0.1-0.1,0.1-0.2,0.1-0.2C53.5-32.7,53.3-32.8,53.1-32.8C53.1-32.9,53.1-32.9,53.1-32.8z"/>
			<path class="st1" d="M47.9-33.8c-0.1,0-0.2,0-0.2,0.1c-0.1,0.1-0.1,0.2-0.1,0.2c0,0.1,0,0.2,0.1,0.2c0.1,0.1,0.4,0.1,0.5,0
				c0.1-0.1,0.1-0.2,0.1-0.2C48.2-33.7,48.1-33.8,47.9-33.8C47.9-33.9,47.9-33.9,47.9-33.8z"/>
			<path class="st1" d="M44.6-39.3c-0.1,0-0.2,0-0.2,0.1c-0.1,0.1-0.1,0.2-0.1,0.2c0,0.1,0,0.2,0.1,0.2c0.1,0.1,0.4,0.1,0.5,0
				c0.1-0.1,0.1-0.2,0.1-0.2c0-0.1,0-0.2-0.1-0.2C44.8-39.3,44.7-39.3,44.6-39.3z"/>
			<path class="st1" d="M34.4-41.6c-0.2,0-0.4,0.2-0.4,0.3c0,0.1,0,0.2,0.1,0.3c0.1,0.1,0.4,0.1,0.5,0c0.1-0.1,0.1-0.4,0-0.5
				C34.5-41.6,34.4-41.6,34.4-41.6z"/>
			<path class="st1" d="M41.1-48.1c-0.2,0-0.4,0.2-0.4,0.3c0,0.1,0,0.2,0.1,0.3c0.1,0.1,0.4,0.1,0.5,0c0.1-0.1,0.1-0.2,0.1-0.2
				C41.5-47.9,41.3-48.1,41.1-48.1C41.1-48.1,41.1-48.1,41.1-48.1z"/>
			<path class="st1" d="M46.1-52.3c-0.2,0-0.3,0.1-0.3,0.3c0,0,0,0,0,0c0,0.1,0,0.2,0.1,0.2c0.1,0.1,0.4,0.1,0.5,0
				c0.1-0.1,0.1-0.1,0.1-0.2C46.5-52.2,46.3-52.3,46.1-52.3C46.1-52.4,46.1-52.4,46.1-52.3z"/>
			<path class="st1" d="M46.9-56.8c-0.2,0-0.4,0.2-0.4,0.3c0,0.1,0,0.2,0.1,0.3c0.1,0.1,0.4,0.1,0.5,0c0.1-0.1,0.1-0.2,0.1-0.2
				C47.2-56.7,47.1-56.8,46.9-56.8C46.9-56.9,46.9-56.9,46.9-56.8z"/>
			<path class="st1" d="M42.4-59.6c-0.1,0-0.2,0-0.2,0.1C42-59.4,42-59.3,42-59.2c0,0.1,0,0.2,0.1,0.2c0.1,0.1,0.4,0.1,0.5,0
				c0.1-0.1,0.1-0.4,0-0.5C42.5-59.6,42.4-59.6,42.4-59.6z"/>
			<path class="st1" d="M40.4-62.8c-0.2,0-0.4,0.2-0.4,0.3c0,0.1,0,0.2,0.1,0.3c0.1,0.1,0.4,0.1,0.5,0c0.1-0.1,0.1-0.4,0-0.5
				C40.5-62.8,40.4-62.8,40.4-62.8z"/>
			<path class="st1" d="M36.4-62.8c-0.2,0-0.3,0.1-0.3,0.3c0,0,0,0,0,0c0,0.1,0,0.2,0.1,0.2c0.1,0.1,0.4,0.1,0.5,0
				c0.1-0.1,0.1-0.1,0.1-0.2C36.7-62.7,36.6-62.8,36.4-62.8C36.4-62.9,36.4-62.9,36.4-62.8z"/>
			<path class="st1" d="M36.9-52.8c-0.1,0-0.2,0-0.2,0.1c-0.1,0.1-0.1,0.2-0.1,0.2c0,0.1,0,0.2,0.1,0.2c0.1,0.1,0.4,0.1,0.5,0
				c0.1-0.1,0.1-0.1,0.1-0.2C37.2-52.7,37.1-52.8,36.9-52.8C36.9-52.8,36.9-52.8,36.9-52.8L36.9-52.8z"/>
			<path class="st1" d="M30.4-63.6c-0.1,0-0.2,0-0.2,0.1C30-63.4,30-63.3,30-63.2c0,0.1,0,0.2,0.1,0.2c0.1,0.1,0.4,0.1,0.5,0
				c0.1-0.1,0.1-0.2,0.1-0.2C30.7-63.4,30.6-63.6,30.4-63.6C30.4-63.6,30.4-63.6,30.4-63.6z"/>
			<path class="st1" d="M31.9-68.6c-0.2,0-0.4,0.2-0.4,0.3c0,0.1,0,0.2,0.1,0.3c0.1,0.1,0.4,0.1,0.5,0c0.1-0.1,0.1-0.4,0-0.5
				C32-68.6,31.9-68.6,31.9-68.6z"/>
			<path class="st1" d="M37.4-71.1c-0.1,0-0.2,0-0.2,0.1C37-70.9,37-70.8,37-70.8c0,0.1,0,0.2,0.1,0.2c0.1,0.1,0.4,0.1,0.5,0
				c0.1-0.1,0.1-0.2,0.1-0.2c0-0.1,0-0.2-0.1-0.2C37.5-71.1,37.4-71.1,37.4-71.1z"/>
			<path class="st1" d="M63.4-57.1c-0.2,0-0.3,0.1-0.3,0.3c0,0,0,0,0,0c0,0.1,0,0.2,0.1,0.2c0.1,0.1,0.4,0.1,0.5,0
				c0.1-0.1,0.1-0.2,0.1-0.2C63.7-56.9,63.6-57.1,63.4-57.1C63.4-57.1,63.4-57.1,63.4-57.1z"/>
			<path class="st1" d="M60.4-50.8c-0.1,0-0.2,0-0.2,0.1C60-50.7,60-50.6,60-50.5c0,0.2,0.2,0.3,0.4,0.3c0.1,0,0.2,0,0.2-0.1
				c0.1-0.1,0.1-0.2,0.1-0.2c0-0.1,0-0.2-0.1-0.2C60.5-50.8,60.4-50.8,60.4-50.8z"/>
			<path class="st1" d="M54.9-50.6c-0.1,0-0.2,0-0.2,0.1c-0.1,0.1-0.1,0.2-0.1,0.2c0,0.2,0.2,0.3,0.3,0.3c0.2,0,0.4-0.2,0.4-0.3
				c0-0.1,0-0.2-0.1-0.2C55-50.6,54.9-50.6,54.9-50.6z"/>
			<path class="st1" d="M55.1-41.8c-0.1,0-0.2,0-0.2,0.1c-0.1,0.1-0.1,0.1-0.1,0.2c0,0.1,0,0.2,0.1,0.2c0.1,0.1,0.4,0.1,0.5,0
				c0.1-0.1,0.1-0.2,0.1-0.2c0-0.1,0-0.2-0.1-0.2C55.3-41.8,55.2-41.8,55.1-41.8z"/>
			<path class="st1" d="M62.9-42.3c-0.2,0-0.4,0.2-0.4,0.3c0,0.1,0,0.2,0.1,0.3c0.1,0.1,0.4,0.1,0.5,0c0.1-0.1,0.1-0.4,0-0.5
				C63-42.3,62.9-42.4,62.9-42.3z"/>
			<path class="st1" d="M67.4-47.6c-0.1,0-0.2,0-0.2,0.1C67-47.4,67-47.3,67-47.2c0,0.1,0,0.2,0.1,0.2c0.1,0.1,0.4,0.1,0.5,0
				c0.1-0.1,0.1-0.2,0.1-0.2C67.7-47.4,67.6-47.6,67.4-47.6C67.4-47.6,67.4-47.6,67.4-47.6z"/>
			<path class="st1" d="M69.9-54.3c-0.1,0-0.2,0-0.2,0.1c-0.1,0.1-0.1,0.2-0.1,0.2c0,0.1,0,0.2,0.1,0.2c0.1,0.1,0.4,0.1,0.5,0
				c0.1-0.1,0.1-0.1,0.1-0.2C70.2-54.2,70.1-54.3,69.9-54.3C69.9-54.4,69.9-54.4,69.9-54.3z"/>
			<path class="st1" d="M63.9-61.8c-0.1,0-0.2,0-0.2,0.1c-0.1,0.1-0.1,0.2-0.1,0.2c0,0.1,0,0.2,0.1,0.2c0.1,0.1,0.4,0.1,0.5,0
				c0.1-0.1,0.1-0.2,0.1-0.2C64.2-61.7,64.1-61.8,63.9-61.8C63.9-61.9,63.9-61.9,63.9-61.8z"/>
			<path class="st1" d="M70.6-61.1c-0.2,0-0.3,0.1-0.3,0.3c0,0,0,0,0,0c0,0.1,0,0.2,0.1,0.2c0.1,0.1,0.4,0.1,0.5,0
				c0.1-0.1,0.1-0.2,0.1-0.2C70.9-60.9,70.8-61.1,70.6-61.1C70.6-61.1,70.6-61.1,70.6-61.1L70.6-61.1z"/>
			<path class="st1" d="M65.1-65.6c-0.2,0-0.4,0.2-0.4,0.3c0,0.1,0,0.2,0.1,0.3c0.1,0.1,0.4,0.1,0.5,0c0.1-0.1,0.1-0.2,0.1-0.2
				C65.5-65.4,65.3-65.6,65.1-65.6C65.1-65.6,65.1-65.6,65.1-65.6L65.1-65.6z"/>
			<path class="st1" d="M66.1-68.3c-0.2,0-0.4,0.2-0.4,0.3c0,0.1,0,0.2,0.1,0.3c0.1,0.1,0.4,0.1,0.5,0c0.1-0.1,0.1-0.4,0-0.5
				C66.3-68.3,66.2-68.4,66.1-68.3z"/>
			<path class="st1" d="M62.9-70.3c-0.2,0-0.3,0.1-0.3,0.3c0,0,0,0,0,0c0,0.1,0,0.2,0.1,0.2c0.1,0.1,0.4,0.1,0.5,0
				c0.1-0.1,0.1-0.1,0.1-0.2C63.2-70.2,63.1-70.3,62.9-70.3C62.9-70.3,62.9-70.3,62.9-70.3L62.9-70.3z"/>
			<path class="st1" d="M53.1-69.8c-0.1,0-0.2,0-0.2,0.1c-0.1,0.1-0.1,0.4,0,0.5c0.1,0.1,0.4,0.1,0.5,0c0.1-0.1,0.1-0.1,0.1-0.2
				c0-0.1,0-0.2-0.1-0.2C53.3-69.8,53.2-69.8,53.1-69.8z"/>
			<path class="st1" d="M45.1-66.6c-0.1,0-0.2,0-0.2,0.1c-0.1,0.1-0.1,0.2-0.1,0.2c0,0.1,0,0.2,0.1,0.2c0.1,0.1,0.4,0.1,0.5,0
				c0.1-0.1,0.1-0.2,0.1-0.2C45.5-66.4,45.3-66.6,45.1-66.6C45.1-66.6,45.1-66.6,45.1-66.6z"/>
			<path class="st1" d="M28.9-71.3c-0.1,0-0.2,0-0.2,0.1c-0.1,0.1-0.1,0.2-0.1,0.2c0,0.1,0,0.2,0.1,0.2c0.1,0.1,0.4,0.1,0.5,0
				c0.1-0.1,0.1-0.1,0.1-0.2c0-0.1,0-0.2-0.1-0.2C29-71.3,28.9-71.3,28.9-71.3z"/>
			<path class="st1" d="M3.4-29.6c-0.1,0-0.2,0-0.2,0.1C3-29.4,3-29.1,3.1-29c0.1,0.1,0.4,0.1,0.5,0c0.1-0.1,0.1-0.4,0-0.5
				C3.5-29.6,3.4-29.6,3.4-29.6z"/>
			<path class="st1" d="M13.6-5.1c-0.1,0-0.2,0-0.2,0.1c-0.1,0.1-0.1,0.1-0.1,0.2c0,0.1,0,0.2,0.1,0.3c0.1,0.1,0.4,0.1,0.5,0
				c0.1-0.1,0.1-0.1,0.1-0.2c0-0.1,0-0.2-0.1-0.2C13.8-5.1,13.7-5.1,13.6-5.1z"/>
			<path class="st1" d="M70.6-34.6c-0.2,0-0.3,0.1-0.3,0.3c0,0,0,0,0,0c0,0.1,0,0.2,0.1,0.2c0.1,0.1,0.4,0.1,0.5,0
				c0.1-0.1,0.1-0.2,0.1-0.2C70.9-34.4,70.8-34.6,70.6-34.6C70.6-34.6,70.6-34.6,70.6-34.6L70.6-34.6z"/>
			<path class="st1" d="M71.6-41.3c-0.2,0-0.4,0.2-0.4,0.3c0,0.1,0,0.2,0.1,0.3c0.1,0.1,0.4,0.1,0.5,0c0.1-0.1,0.1-0.4,0-0.5
				C71.8-41.3,71.7-41.4,71.6-41.3z"/>
			<path class="st1" d="M1.4-51.8c-0.1,0-0.2,0-0.2,0.1C1-51.7,1-51.6,1-51.5c0,0.1,0,0.2,0.1,0.2c0.1,0.1,0.4,0.1,0.5,0
				c0.1-0.1,0.1-0.2,0.1-0.2c0-0.1,0-0.2-0.1-0.2C1.5-51.8,1.4-51.8,1.4-51.8z"/>
			<path class="st1" d="M72.4-23.6c-0.2,0-0.4,0.2-0.4,0.3c0,0.1,0,0.2,0.1,0.3c0.1,0.1,0.4,0.1,0.5,0c0.1-0.1,0.1-0.4,0-0.5
				C72.5-23.6,72.4-23.6,72.4-23.6z"/>
			<path class="st1" d="M69.4-26.6c-0.2,0-0.4,0.2-0.4,0.3c0,0.1,0,0.2,0.1,0.3c0.1,0.1,0.4,0.1,0.5,0c0.1-0.1,0.1-0.2,0.1-0.2
				c0-0.1,0-0.2-0.1-0.2C69.5-26.6,69.4-26.6,69.4-26.6z"/>
			<path class="st1" d="M68.9-60.3c-0.2,0-0.3,0.1-0.3,0.3c0,0,0,0,0,0c0,0.1,0,0.2,0.1,0.2c0.1,0.1,0.4,0.1,0.5,0
				c0.1-0.1,0.1-0.4,0-0.5C69-60.3,68.9-60.4,68.9-60.3z"/>
			<path class="st1" d="M71.9-68.3c-0.2,0-0.4,0.2-0.4,0.3c0,0.1,0,0.2,0.1,0.3c0.1,0.1,0.4,0.1,0.5,0c0.1-0.1,0.1-0.2,0.1-0.2
				c0-0.1,0-0.2-0.1-0.2C72-68.3,71.9-68.3,71.9-68.3z"/>
			<path class="st1" d="M0.9-57.8c-0.1,0-0.2,0-0.2,0.1c-0.1,0.1-0.1,0.4,0,0.5c0.1,0.1,0.4,0.1,0.5,0c0.1-0.1,0.1-0.4,0-0.5
				C1-57.8,0.9-57.8,0.9-57.8z"/>
			<path class="st1" d="M3.1-71.3c-0.1,0-0.2,0-0.2,0.1c-0.1,0.1-0.1,0.4,0,0.5c0.1,0.1,0.4,0.1,0.5,0c0.1-0.1,0.1-0.1,0.1-0.2
				c0-0.1,0-0.2-0.1-0.2C3.3-71.3,3.2-71.3,3.1-71.3z"/>
			<path class="st1" d="M70.6-24.1c-0.2,0-0.3,0.1-0.3,0.3c0,0,0,0,0,0c0,0.1,0,0.2,0.1,0.2c0.1,0.1,0.4,0.1,0.5,0
				c0.1-0.1,0.1-0.2,0.1-0.2C70.9-23.9,70.8-24.1,70.6-24.1C70.6-24.1,70.6-24.1,70.6-24.1L70.6-24.1z"/>
			<path class="st1" d="M1.6-16.9c-0.1,0-0.2,0-0.2,0.1c-0.1,0.1-0.1,0.4,0,0.5c0.1,0.1,0.4,0.1,0.5,0c0.1-0.1,0.1-0.4,0-0.5
				C1.8-16.8,1.7-16.8,1.6-16.9z"/>
			<path class="st1" d="M18.4-13.1c-0.4,0-0.6,0.3-0.6,0.6c0,0.2,0.1,0.3,0.2,0.5c0.3,0.2,0.7,0.2,0.9,0c0.3-0.3,0.3-0.7,0-0.9
				C18.7-13.1,18.5-13.2,18.4-13.1z"/>
			<path class="st1" d="M29.6-11.1c-0.2,0-0.3,0.1-0.5,0.2C29-10.8,29-10.7,29-10.5c0,0.2,0.1,0.3,0.2,0.5c0.3,0.2,0.7,0.2,0.9,0
				c0.1-0.1,0.2-0.3,0.2-0.5C30.3-10.9,30-11.1,29.6-11.1z"/>
			<path class="st1" d="M29.6-3.7C29.2-3.6,29-3.4,29-3c0,0.2,0.1,0.3,0.2,0.5c0.3,0.2,0.7,0.2,0.9,0c0.3-0.3,0.3-0.7,0-0.9
				c0,0,0,0,0,0C29.9-3.6,29.8-3.6,29.6-3.7z"/>
			<path class="st1" d="M40.6-10.6c-0.4,0-0.7,0.3-0.7,0.6v0c0,0.2,0.1,0.3,0.2,0.5c0.3,0.2,0.7,0.2,0.9,0c0.1-0.1,0.2-0.3,0.2-0.5
				c0-0.2-0.1-0.3-0.2-0.5C40.9-10.6,40.8-10.6,40.6-10.6z"/>
			<path class="st1" d="M45.4-12.1c-0.2,0-0.3,0.1-0.5,0.2c-0.1,0.1-0.2,0.3-0.2,0.4c0,0.2,0.1,0.3,0.2,0.5c0.3,0.2,0.7,0.2,0.9,0
				c0.1-0.1,0.2-0.3,0.2-0.5c0-0.2-0.1-0.3-0.2-0.5C45.7-12.1,45.5-12.2,45.4-12.1z"/>
			<path class="st1" d="M47.6-23.1c-0.4,0-0.7,0.2-0.7,0.6c0,0.2,0.1,0.4,0.2,0.5c0.3,0.2,0.7,0.2,0.9,0c0.3-0.3,0.3-0.7,0-0.9
				C47.9-23,47.8-23.1,47.6-23.1L47.6-23.1z"/>
			<path class="st1" d="M55.1-7.2c-0.2,0-0.3,0-0.5,0.2c-0.3,0.3-0.3,0.7,0,0.9c0,0,0,0,0,0c0.3,0.2,0.7,0.2,0.9,0
				c0.1-0.1,0.2-0.3,0.2-0.5c0-0.2-0.1-0.3-0.2-0.5C55.4-7.1,55.3-7.2,55.1-7.2z"/>
			<path class="st1" d="M64.4-6.9c-0.4,0-0.7,0.3-0.7,0.6c0,0.2,0.1,0.3,0.2,0.5c0.3,0.2,0.7,0.2,0.9,0c0.3-0.3,0.3-0.7,0-0.9
				C64.7-6.8,64.5-6.9,64.4-6.9z"/>
			<path class="st1" d="M65.4-2.9c-0.2,0-0.3,0.1-0.5,0.2c-0.1,0.1-0.2,0.3-0.2,0.5c0,0.2,0.1,0.3,0.2,0.5c0.3,0.2,0.7,0.2,0.9,0
				C65.9-1.9,66-2.1,66-2.2c0-0.2-0.1-0.3-0.2-0.5C65.7-2.8,65.5-2.9,65.4-2.9z"/>
			<path class="st1" d="M69.9-18.4c-0.4,0-0.7,0.2-0.7,0.6c0,0.2,0.1,0.4,0.2,0.5c0.3,0.2,0.7,0.2,0.9,0c0.3-0.3,0.3-0.7,0-0.9
				C70.1-18.3,70-18.4,69.9-18.4L69.9-18.4z"/>
			<path class="st1" d="M8.4-47.4c-0.2,0-0.3,0.1-0.5,0.2c-0.1,0.1-0.2,0.3-0.2,0.5c0,0.2,0.1,0.3,0.2,0.5c0.3,0.2,0.7,0.2,0.9,0
				C8.9-46.4,9-46.6,9-46.8c0-0.2-0.1-0.3-0.2-0.5C8.7-47.3,8.5-47.4,8.4-47.4z"/>
			<path class="st1" d="M5.4-57.2c-0.2,0-0.3,0-0.5,0.2c-0.3,0.3-0.3,0.7,0,0.9c0,0,0,0,0,0c0.3,0.2,0.7,0.2,0.9,0
				c0.3-0.3,0.3-0.7,0-0.9c0,0,0,0,0,0C5.7-57.1,5.5-57.2,5.4-57.2z"/>
			<path class="st1" d="M2.6-67.4c-0.2,0-0.3,0.1-0.5,0.2C2-67.1,2-66.9,2-66.8c0,0.2,0.1,0.3,0.2,0.5c0.3,0.2,0.7,0.2,0.9,0
				c0.1-0.1,0.2-0.3,0.2-0.5c0-0.2-0.1-0.3-0.2-0.5C2.9-67.3,2.8-67.4,2.6-67.4z"/>
			<path class="st1" d="M18.1-70.2c-0.2,0-0.3,0.1-0.5,0.2c-0.1,0.1-0.2,0.3-0.2,0.5c0,0.2,0.1,0.3,0.2,0.5c0.3,0.2,0.7,0.2,0.9,0
				c0.1-0.1,0.2-0.3,0.2-0.5c0-0.2-0.1-0.3-0.2-0.5C18.4-70.1,18.3-70.1,18.1-70.2z"/>
			<path class="st1" d="M19.6-62.7c-0.4,0-0.6,0.3-0.6,0.7l0,0c0,0.2,0.1,0.3,0.2,0.5c0.3,0.2,0.7,0.2,0.9,0
				c0.1-0.1,0.2-0.3,0.2-0.5c0-0.2-0.1-0.3-0.2-0.5C19.9-62.6,19.8-62.6,19.6-62.7z"/>
			<path class="st1" d="M21.4-45.7c-0.4,0-0.6,0.3-0.6,0.7l0,0c0,0.2,0.1,0.3,0.2,0.5c0.3,0.2,0.7,0.2,0.9,0
				c0.1-0.1,0.2-0.3,0.2-0.5c0-0.2-0.1-0.3-0.2-0.5C21.7-45.6,21.5-45.7,21.4-45.7z"/>
			<path class="st1" d="M28.9-51.4c-0.4,0-0.7,0.2-0.7,0.6c0,0.2,0.1,0.4,0.2,0.5c0.3,0.2,0.7,0.2,0.9,0c0.1-0.1,0.2-0.3,0.2-0.5
				c0-0.2-0.1-0.3-0.2-0.5C29.2-51.3,29-51.4,28.9-51.4z"/>
			<path class="st1" d="M34.4-60.7c-0.4,0-0.7,0.3-0.7,0.6v0c0,0.2,0.1,0.3,0.2,0.5c0.3,0.2,0.7,0.2,0.9,0c0.1-0.1,0.2-0.3,0.2-0.5
				c0-0.2-0.1-0.3-0.2-0.5C34.7-60.6,34.5-60.6,34.4-60.7z"/>
			<path class="st1" d="M34.6-67.2c-0.2,0-0.3,0.1-0.5,0.2c-0.3,0.3-0.3,0.7,0,0.9c0,0,0,0,0,0c0.3,0.2,0.7,0.2,0.9,0
				c0.3-0.3,0.3-0.7,0-0.9c0,0,0,0,0,0C34.9-67.1,34.8-67.1,34.6-67.2z"/>
			<path class="st1" d="M42.1-55.4c-0.4,0-0.7,0.3-0.7,0.6c0,0.2,0.1,0.3,0.2,0.5c0.3,0.2,0.7,0.2,0.9,0c0.3-0.3,0.3-0.7,0-0.9
				C42.4-55.3,42.3-55.4,42.1-55.4z"/>
			<path class="st1" d="M52.6-60.2c-0.4,0-0.7,0.2-0.7,0.6c0,0.2,0.1,0.4,0.2,0.5c0.3,0.2,0.7,0.2,0.9,0c0.3-0.3,0.3-0.7,0-0.9
				C52.9-60,52.8-60.1,52.6-60.2L52.6-60.2z"/>
			<path class="st1" d="M55.4-65.7c-0.2,0-0.3,0.1-0.5,0.2c-0.1,0.1-0.2,0.3-0.2,0.5c0,0.2,0.1,0.3,0.2,0.5c0.3,0.2,0.7,0.2,0.9,0
				c0.1-0.1,0.2-0.3,0.2-0.5c0-0.2-0.1-0.3-0.2-0.5C55.7-65.6,55.5-65.6,55.4-65.7z"/>
			<path class="st1" d="M25.6-24.9c-0.2,0-0.3,0.1-0.5,0.2C25-24.6,25-24.4,25-24.2c0,0.2,0.1,0.3,0.2,0.5c0.3,0.2,0.7,0.2,0.9,0
				c0.1-0.1,0.2-0.3,0.2-0.5c0-0.2-0.1-0.3-0.2-0.5C25.9-24.8,25.8-24.9,25.6-24.9z"/>
			<path class="st1" d="M35.6-23.6c-0.2,0-0.3,0.1-0.5,0.2c-0.3,0.3-0.3,0.7,0,0.9c0,0,0,0,0,0c0.3,0.2,0.7,0.2,0.9,0
				c0.3-0.3,0.3-0.7,0-0.9C35.9-23.6,35.8-23.7,35.6-23.6z"/>
			<path class="st1" d="M45.4-29.9c-0.4,0-0.7,0.3-0.7,0.6c0,0.2,0.1,0.3,0.2,0.5c0.3,0.2,0.7,0.2,0.9,0c0.1-0.1,0.2-0.3,0.2-0.5
				c0-0.2-0.1-0.3-0.2-0.5C45.7-29.8,45.5-29.9,45.4-29.9z"/>
			<path class="st1" d="M52.4-43.4c-0.4,0-0.7,0.3-0.7,0.6c0,0.2,0.1,0.3,0.2,0.5c0.3,0.2,0.7,0.2,0.9,0c0.1-0.1,0.2-0.3,0.2-0.5
				C53-43.1,52.7-43.4,52.4-43.4C52.4-43.4,52.4-43.4,52.4-43.4z"/>
			<path class="st1" d="M67.4-52.2c-0.4,0-0.7,0.3-0.7,0.6v0c0,0.2,0.1,0.3,0.2,0.5c0.3,0.2,0.7,0.2,0.9,0c0.3-0.3,0.3-0.7,0-0.9
				C67.7-52.1,67.5-52.2,67.4-52.2z"/>
			<path class="st1" d="M47.6-48.2c-0.4,0-0.7,0.2-0.7,0.6c0,0.2,0.1,0.4,0.2,0.5c0.3,0.2,0.7,0.2,0.9,0c0.3-0.3,0.3-0.7,0-0.9
				C47.9-48,47.8-48.1,47.6-48.2L47.6-48.2z"/>
			<path class="st1" d="M37.4-44.9c-0.2,0-0.3,0.1-0.5,0.2c-0.1,0.1-0.2,0.3-0.2,0.5c0,0.2,0.1,0.3,0.2,0.5c0.3,0.2,0.7,0.2,0.9,0
				c0.1-0.1,0.2-0.3,0.2-0.5c0-0.2-0.1-0.3-0.2-0.5C37.7-44.8,37.5-44.9,37.4-44.9z"/>
			<path class="st1" d="M17.4-28.9c-0.4,0-0.7,0.3-0.7,0.6c0,0.2,0.1,0.3,0.2,0.5c0.3,0.2,0.7,0.2,0.9,0c0.3-0.3,0.3-0.7,0-0.9
				c0,0,0,0,0,0C17.7-28.8,17.5-28.9,17.4-28.9z"/>
			<path class="st1" d="M11.6-37.2c-0.4,0-0.6,0.3-0.6,0.7l0,0c0,0.2,0.1,0.3,0.2,0.5c0.3,0.2,0.7,0.2,0.9,0c0.3-0.3,0.3-0.7,0-0.9
				C11.9-37.1,11.8-37.2,11.6-37.2z"/>
			<path class="st1" d="M67.9-31.1c-0.2,0-0.4,0-0.5,0.1c-0.1,0.1-0.2,0.3-0.2,0.5c0,0.2,0,0.4,0.2,0.5c0.3,0.3,0.7,0.3,1,0
				c0,0,0,0,0,0c0.1-0.1,0.2-0.3,0.2-0.5C68.5-30.8,68.2-31.1,67.9-31.1L67.9-31.1L67.9-31.1z"/>
			<path class="st1" d="M7.6-16.1c-0.2,0-0.3,0.1-0.5,0.2C7-15.8,7-15.7,7-15.5c0,0.2,0.1,0.4,0.2,0.5c0.3,0.2,0.7,0.2,0.9,0
				c0.3-0.3,0.3-0.7,0-0.9c0,0,0,0,0,0C7.9-16.1,7.8-16.1,7.6-16.1z"/>
			<path class="st1" d="M8.9-5.7c-0.2,0-0.4,0.1-0.5,0.2C8.2-5.3,8.2-5.2,8.2-5c0,0.2,0,0.3,0.2,0.5c0.3,0.2,0.7,0.2,0.9,0
				C9.4-4.7,9.5-4.8,9.5-5C9.5-5.4,9.2-5.7,8.9-5.7z"/>
			<path class="st1" d="M3.9-2.9c-0.2,0-0.4,0.1-0.5,0.2C3.2-2.6,3.2-2.4,3.2-2.2c0,0.2,0.1,0.3,0.2,0.5c0.3,0.2,0.7,0.2,0.9,0
				c0.1-0.1,0.2-0.3,0.2-0.5c0-0.2,0-0.3-0.1-0.5C4.2-2.8,4-2.9,3.9-2.9z"/>
			<path class="st1" d="M66.9-37.7c-0.4,0-0.7,0.2-0.7,0.6c0,0.2,0.1,0.4,0.2,0.5c0.3,0.2,0.7,0.2,0.9,0c0.1-0.1,0.2-0.3,0.2-0.5
				c0-0.2-0.1-0.3-0.2-0.5C67.2-37.6,67-37.6,66.9-37.7z"/>
			<path class="st1" d="M44.4-63.4c-0.2,0-0.3,0.1-0.5,0.2c-0.1,0.1-0.2,0.3-0.2,0.5c0,0.2,0.1,0.3,0.2,0.5c0.3,0.2,0.7,0.2,0.9,0
				c0.1-0.1,0.2-0.3,0.2-0.5c0-0.2-0.1-0.3-0.2-0.5C44.7-63.3,44.5-63.4,44.4-63.4z"/>
			<path class="st1" d="M26.1-70.4c-0.2,0-0.3,0.1-0.5,0.2c-0.1,0.1-0.2,0.3-0.2,0.5c0,0.2,0.1,0.3,0.2,0.5c0.3,0.2,0.7,0.2,0.9,0
				c0.1-0.1,0.2-0.3,0.2-0.5c0-0.2-0.1-0.3-0.2-0.5C26.4-70.3,26.3-70.4,26.1-70.4z"/>
			<path class="st1" d="M22.4-42.2c-0.2,0-0.3,0.1-0.5,0.2c-0.3,0.3-0.3,0.7,0,0.9c0,0,0,0,0,0c0.3,0.2,0.7,0.2,0.9,0
				c0.3-0.3,0.3-0.7,0-0.9C22.7-42.1,22.5-42.2,22.4-42.2z"/>
			<path class="st1" d="M24.4-29.4c-0.2,0-0.3,0.1-0.5,0.2c-0.1,0.1-0.2,0.3-0.2,0.5c0,0.2,0.1,0.3,0.2,0.5c0.3,0.2,0.7,0.2,0.9,0
				c0.1-0.1,0.2-0.3,0.2-0.5C25-29.1,24.7-29.4,24.4-29.4z"/>
			<path class="st1" d="M41.9-34.9c-0.4,0-0.7,0.2-0.7,0.6c0,0.2,0.1,0.4,0.2,0.5c0.3,0.2,0.7,0.2,0.9,0c0.1-0.1,0.2-0.3,0.2-0.5
				c0-0.2-0.1-0.3-0.2-0.5C42.2-34.8,42-34.9,41.9-34.9z"/>
			<path class="st1" d="M67.9-44.2c-0.2,0-0.4,0-0.5,0.2c-0.1,0.1-0.2,0.3-0.2,0.5c0,0.2,0,0.4,0.2,0.5c0.3,0.3,0.7,0.3,1,0
				c0,0,0,0,0,0c0.1-0.1,0.2-0.3,0.2-0.5C68.5-43.8,68.2-44.1,67.9-44.2L67.9-44.2L67.9-44.2z"/>
			<path class="st1" d="M53.6-15.4c-0.4,0-0.7,0.3-0.7,0.6c0,0.2,0.1,0.3,0.2,0.5c0.3,0.2,0.7,0.2,0.9,0c0.1-0.1,0.2-0.3,0.2-0.5
				c0-0.2-0.1-0.3-0.2-0.5C53.9-15.3,53.8-15.4,53.6-15.4z"/>
			<path class="st1" d="M34.4-16.4c-0.2,0-0.3,0.1-0.5,0.2c-0.1,0.1-0.2,0.3-0.2,0.5c0,0.2,0.1,0.3,0.2,0.5c0.3,0.2,0.7,0.2,0.9,0
				c0.1-0.1,0.2-0.3,0.2-0.5C35-16.1,34.7-16.4,34.4-16.4C34.4-16.4,34.4-16.4,34.4-16.4z"/>
			<path class="st1" d="M13.1-19.6c-0.4,0-0.7,0.3-0.7,0.6c0,0.2,0.1,0.3,0.2,0.5c0.3,0.2,0.7,0.2,0.9,0c0.3-0.3,0.3-0.7,0-0.9
				C13.4-19.6,13.3-19.7,13.1-19.6z"/>
			<path class="st1" d="M49.9-4.9c-0.4,0-0.7,0.2-0.7,0.6c0,0.2,0.1,0.4,0.2,0.5c0.3,0.2,0.7,0.2,0.9,0c0.3-0.3,0.3-0.7,0-0.9
				C50.2-4.8,50-4.9,49.9-4.9z"/>
			<path class="st1" d="M59.4-21.1c-0.4,0-0.7,0.2-0.7,0.6c0,0.2,0.1,0.4,0.2,0.5c0.3,0.2,0.7,0.2,0.9,0c0.1-0.1,0.2-0.3,0.2-0.5
				C60-20.8,59.7-21.1,59.4-21.1L59.4-21.1L59.4-21.1z"/>
			<path class="st1" d="M67.9-57.7c-0.2,0-0.3,0.1-0.5,0.2c-0.1,0.1-0.2,0.3-0.2,0.5c0,0.2,0.1,0.3,0.2,0.5c0.3,0.2,0.7,0.2,0.9,0
				c0.1-0.1,0.2-0.3,0.2-0.5C68.5-57.4,68.2-57.7,67.9-57.7C67.9-57.7,67.9-57.7,67.9-57.7z"/>
			<path class="st1" d="M5.6-70.2c-0.2,0-0.3,0-0.5,0.2c-0.3,0.3-0.3,0.7,0,0.9c0,0,0,0,0,0c0.3,0.2,0.7,0.2,0.9,0
				c0.3-0.3,0.3-0.7,0-0.9c0,0,0,0,0,0C5.9-70.1,5.8-70.2,5.6-70.2z"/>
			<path class="st1" d="M3.1-13.6c-0.2,0-0.3,0.1-0.5,0.2c-0.1,0.1-0.2,0.3-0.2,0.4c0,0.2,0.1,0.3,0.2,0.5c0.3,0.2,0.7,0.2,0.9,0
				c0.3-0.3,0.3-0.7,0-0.9c0,0,0,0,0,0C3.4-13.6,3.3-13.7,3.1-13.6z"/>
			<path class="st1" d="M16.9-3.7c-0.4,0-0.7,0.2-0.7,0.6c0,0.2,0.1,0.4,0.2,0.5c0.3,0.2,0.7,0.2,0.9,0c0.3-0.3,0.3-0.7,0-0.9
				C17.1-3.6,17-3.7,16.9-3.7L16.9-3.7z"/>
			<path class="st1" d="M40.9-4.9c-0.4,0-0.7,0.2-0.7,0.6c0,0.2,0.1,0.4,0.2,0.5c0.3,0.2,0.7,0.2,0.9,0c0.1-0.1,0.2-0.3,0.2-0.5
				C41.5-4.6,41.2-4.9,40.9-4.9L40.9-4.9L40.9-4.9z"/>
			<path class="st1" d="M3.1-32.4c-0.2,0-0.3,0.1-0.5,0.2c-0.3,0.3-0.3,0.7,0,0.9c0,0,0,0,0,0c0.3,0.2,0.7,0.2,0.9,0
				c0.3-0.3,0.3-0.7,0-0.9C3.4-32.3,3.3-32.4,3.1-32.4z"/>
			<path class="st1" d="M7.9-25.4c-0.2,0-0.4,0.1-0.5,0.2c-0.3,0.3-0.3,0.7,0,0.9c0,0,0,0,0,0c0.3,0.2,0.7,0.2,0.9,0
				c0.1-0.1,0.2-0.3,0.2-0.5c0-0.2-0.1-0.3-0.2-0.5C8.2-25.3,8-25.4,7.9-25.4z"/>
			<path class="st1" d="M4.4-47.2c-0.2,0-0.3,0-0.5,0.2c-0.1,0.1-0.2,0.3-0.2,0.5c0,0.2,0,0.4,0.2,0.5c0.3,0.2,0.7,0.2,0.9,0
				C4.9-46.1,5-46.3,5-46.5c0-0.2-0.1-0.3-0.2-0.5C4.7-47.1,4.5-47.1,4.4-47.2z"/>
			<path class="st1" d="M11.4-50.9c-0.2,0-0.3,0.1-0.5,0.2c-0.1,0.1-0.2,0.3-0.2,0.5c0,0.2,0.1,0.3,0.2,0.5c0.3,0.2,0.7,0.2,0.9,0
				c0.1-0.1,0.2-0.3,0.2-0.5c0-0.2-0.1-0.3-0.2-0.5C11.7-50.8,11.5-50.9,11.4-50.9z"/>
			<path class="st1" d="M10.4-60.2c-0.2,0-0.3,0-0.5,0.2c-0.3,0.3-0.3,0.7,0,0.9c0,0,0,0,0,0c0.3,0.2,0.7,0.2,0.9,0
				c0.3-0.3,0.3-0.7,0-0.9c0,0,0,0,0,0C10.7-60.1,10.5-60.2,10.4-60.2z"/>
			<path class="st1" d="M13.9-66.2c-0.2,0-0.4,0-0.5,0.2c-0.1,0.1-0.2,0.3-0.2,0.5c0,0.2,0,0.4,0.2,0.5c0.2,0.3,0.7,0.3,0.9,0.1
				c0,0,0,0,0.1-0.1c0.1-0.1,0.2-0.3,0.2-0.5c0-0.2-0.1-0.4-0.2-0.5C14.2-66.1,14-66.2,13.9-66.2z"/>
			<path class="st1" d="M22.4-53.7c-0.2,0-0.3,0.1-0.5,0.2c-0.1,0.1-0.2,0.3-0.2,0.5c0,0.2,0.1,0.3,0.2,0.5c0.3,0.2,0.7,0.2,0.9,0
				c0.1-0.1,0.2-0.3,0.2-0.4c0-0.2-0.1-0.3-0.2-0.5C22.7-53.6,22.5-53.6,22.4-53.7z"/>
			<path class="st1" d="M31.6-37.9c-0.2,0-0.3,0.1-0.5,0.2C31-37.6,31-37.4,31-37.3c0,0.2,0.1,0.3,0.2,0.5c0.3,0.2,0.7,0.2,0.9,0
				c0.1-0.1,0.2-0.3,0.2-0.5c0-0.2-0.1-0.3-0.2-0.5C31.9-37.8,31.8-37.9,31.6-37.9z"/>
			<path class="st1" d="M26.4-34.4c-0.4,0-0.7,0.3-0.7,0.6c0,0.2,0.1,0.3,0.2,0.5c0.3,0.2,0.7,0.2,0.9,0c0.3-0.3,0.3-0.7,0-0.9
				C26.7-34.3,26.5-34.4,26.4-34.4z"/>
			<path class="st1" d="M37.6-28.9c-0.2,0-0.3,0.1-0.5,0.2C37-28.6,37-28.4,37-28.2c0,0.2,0.1,0.3,0.2,0.5c0.3,0.2,0.7,0.2,0.9,0
				c0.1-0.1,0.2-0.3,0.2-0.5c0-0.2-0.1-0.3-0.2-0.5C37.9-28.8,37.8-28.9,37.6-28.9z"/>
			<path class="st1" d="M62.1-16.9c-0.2,0-0.3,0.1-0.5,0.2c-0.1,0.1-0.2,0.3-0.2,0.5c0,0.2,0.1,0.3,0.2,0.5c0.3,0.2,0.7,0.2,0.9,0
				c0.1-0.1,0.2-0.3,0.2-0.5C62.8-16.6,62.5-16.9,62.1-16.9C62.1-16.9,62.1-16.9,62.1-16.9z"/>
			<path class="st1" d="M61.6-27.4c-0.2,0-0.3,0.1-0.5,0.2C61-27.1,61-26.9,61-26.8c0,0.2,0.1,0.3,0.2,0.5c0.3,0.2,0.7,0.2,0.9,0
				c0.3-0.3,0.3-0.7,0-0.9c0,0,0,0,0,0C61.9-27.3,61.8-27.4,61.6-27.4z"/>
			<path class="st1" d="M59.1-57.4c-0.2,0-0.3,0.1-0.5,0.2c-0.1,0.1-0.2,0.3-0.2,0.5c0,0.2,0.1,0.3,0.2,0.5c0.3,0.2,0.7,0.2,0.9,0
				c0.1-0.1,0.2-0.3,0.2-0.5c0-0.2-0.1-0.3-0.2-0.5C59.4-57.3,59.3-57.4,59.1-57.4z"/>
			<path class="st1" d="M59.6-44.7c-0.2,0-0.3,0.1-0.5,0.2c-0.3,0.3-0.3,0.7,0,0.9c0,0,0,0,0,0c0.3,0.2,0.7,0.2,0.9,0
				c0.3-0.3,0.3-0.7,0-0.9c0,0,0,0,0,0C59.9-44.6,59.8-44.7,59.6-44.7z"/>
			<path class="st1" d="M56.1-35.9c-0.2,0-0.3,0.1-0.5,0.2c-0.1,0.1-0.2,0.3-0.2,0.5c0,0.2,0.1,0.3,0.2,0.5c0.3,0.2,0.7,0.2,0.9,0
				c0.1-0.1,0.2-0.3,0.2-0.5c0-0.2-0.1-0.3-0.2-0.5C56.4-35.8,56.3-35.9,56.1-35.9z"/>
			<path class="st1" d="M69.6-70.9c-0.2,0-0.3,0.1-0.5,0.2c-0.3,0.3-0.3,0.7,0,0.9c0,0,0,0,0,0c0.3,0.2,0.7,0.2,0.9,0
				c0.3-0.3,0.3-0.7,0-0.9C69.9-70.8,69.8-70.9,69.6-70.9z"/>
			<path class="st1" d="M61.1-66.2c-0.4,0-0.7,0.2-0.7,0.6c0,0.2,0.1,0.4,0.2,0.5c0.3,0.2,0.7,0.2,0.9,0c0.1-0.1,0.2-0.3,0.2-0.5
				C61.8-65.8,61.5-66.1,61.1-66.2L61.1-66.2L61.1-66.2z"/>
			<path class="st1" d="M44.9-71.7c-0.4,0-0.7,0.2-0.7,0.6c0,0.2,0.1,0.4,0.2,0.5c0.3,0.2,0.7,0.2,0.9,0c0.3-0.3,0.3-0.7,0-0.9
				C45.1-71.6,45-71.7,44.9-71.7L44.9-71.7z"/>
			<path class="st1" d="M24.9-1.4c-0.4,0-0.6,0.3-0.6,0.6c0,0.2,0,0.3,0.1,0.5C24.6,0,25,0,25.3-0.3c0.1-0.1,0.2-0.3,0.2-0.5
				c0-0.2-0.1-0.3-0.2-0.5C25.2-1.3,25-1.4,24.9-1.4z"/>
			<path class="st1" d="M0.4-23.6c-0.1,0-0.2,0-0.2,0.1C0-23.4,0-23.1,0.1-23c0.1,0.1,0.4,0.1,0.5,0c0.1-0.1,0.1-0.2,0.1-0.2
				c0-0.1,0-0.2-0.1-0.2C0.5-23.6,0.4-23.6,0.4-23.6z"/>
		</g>
	</g>
</pattern>
<g>
	<defs>
		<rect id="SVGID_3_" width="1920" height="1080"/>
	</defs>
	<clipPath id="SVGID_4_">
		<use xlink:href="#SVGID_3_"  style="overflow:visible;"/>
	</clipPath>
	<g id="Layer_2_1_" class="st2">
		<g id="Layer_1-2">
			<pattern  id="SVGID_5_" xlink:href="#Dots_-_LUUXX_Blue" patternTransform="matrix(3.0726 0 0 3.0726 14822.7744 18081.6035)">
			</pattern>
			<rect x="-1989.7" y="-1119.2" class="st3" width="5899.4" height="3318.4"/>
		</g>
	</g>
</g>
</svg>
